<svg width="720" height="208" viewBox="0 0 720 208" fill="none" xmlns="http://www.w3.org/2000/svg">
    <path fill-rule="evenodd" clip-rule="evenodd" d="M304.59 45.401c-6.043 1.813-10.461 7.418-10.461 14.04 0 6.625 4.418 12.24 10.461 14.048V45.401zm8.385 37.083h-4.193c-12.703 0-23.04-10.332-23.04-23.042 0-12.702 10.337-23.036 23.04-23.036h4.193v46.078zM384.279 43.86c-.032-13.368-10.852-23.52-24.238-23.52-13.134 0-24.226 10.442-24.226 23.487v38.658h-15.512V43.096c0-20.257 18.28-38.264 39.738-38.264 21.459 0 39.709 17.977 39.709 38.264v39.389h-15.471V43.86zM415.46 45.402V73.49c6.044-1.809 10.463-7.423 10.463-14.048 0-6.623-4.419-12.227-10.463-14.04zm-4.192 37.083h-4.192V36.407h4.192c12.706 0 23.038 10.334 23.038 23.035 0 12.71-10.332 23.043-23.038 23.043zM74.407 197.984c-3.447 0-6.137-.994-8.068-2.982-1.933-1.987-2.9-4.678-2.9-8.063 0-4.32 1.645-7.918 4.93-10.789l15.13 18.373c-2.753 2.307-5.784 3.461-9.091 3.461zm-4.985-44.771c1.992-1.142 4.752-.964 6.531.49 1.915 1.569 2.526 3.754 2.49 6.106-.076 4.573-2.48 7.861-6.014 10.602-2.99-3.169-5.475-6.407-5.938-10.798-.276-2.627.865-5.215 2.93-6.4zm32.611 45.508c-.765.146-1.471.219-2.119.219-1.664 0-3.122-.526-4.372-1.582-1.25-1.054-2.638-2.711-4.165-4.972 2.361-3.681 3.541-8.075 3.541-13.18 0-1.055-.069-2.21-.21-3.461-.069-.442.128-.725.591-.846l4.34-1.144-.107-1.619a95.97 95.97 0 0 1-2.931.11c-1.03.024-2.135.037-3.314.037a218.23 218.23 0 0 1-7.947-.147l.068 1.657 4.304.92c.438.098.768.246.989.443.22.197.365.528.433.994.14.932.21 2.148.21 3.644 0 3.658-.765 6.922-2.292 9.796l-14.797-17.196c7.087-3.51 10.369-7.607 10.369-12.688 0-3.142-.86-5.808-3.11-7.601-2.248-1.79-5.02-2.688-8.318-2.688-3.747 0-6.883 1.056-9.405 3.166-2.525 2.113-3.786 4.924-3.786 8.432 0 1.915.354 3.782 1.058 5.597.707 1.819 2.319 4.297 4.842 7.439-6.71 3.732-10.065 8.444-10.065 14.138 0 4.197 1.63 7.526 4.89 9.979 3.262 2.455 7.277 3.683 12.042 3.683 5.087 0 9.705-1.596 13.85-4.787 2.569 3.289 5.682 4.933 9.337 4.933 2.197 0 4.315-.552 6.351-1.657l-.277-1.619zM6.262 149.77h23.273c5.93 0 10.6 1.63 13.565 4.595 2.297 2.297 3.483 5.113 3.483 8.598v.148c0 6.226-3.558 9.563-7.412 11.564 6.077 2.075 10.302 5.558 10.302 12.598v.15c0 9.264-7.634 14.23-19.196 14.23H6.262V149.77zm31.204 14.676c0-4.077-3.26-6.596-9.117-6.596H15.23v13.785h12.453c5.854 0 9.783-2.298 9.783-7.041v-.148zm-7.782 14.898H15.23v14.23h15.12c6.226 0 10.007-2.446 10.007-7.114v-.15c0-4.372-3.484-6.966-10.673-6.966zM105.797 150.46h8.449l27.795 35.875V150.46h8.968v51.884h-7.635l-28.609-36.912v36.912h-8.968V150.46zM217.468 183.026v-4.859c-3.692-1.067-8.648-2.137-14.772-2.137-9.425 0-14.671 4.081-14.671 10.397v.194c0 6.316 5.829 10.009 12.632 10.009 9.231 0 16.811-5.636 16.811-13.604zm-37.025 3.887v-.196c0-10.591 8.745-16.227 21.478-16.227 6.412 0 10.98.875 15.451 2.137v-1.747c0-9.039-5.54-13.703-14.966-13.703-5.928 0-10.591 1.554-15.257 3.693l-2.234-6.121c5.537-2.528 10.98-4.181 18.268-4.181 7.093 0 12.536 1.847 16.228 5.541 3.4 3.401 5.15 8.259 5.15 14.673v30.707h-7.189v-7.579c-3.5 4.566-9.329 8.648-18.174 8.648-9.326 0-18.755-5.345-18.755-15.645z" fill="#000"/>
    <path clip-rule="evenodd" d="M217.468 183.026v-4.859c-3.692-1.067-8.648-2.137-14.772-2.137-9.425 0-14.671 4.081-14.671 10.397v.194c0 6.316 5.829 10.009 12.632 10.009 9.231 0 16.811-5.636 16.811-13.604zm-37.025 3.887v-.196c0-10.591 8.745-16.227 21.478-16.227 6.412 0 10.98.875 15.451 2.137v-1.747c0-9.039-5.54-13.703-14.966-13.703-5.928 0-10.591 1.554-15.257 3.693l-2.234-6.121c5.537-2.528 10.98-4.181 18.268-4.181 7.093 0 12.536 1.847 16.228 5.541 3.4 3.401 5.15 8.259 5.15 14.673v30.707h-7.189v-7.58c-3.5 4.567-9.329 8.649-18.174 8.649-9.326 0-18.755-5.345-18.755-15.645z" stroke="#000" stroke-width="1.832"/>
    <path fill-rule="evenodd" clip-rule="evenodd" d="M237.777 182.443v-31.194h7.484v29.347c0 9.33 5.052 15.16 13.897 15.16 8.55 0 15.061-6.317 15.061-15.743v-28.764h7.386v50.24h-7.386v-8.746c-3.402 5.442-8.552 9.815-17.2 9.815-12.146 0-19.242-8.163-19.242-20.115z" fill="#000"/>
    <path clip-rule="evenodd" d="M237.777 182.443v-31.194h7.484v29.347c0 9.33 5.052 15.16 13.897 15.16 8.55 0 15.061-6.317 15.061-15.743v-28.764h7.386v50.24h-7.386v-8.746c-3.402 5.442-8.552 9.815-17.2 9.815-12.146 0-19.242-8.163-19.242-20.115z" stroke="#000" stroke-width="1.832"/>
    <path fill-rule="evenodd" clip-rule="evenodd" d="M337.098 176.417v-.194c0-11.562-8.843-19.337-18.172-19.337-9.718 0-17.687 7.19-17.687 19.337v.194c0 11.857 8.259 19.437 17.687 19.437 9.329 0 18.172-7.872 18.172-19.437zm-43.536.098v-.194c0-16.424 11.953-26.141 24.001-26.141 9.329 0 15.355 5.053 19.242 10.69v-30.319h7.482v70.938h-7.482v-10.106c-4.081 6.025-10.009 11.175-19.242 11.175-12.048 0-24.001-9.523-24.001-26.043z" fill="#000"/>
    <path clip-rule="evenodd" d="M337.098 176.417v-.194c0-11.562-8.843-19.337-18.172-19.337-9.718 0-17.687 7.19-17.687 19.337v.194c0 11.857 8.259 19.437 17.687 19.437 9.329 0 18.172-7.872 18.172-19.437zm-43.536.098v-.194c0-16.424 11.953-26.141 24.001-26.141 9.329 0 15.355 5.053 19.242 10.69v-30.319h7.482v70.938h-7.482v-10.106c-4.081 6.025-10.009 11.175-19.242 11.175-12.048 0-24.001-9.523-24.001-26.043z" stroke="#000" stroke-width="1.832"/>
    <path fill-rule="evenodd" clip-rule="evenodd" d="M359.741 201.489h7.482v-50.24h-7.482v50.24zm-.487-61.221h8.552v-8.259h-8.552v8.259z" fill="#000"/>
    <path clip-rule="evenodd" d="M359.741 201.489h7.482v-50.24h-7.482v50.24zm-.487-61.221h8.552v-8.259h-8.552v8.259z" stroke="#000" stroke-width="1.832"/>
    <path fill-rule="evenodd" clip-rule="evenodd" d="M424.266 176.612v-.195c0-10.785-8.066-19.629-18.659-19.629-10.881 0-18.364 8.844-18.364 19.435v.194c0 10.787 7.97 19.533 18.561 19.533 10.882 0 18.462-8.746 18.462-19.338zm-44.702 0v-.195c0-14.186 11.079-26.237 26.24-26.237 15.062 0 26.141 11.855 26.141 26.043v.194c0 14.189-11.176 26.238-26.338 26.238-15.06 0-26.043-11.855-26.043-26.043z" fill="#000"/>
    <path clip-rule="evenodd" d="M424.266 176.612v-.195c0-10.785-8.066-19.629-18.659-19.629-10.881 0-18.364 8.844-18.364 19.435v.194c0 10.787 7.97 19.533 18.561 19.533 10.882 0 18.462-8.746 18.462-19.338zm-44.702 0v-.195c0-14.186 11.079-26.237 26.24-26.237 15.062 0 26.141 11.855 26.141 26.043v.194c0 14.189-11.176 26.238-26.338 26.238-15.06 0-26.043-11.855-26.043-26.043z" stroke="#000" stroke-width="1.832"/>
    <path fill-rule="evenodd" clip-rule="evenodd" d="M486.561 176.515v-.194c0-11.855-8.163-19.435-17.689-19.435-9.328 0-18.17 7.871-18.17 19.337v.194c0 11.662 8.842 19.437 18.17 19.437 9.72 0 17.689-7.192 17.689-19.339zm-35.569 15.354v9.62h-7.482v-70.938h7.482v30.805c4.082-6.024 10.011-11.176 19.24-11.176 12.052 0 24.004 9.525 24.004 26.043v.194c0 16.424-11.856 26.141-24.004 26.141-9.328 0-15.351-5.053-19.24-10.689z" fill="#000"/>
    <path clip-rule="evenodd" d="M486.561 176.515v-.194c0-11.855-8.163-19.435-17.689-19.435-9.328 0-18.17 7.871-18.17 19.337v.194c0 11.662 8.842 19.437 18.17 19.437 9.72 0 17.689-7.192 17.689-19.339zm-35.569 15.354v9.62h-7.482v-70.938h7.482v30.805c4.082-6.024 10.011-11.176 19.24-11.176 12.052 0 24.004 9.525 24.004 26.043v.194c0 16.424-11.856 26.141-24.004 26.141-9.328 0-15.351-5.053-19.24-10.689z" stroke="#000" stroke-width="1.832"/>
    <path fill-rule="evenodd" clip-rule="evenodd" d="M547.686 176.612v-.195c0-10.785-8.066-19.629-18.659-19.629-10.881 0-18.364 8.844-18.364 19.435v.194c0 10.787 7.97 19.533 18.561 19.533 10.882 0 18.462-8.746 18.462-19.338zm-44.702 0v-.195c0-14.186 11.079-26.237 26.24-26.237 15.062 0 26.141 11.855 26.141 26.043v.194c0 14.189-11.176 26.238-26.338 26.238-15.061 0-26.043-11.855-26.043-26.043z" fill="#000"/>
    <path clip-rule="evenodd" d="M547.686 176.612v-.195c0-10.785-8.066-19.629-18.659-19.629-10.881 0-18.364 8.844-18.364 19.435v.194c0 10.787 7.97 19.533 18.561 19.533 10.882 0 18.462-8.746 18.462-19.338zm-44.702 0v-.195c0-14.186 11.079-26.237 26.24-26.237 15.062 0 26.141 11.855 26.141 26.043v.194c0 14.189-11.176 26.238-26.338 26.238-15.061 0-26.043-11.855-26.043-26.043z" stroke="#000" stroke-width="1.832"/>
    <path fill-rule="evenodd" clip-rule="evenodd" d="M608.52 176.612v-.195c0-10.785-8.066-19.629-18.657-19.629-10.883 0-18.366 8.844-18.366 19.435v.194c0 10.787 7.969 19.533 18.561 19.533 10.883 0 18.462-8.746 18.462-19.338zm-44.702 0v-.195c0-14.186 11.079-26.237 26.24-26.237 15.062 0 26.14 11.855 26.14 26.043v.194c0 14.189-11.174 26.238-26.335 26.238-15.063 0-26.045-11.855-26.045-26.043z" fill="#000"/>
    <path clip-rule="evenodd" d="M608.52 176.612v-.195c0-10.785-8.066-19.629-18.657-19.629-10.883 0-18.366 8.844-18.366 19.435v.194c0 10.787 7.969 19.533 18.561 19.533 10.883 0 18.462-8.746 18.462-19.338zm-44.702 0v-.195c0-14.186 11.079-26.237 26.24-26.237 15.062 0 26.14 11.855 26.14 26.043v.194c0 14.189-11.174 26.238-26.335 26.238-15.063 0-26.045-11.855-26.045-26.043z" stroke="#000" stroke-width="1.832"/>
    <path fill-rule="evenodd" clip-rule="evenodd" d="M627.764 130.551h7.482v48.975l27.113-28.277h9.329l-21.087 21.573 21.766 28.667h-8.938l-17.978-23.419-10.205 10.3v13.119h-7.482v-70.938z" fill="#000"/>
    <path clip-rule="evenodd" d="M627.764 130.551h7.482v48.975l27.113-28.277h9.329l-21.087 21.573 21.766 28.667h-8.938l-17.978-23.419-10.205 10.3v13.119h-7.482v-70.938z" stroke="#000" stroke-width="1.832"/>
    <path fill-rule="evenodd" clip-rule="evenodd" d="m676.939 195.075 3.79-5.345c5.442 4.081 11.465 6.415 17.395 6.415 6.023 0 10.398-3.111 10.398-7.969v-.194c0-5.054-5.929-6.997-12.538-8.844-7.87-2.234-16.615-4.956-16.615-14.187v-.194c0-8.648 7.19-14.382 17.102-14.382 6.122 0 12.925 2.137 18.074 5.538l-3.4 5.637c-4.666-3.013-10.008-4.858-14.868-4.858-5.928 0-9.718 3.109-9.718 7.287v.195c0 4.761 6.218 6.608 12.925 8.648 7.772 2.333 16.131 5.344 16.131 14.382v.195c0 9.522-7.872 15.061-17.882 15.061-7.189 0-15.158-2.818-20.794-7.385z" fill="#000"/>
    <path clip-rule="evenodd" d="m676.939 195.075 3.79-5.345c5.442 4.081 11.465 6.415 17.395 6.415 6.023 0 10.398-3.111 10.398-7.969v-.194c0-5.054-5.929-6.997-12.538-8.844-7.87-2.234-16.615-4.956-16.615-14.187v-.194c0-8.648 7.19-14.382 17.102-14.382 6.122 0 12.925 2.137 18.074 5.538l-3.4 5.637c-4.666-3.013-10.008-4.858-14.868-4.858-5.928 0-9.718 3.109-9.718 7.287v.195c0 4.761 6.218 6.608 12.925 8.648 7.772 2.333 16.131 5.344 16.131 14.382v.195c0 9.522-7.872 15.061-17.882 15.061-7.189 0-15.158-2.818-20.794-7.385z" stroke="#000" stroke-width="1.832"/>
</svg>
