<svg width="24" height="24" viewBox="0 0 24 24" fill="none" xmlns="http://www.w3.org/2000/svg">
    <g clip-path="url(#pr5in23pta)">
        <path fill-rule="evenodd" clip-rule="evenodd" d="M15.214 23.097H.141V.901h15.073v4.978l2.011-2.009 1.573 1.64-2.31 2.256c.552.26.907.375 1.443.548l.2.065c.206-.415.66-.526.784-.525h4.117c.137.001.272.092.272.207.602 2.303.76 4.656.244 6.96 0 .116-.09.208-.228.211l-3.902.093c-.116.002-.532-.047-.681-.278-.331.092-.678.205-1.03.32-.812.266-1.658.543-2.431.601l-.062.004v7.125zm-2.236-7.303v4.976h-10.6V3.228h10.6V6.19c-.5-.081-.858-.028-1.382.114l-3.492 1.07c-.493.253-.878.551-1.18 1.011a5.55 5.55 0 0 0-.337.631c-.028.058-.052.11-.073.151-.092.183-.188.381-.288.588-.421.864-.915 1.877-1.412 2.567-.548.706-.269 1.49.413 1.974.135.1.285.17.442.216l-.502.45 1.354 1.38 1.437-1.287c.605.598 1.462.548 2.259.501l.313-.017c.61-.027 1.31.081 1.932.177l.191.03.19.029.135.02zm0-1.135c.584.086 1.165.162 1.65.162a3.063 3.063 0 0 0 .586-.049c.544-.095 1.279-.328 1.955-.543.328-.104.643-.203.928-.285.246-1.557.168-3.02-.23-4.35-.799-.212-1.535-.564-2.248-.906l-.128-.06-.277.247-2.236 2.002-.069.061.069.118c.253.448.345.79.28 1.037a.537.537 0 0 1-.281.354l-1.194.587c-.143.04-.342.058-.666.058-.197 0-.415-.006-.62-.013a9.499 9.499 0 0 0-.332-.006c-.574 0-1.012.058-1.34.176-.24.088-.325.15-.377.273-.098.24-.04.57.074.697.126.138.389.205.805.205.19 0 .382-.013.565-.026h.01c.11-.009.213-.015.308-.02.075-.003.151-.005.228-.005.66 0 1.424.116 2.17.23l.37.056zM4.42 17.248l1.85-.626-1.311-1.407-.81 1.74-.145.383v1.107h7.348v-1.107H4.004l.415-.09zm1.381-3.839a.725.725 0 0 1-.41-.22 1.124 1.124 0 0 1 .112-.181c.464-.637 1.294-2.3 1.791-3.295l.002-.002.027-.055c.131-.262.294-.588.323-.634.164-.246.38-.434.68-.588l3.347-1.019c.219-.06.392-.103.581-.103a1.868 1.868 0 0 1 .487.073l-2.103 1.883c-.293.29-.9.482-1.672.537l-.052.003c-.175.011-.54.035-.602.54-.039.318-.368 1-.84 1.743L6.06 13.365a.669.669 0 0 1-.225.045H5.8zm14.602-4.232h1.515c.874 2.36.3 4.719.3 4.719h-1.636c.6-2.152-.179-4.719-.179-4.719z" fill="#3E4D68"/>
    </g>
    <defs>
        <clipPath id="pr5in23pta">
            <path fill="#fff" transform="translate(0 -.001)" d="M0 0h24v24H0z"/>
        </clipPath>
    </defs>
</svg>
