<svg width="24" height="24" viewBox="0 0 48 48" fill="none" xmlns="http://www.w3.org/2000/svg">
    <g clip-path="url(#uybncd5ija)" fill="#3e4d68">
        <path d="M27.802 3.76a.188.188 0 0 0-.187.188v1.143c-1.32.276-2.194 1.233-2.194 2.497 0 .687.252 1.219.701 1.65.442.424 1.07.747 1.819 1.04.527.214.91.435 1.159.686.243.245.363.523.363.87 0 .357-.149.66-.41.878-.265.22-.652.358-1.133.358-.724 0-1.383-.23-1.988-.597a.194.194 0 0 0-.283.098l-.345.974a.181.181 0 0 0 .068.213c.635.419 1.385.626 2.143.669v1.117c0 .104.084.187.188.187h.917a.188.188 0 0 0 .188-.187v-1.185c1.48-.308 2.293-1.425 2.293-2.624 0-.689-.201-1.247-.61-1.712-.403-.459-.996-.814-1.757-1.124-.634-.262-1.058-.478-1.324-.71-.253-.221-.361-.454-.361-.776 0-.247.089-.508.294-.708.203-.198.538-.353 1.06-.353.636 0 1.192.189 1.735.475a.192.192 0 0 0 .27-.1l.364-.96a.183.183 0 0 0-.08-.225 4.244 4.244 0 0 0-1.8-.53V3.948a.187.187 0 0 0-.187-.187h-.903z"/>
        <path fill-rule="evenodd" clip-rule="evenodd" d="M18.444 9.746C18.444 4.37 22.821 0 28.197 0s9.753 4.37 9.753 9.747-4.377 9.753-9.753 9.753c-5.377 0-9.753-4.376-9.753-9.753zm9.753-7.657c-4.225 0-7.658 3.438-7.658 7.657 0 4.225 3.433 7.663 7.658 7.663 4.224 0 7.658-3.438 7.658-7.663 0-4.22-3.434-7.657-7.658-7.657z"/>
        <path d="m8.434 18.469 9.374-2.9a11.898 11.898 0 0 0 10.386 6.086c4.484 0 8.389-2.478 10.42-6.138l5.649 1.07s.809.898.809 2.97c0 2.066-.809 2.785-.809 2.785l-3.731 1.976c.18.719.18 2.923.18 2.923 0 2.568-1.218 2.87-1.6 2.965l-.018.004c-.359.09-.227.241-.227.241s7.42 2.682 8.049 2.994c.629.316.18.718.18.718s-20.68 5.174-22.254 5.618c-1.57.454-1.527 2.478-1.527 2.478v3.007c0 2.384 1.754 1.755 1.754 1.755l22.083-5.916c.69.128.317.814.142.814-.094 0-5.975 1.6-11.666 3.147-5.165 1.405-10.174 2.768-10.559 2.853-.808.18-1.347 0-1.347 0S7.266 37.805 6.684 37.355c-.586-.449-.676-2.246-.676-2.246S1.24 33.804.882 33.714c-.06-.015-.113-.025-.159-.034-.224-.043-.276-.053-.276-.462 0-.554.572-.402.572-.402s19.87 5.215 21.62 5.665c1.754.449 1.485-2.743 1.485-2.743 0-4.18-1.485-4.09-1.485-4.09L8.31 27.865s-6.739-1.58-7.098-1.67a2.863 2.863 0 0 0-.158-.034c-.226-.043-.282-.054-.282-.467 0-.26.128-.364.265-.397l7.353-2.463v2.27l19.87 4.648s1.485.279 1.485-2.734c0-2.407-.832-2.946-1.168-3.069L8.632 19.363c-.059-.015-.11-.025-.155-.034-.228-.045-.284-.056-.284-.468 0-.245.113-.35.24-.392z"/>
        <path d="M45.221 36.89c.482 0 .903.34 1.026.823.147.587-.198 1.187-.766 1.338l-18.877 5.013c-.09.023-.18.038-.274.038a1.078 1.078 0 0 1-1.026-.818c-.147-.596.199-1.197.766-1.343l18.882-5.018a.977.977 0 0 1 .27-.033zM21.217 33.695l-18.692-4.8a1.05 1.05 0 0 0-.27-.032c-.477.004-.889.345-1.007.841-.132.587.213 1.182.77 1.324l18.722 4.805c.08.019.165.028.245.028.473-.01.89-.35 1.003-.842.137-.586-.208-1.182-.77-1.324zM10.73 21.798l16.044 3.689c.567.132.931.719.804 1.31-.109.496-.52.85-1.007.86-.086 0-.17-.01-.256-.028l-16.03-3.684a1.056 1.056 0 0 1-.667-.487 1.122 1.122 0 0 1-.137-.827 1.057 1.057 0 0 1 1.007-.856c.08 0 .166.004.242.023z"/>
    </g>
    <defs>
        <clipPath id="uybncd5ija">
            <path fill="#fff" transform="translate(0 -.001)" d="M0 0h48v48H0z"/>
        </clipPath>
    </defs>
</svg>
