<svg width="37" height="24" viewBox="0 0 37 24" fill="none" xmlns="http://www.w3.org/2000/svg">
    <g clip-path="url(#g5a2fzij8a)" fill="#3E4D68">
        <path fill-rule="evenodd" clip-rule="evenodd" d="M5.232 1.152c6.726.098 11.437 1.882 12.68 2.405v19.05c-1.78-.703-6.322-2.219-12.68-2.307V1.152zM31.739 20.3c-6.359.088-10.901 1.604-12.68 2.307V3.557c1.242-.523 5.953-2.307 12.68-2.405V20.3zm1.145-18.474V0h-.572c-7.573 0-12.68 2.048-13.828 2.552C17.34 2.048 12.232 0 4.66 0h-.574v1.826H2.3V22.65L17.32 24h2.355l15.02-1.349V1.826h-1.812z"/>
        <path d="M5.232 1.152V1.09l-.063-.001v.063h.063zm12.68 2.405h.062v-.042l-.038-.016-.024.058zm0 19.05-.023.058.085.034v-.092h-.062zM5.232 20.3h-.063v.062h.062V20.3zm26.507 0v.063l.062-.001V20.3h-.062zm-12.68 2.307h-.063v.092l.086-.034-.023-.058zm0-19.05-.025-.058-.038.016v.042h.063zm12.68-2.405h.062V1.09l-.063.001v.062zm1.145.674h-.063v.062h.063v-.062zm0-1.826h.062v-.063h-.062V0zm-14.4 2.552-.025.057.025.012.025-.012-.025-.057zM4.084 0v-.063h-.062V0h.063zm0 1.826v.062h.063v-.062h-.062zm-1.783 0v-.063h-.063v.063h.063zm0 20.825h-.063v.057l.057.005.006-.062zM17.32 24l-.006.063h.005V24zm2.355 0v.063h.006L19.676 24zm15.02-1.349.005.062.057-.005v-.057h-.062zm0-20.825h.062v-.063h-.062v.063zM5.23 1.215c6.716.097 11.419 1.878 12.657 2.4l.048-.116C16.69 2.974 11.97 1.187 5.232 1.09l-.001.125zm12.618 2.342v19.05h.125V3.557h-.125zm.086 18.992c-1.785-.705-6.334-2.223-12.703-2.311l-.001.125c6.349.087 10.884 1.6 12.658 2.302l.046-.116zM5.295 20.3V1.152h-.126V20.3h.125zm26.443-.062c-6.368.088-10.918 1.606-12.702 2.311l.046.116c1.774-.701 6.309-2.215 12.658-2.302l-.002-.125zm-12.617 2.37V3.556h-.125v19.05h.125zm-.038-18.994c1.238-.52 5.94-2.302 12.657-2.4l-.002-.124c-6.737.097-11.456 1.884-12.704 2.409l.049.115zm12.593-2.462V20.3h.125V1.152h-.125zm1.27.674V0h-.125v1.826h.125zm-.062-1.889h-.572v.126h.572v-.126zm-.572 0c-7.584 0-12.7 2.051-13.853 2.558l.05.114C19.652 2.107 24.75.063 32.313.063v-.126zM18.51 2.495C17.358 1.988 12.242-.063 4.658-.063v.126c7.562 0 12.66 2.044 13.8 2.546l.05-.114zM4.658-.063h-.574v.126h.574v-.126zM4.022 0v1.826h.125V0h-.125zm.063 1.763H2.3v.125h1.784v-.125zm-1.847.063V22.65h.125V1.826h-.125zm.057 20.887 15.02 1.35.011-.125-15.02-1.35-.01.125zm15.025 1.35h2.356v-.125h-2.355v.125zm2.362 0 15.02-1.35-.012-.124-15.02 1.349.012.124zm15.076-1.412V1.826h-.125V22.65h.125zm-.062-20.888h-1.812v.125h1.812v-.125z"/>
        <path fill-rule="evenodd" clip-rule="evenodd" d="M30.034 5.21c-4.05.225-7.236.998-9.272 1.644V8.07c1.93-.637 5.148-1.472 9.272-1.71V5.21zM30.034 9.665c-4.05.222-7.236.998-9.272 1.643v1.217c1.93-.636 5.148-1.471 9.272-1.71v-1.15zM30.034 14.28c-4.05.223-7.236.998-9.272 1.644v1.217c1.93-.637 5.148-1.472 9.272-1.71v-1.15zM6.936 6.361c4.123.239 7.342 1.074 9.271 1.71V6.854c-2.036-.645-5.222-1.418-9.271-1.643v1.15zM6.936 10.815c4.123.239 7.342 1.074 9.271 1.71v-1.217c-2.036-.645-5.222-1.418-9.271-1.643v1.15zM6.936 15.43c4.123.239 7.342 1.074 9.271 1.71v-1.216c-2.036-.646-5.222-1.419-9.271-1.643v1.15z" stroke="#3E4D68" stroke-width=".125"/>
    </g>
    <defs>
        <clipPath id="g5a2fzij8a">
            <path fill="#fff" transform="translate(.5)" d="M0 0h36v24H0z"/>
        </clipPath>
    </defs>
</svg>
