<svg width="40" height="41" viewBox="0 0 40 41" fill="none" xmlns="http://www.w3.org/2000/svg">
    <path d="m5.934 11.959-.29-.016v1.949l.259.014c4.993.29 8.89 1.3 11.221 2.07l.36.118v-2.061l-.191-.06c-2.498-.793-6.401-1.74-11.36-2.014zM5.934 17.383l-.29-.016v1.949l.259.015c4.993.288 8.89 1.3 11.221 2.069l.36.119v-2.062l-.191-.06c-2.498-.793-6.401-1.74-11.36-2.014zM5.934 23.004l-.29-.016v1.949l.259.015c4.993.288 8.89 1.3 11.221 2.069l.36.118v-2.061l-.191-.06c-2.498-.793-6.401-1.74-11.36-2.014zM34.323 13.89v-1.948l-.289.016c-4.958.275-8.861 1.221-11.36 2.013l-.19.061v2.062l.36-.119c2.332-.769 6.228-1.78 11.221-2.07l.258-.014zM34.323 19.316v-1.949l-.289.016c-4.958.272-8.861 1.221-11.36 2.013l-.19.06v2.063l.36-.12c2.332-.768 6.228-1.78 11.221-2.068l.258-.015zM34.323 24.937v-1.949l-.289.016c-4.958.272-8.861 1.221-11.36 2.013l-.19.06v2.062l.36-.118c2.332-.77 6.228-1.78 11.221-2.07l.258-.014z" fill="#000"/>
    <path fill-rule="evenodd" clip-rule="evenodd" d="M3.146 5.612h-.973v2.223H0v25.887l18.553 1.666h2.894L40 33.722V7.835h-2.206V5.612h-.97c-9.05 0-15.229 2.388-16.84 3.083C18.373 8 12.194 5.612 3.145 5.612zm.971 24.727V7.569c7.722.155 13.198 2.136 14.895 2.831v22.618c-2.379-.9-7.66-2.54-14.895-2.68zm16.84 2.68V10.4c1.696-.695 7.173-2.676 14.894-2.832v22.77c-7.235.14-12.516 1.78-14.895 2.68z" fill="#000"/>
</svg>
