<svg width="24" height="24" viewBox="0 0 24 24" fill="none" xmlns="http://www.w3.org/2000/svg">
    <g clip-path="url(#vhbc1ukmoa)">
        <path fill-rule="evenodd" clip-rule="evenodd" d="M11.981 4.207.161 8.189A.231.231 0 0 0 0 8.403v.014a.23.23 0 0 0 .146.208l2.84 1.16v2.406a.699.699 0 0 0-.292.188 1.62 1.62 0 0 0-.349.58c-.117.33-.127.697-.06 1.044.045.238.104.594.144 1.005.083.86.08 1.959-.317 2.71-.076.148.069.318.197.233.71-.472 1.71-1.497 1.71-3.52 0 0 .065-1.001-.156-1.708a.834.834 0 0 0-.305-.436v-2.268l.129.053.82.337 6.354 2.596a1.6 1.6 0 0 0 1.102.04l11.874-3.903a.23.23 0 0 0 .018-.434L13.103 4.246a1.594 1.594 0 0 0-1.122-.04zM5.58 17.39a.806.806 0 0 1-.33-.653v-4.363l5.44 2.337a1.61 1.61 0 0 0 1.16.043l6.8-2.348v4.33c0 .26-.123.503-.33.654-.96.694-3.842 2.604-6.37 2.478-2.528.126-5.411-1.784-6.37-2.478z" fill="#3E4D68"/>
    </g>
    <defs>
        <clipPath id="vhbc1ukmoa">
            <path fill="#fff" transform="translate(0 -.001)" d="M0 0h24v24H0z"/>
        </clipPath>
    </defs>
</svg>
