<svg width="20" height="20" viewBox="0 0 20 20" fill="none" xmlns="http://www.w3.org/2000/svg">
<path fill-rule="evenodd" clip-rule="evenodd" d="M6.94999 2.9978H20V3.9978H6.94999C6.71836 5.13892 5.70948 5.9978 4.5 5.9978C3.29052 5.9978 2.28164 5.13892 2.05001 3.9978H0V2.9978H2.05001C2.28164 1.85668 3.29052 0.997803 4.5 0.997803C5.70948 0.997803 6.71836 1.85668 6.94999 2.9978ZM20 9.9978H17.95C17.7184 8.85668 16.7095 7.9978 15.5 7.9978C14.2905 7.9978 13.2816 8.85668 13.05 9.9978H0V10.9978H13.05C13.2816 12.1389 14.2905 12.9978 15.5 12.9978C16.7095 12.9978 17.7184 12.1389 17.95 10.9978H20V9.9978ZM6.94999 16.9978H20V17.9978H6.94999C6.71836 19.1389 5.70948 19.9978 4.5 19.9978C3.29052 19.9978 2.28164 19.1389 2.05001 17.9978H0V16.9978H2.05001C2.28164 15.8567 3.29052 14.9978 4.5 14.9978C5.70948 14.9978 6.71836 15.8567 6.94999 16.9978Z" fill="#6575A1"/>
</svg>
