<svg width="24" height="25" viewBox="0 0 24 25" fill="none" xmlns="http://www.w3.org/2000/svg">
    <g clip-path="url(#lfogf3a10a)" fill="#2A3042">
        <path d="M18.887.028H5.263a1.72 1.72 0 0 0-1.718 1.718V22.31a1.72 1.72 0 0 0 1.718 1.718h13.624a1.72 1.72 0 0 0 1.718-1.718V1.746A1.72 1.72 0 0 0 18.887.028zm-.082 21.06H5.345V3.013h13.46v18.075z"/>
        <path d="M12.076 8.359c-2.03 0-3.762 1.642-3.762 3.491l.002 3.597h1.467v-3.53c0-1.19 1.05-2.144 2.293-2.144 1.267 0 2.291.927 2.293 2.145v3.527h1.465v-3.597c0-1.85-1.727-3.49-3.758-3.49z"/>
    </g>
    <defs>
        <clipPath id="lfogf3a10a">
            <path fill="#fff" transform="translate(0 .028)" d="M0 0h24v24H0z"/>
        </clipPath>
    </defs>
</svg>
