<svg width="24" height="25" viewBox="0 0 24 25" fill="none" xmlns="http://www.w3.org/2000/svg">
    <path fill-rule="evenodd" clip-rule="evenodd" d="M1.23 5.74 12.66 2.028l11.34 8.7v.282l-11.043 4.556L1.231 5.74zm10.796 10.467s-1.186 1.372.018 2.478c1.342-.524 11.738-4.638 11.738-4.638v.757l-11.945 4.783S1.1 10.304.411 9.547C-.333 8.06.115 7.033.348 6.5L.39 6.4l11.635 9.807zm11.06-4.011-10.21 4.135s-.7.7-.061 1.468c.413-.14 10.408-4.368 10.408-4.368l-.137-1.235zm-11.588 8.497 4.406-1.714c3.152-.257 5.227-.474 5.227-.474l.207 1.577-15.97 1.31s-.62-.675-.035-1.607c.182-.014.5-.043.942-.083h.001c.837-.077 2.114-.194 3.733-.324a208.79 208.79 0 0 1 1.49 1.315zm-6.544 1.362c-1.067-1.6-.463-2.904-.463-2.904l4.961-.454a5329.86 5329.86 0 0 0-6.735-5.813l.723 6.698s-.241 2.816 1.067 3.37c4.577-.379 17.45-1.31 17.45-1.31l-.069-.78S5.711 22.085 4.954 22.055zm16.813-4.067-4.462.3 4.139-1.72.323.925v.495z" fill="#3E4D68"/>
</svg>
