<svg xmlns="http://www.w3.org/2000/svg" xmlns:xlink="http://www.w3.org/1999/xlink" width="64" height="56" viewBox="0 0 64 56">
    <defs>
        <linearGradient id="0n3e9seosb" x1="50%" x2="50%" y1="0%" y2="100%">
            <stop offset="0%" stop-color="#FFF" stop-opacity=".5"/>
            <stop offset="100%" stop-opacity=".5"/>
        </linearGradient>
        <path id="qvz4dl8n3a" d="M9.84 2C6.06 2 3 5.109 3 8.939v44.06c0 .835.673 1.391 1.376 1.391.328 0 .661-.122.936-.39 3.24-3.17 8.84-8.66 9.87-9.704 1.462-1.484 2.294-2.035 3.62-2.035h35.355c3.78 0 6.843-3.107 6.843-6.941V8.934C61 5.106 57.941 2 54.166 2H9.84z"/>
    </defs>
    <g fill="none" fill-rule="evenodd">
        <g>
            <g>
                <g>
                    <g transform="translate(-148.000000, -2708.000000) translate(0.000000, 2676.000000) translate(148.000000, 32.000000)">
                        <use fill="#000" xlink:href="#qvz4dl8n3a"/>
                        <use fill="url(#0n3e9seosb)" style="mix-blend-mode:overlay" xlink:href="#qvz4dl8n3a"/>
                    </g>
                    <g fill="#FFF">
                        <path d="M7.265 21.73c-.226-.222-.489-.4-.79-.532-.305-.133-.63-.198-.983-.198-.352 0-.682.065-.99.198-.309.132-.573.31-.793.533-.22.22-.393.486-.52.796-.126.31-.189.637-.189.98 0 .354.063.684.189.99.127.304.3.567.52.788.22.222.484.397.792.522.309.13.639.193.99.193.354 0 .679-.063.983-.193.302-.125.565-.3.791-.522.226-.221.404-.484.537-.789.132-.305.198-.635.198-.989 0-.343-.066-.67-.198-.98-.133-.31-.31-.575-.537-.796M11.197 1.65C10.624 1.122 9.933.714 9.13.429 8.326.143 7.436 0 6.457 0 5.738 0 5.07.068 4.451.204 3.833.342 3.26.528 2.732.767c-.529.238-1.02.518-1.476.84C.8 1.928.383 2.266 0 2.624l1.096 1.839c.18.357.472.535.878.535.168 0 .358-.074.572-.223.212-.147.475-.317.784-.5.309-.183.685-.352 1.129-.5.445-.149.987-.224 1.628-.224.437 0 .845.067 1.222.197.377.131.7.319.97.563.269.245.481.537.632.876.152.339.228.722.228 1.15 0 .669-.132 1.243-.396 1.724-.265.482-.593.915-.987 1.304-.393.387-.814.744-1.265 1.072-.45.326-.856.666-1.223 1.017-.364.352-.657.738-.876 1.162-.22.421-.294.913-.227 1.472L4.45 17H7.3l.39-2.607c.055-.38.227-.724.514-1.026.286-.304.626-.615 1.018-.93.395-.315.812-.652 1.257-1.008.444-.359.852-.778 1.223-1.268.37-.489.68-1.063.928-1.724.245-.66.37-1.443.37-2.349 0-.928-.156-1.767-.471-2.517-.316-.749-.759-1.39-1.332-1.92" transform="translate(-148.000000, -2708.000000) translate(0.000000, 2676.000000) translate(148.000000, 32.000000) translate(27.000000, 9.000000)"/>
                    </g>
                </g>
            </g>
        </g>
    </g>
</svg>
