<svg width="24" height="24" viewBox="0 0 24 24" fill="none" xmlns="http://www.w3.org/2000/svg">
    <g clip-path="url(#ut4bubelka)">
        <path fill-rule="evenodd" clip-rule="evenodd" d="M5.392 1.953c0 .94.664 1.726 1.55 1.911a5.352 5.352 0 0 0-.294 1.752c0 1.553.66 2.952 1.716 3.931a5.345 5.345 0 0 0 3.643 1.428 5.338 5.338 0 0 0 3.615-1.403 5.346 5.346 0 0 0 1.744-3.956c0-.617-.105-1.21-.297-1.762a1.954 1.954 0 1 0-2.2-2.769 5.327 5.327 0 0 0-2.862-.827 5.33 5.33 0 0 0-2.899.85 1.955 1.955 0 0 0-3.716.845zm11.227-.893a.892.892 0 1 1 0 1.786h-.012l-.012-.001a5.384 5.384 0 0 0-.851-1.07.893.893 0 0 1 .875-.715zm-2.322 2.56a.67.67 0 1 1 0 1.34.67.67 0 0 1 0-1.34zm-4.58 0a.67.67 0 1 1 0 1.34.67.67 0 0 1 0-1.34zM7.346 1.06c.447 0 .817.329.883.756a5.42 5.42 0 0 0-.808 1.026.893.893 0 1 1-.075-1.781zm1.952 5.702c-.232.858.156 2.723 2.266 2.931 2.178.216 2.788-1.25 2.832-1.896.059-.878-.562-2.717-2.571-2.717-.871 0-2.179.388-2.527 1.682zm2.693-.981c-.57-.192-1.013.182-1.013.182a.613.613 0 0 0-.245.543c.034.549 1.041.882 1.702.554.661-.327.126-1.087-.444-1.28zm6.024 5.79-1.745-1.1-.212-.133a6.183 6.183 0 0 1-1.558.98c-.778.34-1.625.518-2.493.518a6.205 6.205 0 0 1-4.05-1.498l-.29.182-1.116.703c3.922.498 5.803 2.534 5.803 2.534 1.628-1.26 3.734-1.887 5.661-2.186zM2.12 13.621a11.744 11.744 0 0 1 1.783-.413 13.387 13.387 0 0 1 1.998-.152c.817 0 1.603.076 2.333.226.37.075.78.182 1.196.33.46.157.878.349 1.249.571.282.169.538.356.765.56-.2-.263-.45-.511-.746-.74a6.37 6.37 0 0 0-1.407-.805c-1.096-.465-2.428-.749-3.786-.836a14.31 14.31 0 0 0-.894-.028c-1.012 0-2.015.11-2.924.336-.018.006-.033.015-.04.027-.006.008-.006.017 0 .026l.473.897zm13.15-.423a6.37 6.37 0 0 0-1.407.805c-.297.229-.547.477-.747.74.227-.204.483-.391.766-.56.37-.222.788-.414 1.249-.573a9.053 9.053 0 0 1 1.196-.329 11.686 11.686 0 0 1 2.774-.218c.522.018 1.044.066 1.557.145a11.65 11.65 0 0 1 1.783.412l.474-.897a.029.029 0 0 0-.001-.026c-.007-.012-.022-.021-.041-.027a12.212 12.212 0 0 0-2.924-.336c-.298 0-.597.01-.893.028-1.36.087-2.69.37-3.787.836zm-6.064 1.317a6.214 6.214 0 0 1 1.471.709c.424.285.808.638 1.107 1.077.004.004.006.01.006.015v7.436c0 .02-.019.03-.035.036a.123.123 0 0 1-.036.005.097.097 0 0 1-.054-.015c-.745-.537-2.063-.783-3.353-.783-1.1 0-2.179.18-2.865.512a.1.1 0 0 1-.073.007c-.01-.003-.031-.01-.039-.026-.992-2.042-2.339-4.624-4.332-8.396-.008-.015 0-.033.021-.044.283-.14.587-.268.905-.383l.003-.001h.002l.103-.037.105-.034c1.005-.333 2.147-.527 3.292-.57.156-.005.312-.008.467-.008.773 0 1.538.07 2.254.218.327.067.685.159 1.051.282zm14.33.533a8.12 8.12 0 0 0-.907-.384h-.003l-.059-.021-.044-.016-.056-.019a12.062 12.062 0 0 0-3.341-.585c-.155-.005-.31-.008-.465-.008-.774 0-1.54.071-2.255.217a8.69 8.69 0 0 0-1.052.284 6.174 6.174 0 0 0-1.47.708 4.062 4.062 0 0 0-1.108 1.076.027.027 0 0 0-.005.017v7.435c0 .02.018.03.035.036a.1.1 0 0 0 .089-.01c.745-.536 2.063-.783 3.353-.783 1.1 0 2.178.18 2.865.512.013.007.03.01.045.01.01 0 .02 0 .029-.003.01-.003.03-.01.038-.027.992-2.041 2.34-4.624 4.332-8.394.009-.017 0-.034-.021-.045z" fill="#3E4D68"/>
    </g>
    <defs>
        <clipPath id="ut4bubelka">
            <path fill="#fff" transform="translate(0 -.001)" d="M0 0h24v24H0z"/>
        </clipPath>
    </defs>
</svg>
