<svg width="24" height="24" viewBox="0 0 24 24" fill="none" xmlns="http://www.w3.org/2000/svg">
    <g clip-path="url(#8pw4hbiika)">
        <path fill-rule="evenodd" clip-rule="evenodd" d="M7.547 21.614c-.038.185.245.648.408 1.111.68 1.93-2.98 1.27-3.794.595 1.022.515 4.241 1.112 3.122-.987-.242-.453-.483-.923-.22-1.211.7-.767 3.15.724 3.581.468.192-.115.228-.404.172-.643-.11-.47-.604-1.116-.219-1.42.348-.276 1.166.02 1.657.162 2.653.771 3.915 1.944 7.683.042-4.213 2.57-5.87 1.014-8.495.244-.41-.064-.216.29-.085.58.058.13.117.273.159.422.314 1.125-.6 1.516-1.51 1.263-1.079-.302-2.37-1.049-2.459-.625zM4.035 23.44c.33-.79.502-1.084 1.206-1.673 1.358-5.38 4.894-12.56 9.348-16.82a26.11 26.11 0 0 1 3.803-3.025c-1.915 1.256-7.697 6.535-10.899 15.316 1.984.81 4.757-1.957 4.936-2.713-.196.048-1.075.412-1.859.355 1.788-.128 3.277-1.98 4.29-3.52-.326.163-2.772 1.142-3.75 1.142 2.675-.777 3.915-1.419 5.328-3.859.104-.178 1.172-2.064 1.121-2.029-.302.21-3.398 1.436-3.4 1.3-.002-.074 2.91-1.578 3.314-1.885 1.102-.842 2.28-2.498 2.78-3.947-.09.13-.457.401-.933.603.576-.658 1.25-1.112 1.575-2.656-2.399-.25-5.955 1.082-7.306 3.187-.658 1.025-1.022 2.071-1.068 2.033-.028-.266 1.056-2.635 1.034-2.697-.301.317-1.781 2.068-2.12 3.263-.005-.399.008-.884.372-1.85-1.867 1.67-2.75 3.64-2.818 5.6-.03-.186.163-2.603.163-2.61-.651.263-1.939 3.82-2.038 4.365-.132.735-.176 1.482-.116 2.09-.22-.347-.206-1.997-.293-2.05-.295.305-1.79 3.61-.727 5.422-.668 1.692-1.56 3.296-2.228 4.988 0 .816.119 1.176.285 1.67z" fill="#3E4D68"/>
    </g>
    <defs>
        <clipPath id="8pw4hbiika">
            <path fill="#fff" transform="translate(0 -.001)" d="M0 0h24v24H0z"/>
        </clipPath>
    </defs>
</svg>
