<svg width="24" height="24" viewBox="0 0 24 24" fill="none" xmlns="http://www.w3.org/2000/svg">
    <path fill-rule="evenodd" clip-rule="evenodd" d="m18.313 7.407.309-1.181 3.53-2.04-.117 1.074-3.722 2.147zM24 7.387l-3.53 2.038-1.879-.492-1.217.703c.155.7.167 1.423.036 2.127-.72 3.953-6.227 7.33-7.108 8.049-.514-.42-2.604-1.742-4.393-3.556l-1.98 1.142 1.417.784L0 19.107l3.472-4.162-.029 1.617 1.782-1.03c-.99-1.134-1.794-2.417-2.041-3.769-.469-2.615 1-5.052 3.29-5.444 1.446-.247 2.853.384 3.83 1.542.974-1.158 2.381-1.782 3.829-1.542a3.9 3.9 0 0 1 2.705 1.94l-2.963 1.71a.244.244 0 0 0-.089.33.243.243 0 0 0 .33.09l8.61-4.958.482.836-.639.37 1.431.75zM7.088 7.92a.336.336 0 0 0-.39-.274 2.511 2.511 0 0 0-1.635 1.078 3.598 3.598 0 0 0-.615 2.056.339.339 0 1 0 .675 0 2.922 2.922 0 0 1 .494-1.667 1.85 1.85 0 0 1 1.195-.8.337.337 0 0 0 .276-.393z" fill="#3E4D68"/>
</svg>
