<svg width="24" height="24" viewBox="0 0 24 24" fill="none" xmlns="http://www.w3.org/2000/svg">
    <g clip-path="url(#kup1sybxga)" fill="#3E4D68">
        <path fill-rule="evenodd" clip-rule="evenodd" d="M22.204 23.885h-1.378a1.366 1.366 0 0 1-1.365-1.365V3.296c0-.04.012-.079.032-.113l1.84-2.975c.078-.126.285-.126.363 0l1.84 2.975c.02.034.032.073.032.113V22.52c0 .753-.612 1.365-1.364 1.365zm.937-20.31v17.083h-.82V3.575h.82zm-1.246 0v17.083h-.88V3.575h.88zm-2.006 17.083h.698V3.575h-.698v17.083z"/>
        <path d="M2.888 3.668h6.228V2.602H2.888v1.066z"/>
        <path fill-rule="evenodd" clip-rule="evenodd" d="M2.325 6.252a1.75 1.75 0 1 1 3.5 0 1.75 1.75 0 0 1-3.5 0zm1.75-.684a.684.684 0 1 0 0 1.369.684.684 0 0 0 0-1.369zM7.825 4.502a1.75 1.75 0 1 0 0 3.5 1.75 1.75 0 0 0 0-3.5zm-.684 1.75a.684.684 0 1 1 1.369 0 .684.684 0 0 1-1.369 0z"/>
        <path d="M11.575 4.502a1.75 1.75 0 1 0 0 3.5 1.75 1.75 0 0 0 0-3.5z"/>
        <path fill-rule="evenodd" clip-rule="evenodd" d="M13.575 6.252a1.75 1.75 0 1 1 3.5 0 1.75 1.75 0 0 1-3.5 0zm1.75-.684a.684.684 0 1 0 0 1.369.684.684 0 0 0 0-1.369z"/>
        <path d="M2.888 10.675h6.228V9.609H2.888v1.066z"/>
        <path fill-rule="evenodd" clip-rule="evenodd" d="M2.325 13.26a1.75 1.75 0 1 1 3.5 0 1.75 1.75 0 0 1-3.5 0zm1.75-.685a.684.684 0 1 0 0 1.369.684.684 0 0 0 0-1.369z"/>
        <path d="M6.075 13.26a1.75 1.75 0 1 1 3.5 0 1.75 1.75 0 0 1-3.5 0z"/>
        <path fill-rule="evenodd" clip-rule="evenodd" d="M11.575 11.51a1.75 1.75 0 1 0 0 3.5 1.75 1.75 0 0 0 0-3.5zm-.684 1.75a.684.684 0 1 1 1.368 0 .684.684 0 0 1-1.368 0zM13.575 13.26a1.75 1.75 0 1 1 3.5 0 1.75 1.75 0 0 1-3.5 0zm1.75-.685a.684.684 0 1 0 0 1.369.684.684 0 0 0 0-1.369z"/>
        <path d="M2.888 17.94h6.228v-1.066H2.888v1.066z"/>
        <path fill-rule="evenodd" clip-rule="evenodd" d="M2.325 20.524a1.75 1.75 0 1 1 3.5 0 1.75 1.75 0 0 1-3.5 0zm1.75-.684a.684.684 0 1 0 0 1.369.684.684 0 0 0 0-1.369zM7.825 18.775a1.75 1.75 0 1 0 0 3.5 1.75 1.75 0 0 0 0-3.5zm-.684 1.75a.684.684 0 1 1 1.369 0 .684.684 0 0 1-1.369 0zM9.825 20.524a1.75 1.75 0 1 1 3.5 0 1.75 1.75 0 0 1-3.5 0zm1.75-.684a.684.684 0 1 0 0 1.369.684.684 0 0 0 0-1.369z"/>
        <path fill-rule="evenodd" clip-rule="evenodd" d="M.432.249h18.276v19.1l-4.998 4.536H.432V.249zm1.066 1.066v21.504h11.748c.306-.448.643-1.325.498-4.112a.525.525 0 0 1 .69-.526c1.3.433 2.06.53 3.208.459V1.315H1.498zM16.73 19.706a7.837 7.837 0 0 1-1.907-.307c.022.871-.009 1.557-.078 2.108l1.985-1.8z"/>
    </g>
    <defs>
        <clipPath id="kup1sybxga">
            <path fill="#fff" transform="translate(0 -.001)" d="M0 0h24v24H0z"/>
        </clipPath>
    </defs>
</svg>
