<svg xmlns="http://www.w3.org/2000/svg" width="54" height="54" viewBox="0 0 54 54">
    <g fill="none" fill-rule="evenodd">
        <g fill="black">
            <g>
                <path d="M26.645 22.019c-.064.005-.112.062-.107.125.005.054.045.096.096.105.011.001.021.002.031.001l12.956-1.083c.062-.005.11-.061.106-.125-.006-.064-.062-.111-.127-.106l-12.955 1.083zm1.531 11.655c.01-.001.02-.004.029-.008l11.856-5.316c.057-.026.085-.095.059-.153-.028-.059-.097-.085-.155-.058L28.11 33.455c-.06.026-.084.094-.059.153.022.049.074.075.125.066zm23.623-17.342l-2.062.874c1.301 3.005 2.024 6.316 2.024 9.793 0 13.654-11.108 24.762-24.761 24.762-5.669 0-10.886-1.933-15.065-5.151l1.699-1.918-6.97-1.373 2.2 6.755 1.582-1.784C15.022 51.857 20.761 54 27 54c14.889 0 27-12.112 27-27.001 0-3.787-.787-7.393-2.201-10.667zm-11.838 3.351c-.005-.064-.061-.111-.125-.105l-12.957 1.083c-.063.004-.111.061-.105.125.004.053.044.095.096.104.009.002.02.002.029.001l12.957-1.082c.062-.007.11-.062.105-.126zm-.075 7.154c-.025-.058-.095-.085-.153-.057l-11.856 5.316c-.058.027-.085.094-.058.153.022.048.074.075.125.065.01-.001.019-.003.027-.007l11.858-5.316c.057-.027.084-.096.057-.154zm.07 11.28l-12.583 3.258c-.063.017-.1.08-.083.142.013.052.06.087.111.087.011 0 .021-.002.029-.004l12.584-3.261c.063-.014.099-.078.084-.14-.017-.062-.08-.099-.142-.082zm1.39-9.013l-.008.004-13.423 6.137s-1.049.589-1.307-.922c-.26-1.513-.327-1.913-.327-1.913s-.249-1.279.705-1.736c.941-.447 13.202-5.81 13.555-5.964l.016-.007s.257-.363-.191-.436c-.258-.042-3.398-.415-6.635-.797 3.48-.331 6.795-.644 6.851-.635.112.019.426-.374 0-.531l-.01.002-14.709 1.338s-1.187.208-.924-1.305l.33-1.911s.194-1.288 1.245-1.402c1.041-.112 14.5-1.111 14.78-1.132l.013-.001s.363-.258-.036-.475c-.475-.259-12.273-6.024-12.616-6.19-.146-.071-.257-.084-.302-.068l-10.31-.101s-2 .121-2.312.378c-.361.3-.703 2.563-.703 2.563s-.141 1.15.182 1.499c.265.286 6.563 5.819 8.861 7.836l-7.734 2.633s-1.846.779-2.053 1.124c-.243.403.191 2.65.191 2.65s.252 1.131.674 1.354c.107.057.951.405 2.141.89l-.262.042s-1.95.459-2.213.764c-.309.357-.258 2.645-.258 2.645s.059 1.157.437 1.448c.377.289 11.013 6.802 11.013 6.802s.348.116.871 0c.523-.114 14.251-3.865 14.367-3.865.115 0 .358-.441-.09-.523l-.009.003-14.268 3.807s-1.131.405-1.131-1.129v-1.939s-.031-1.304.988-1.594c1.016-.288 14.384-3.617 14.384-3.617s.313-.317-.117-.463c-.234-.08-3.013-.899-5.989-1.772 3.267-1.51 6.454-2.981 6.51-2.991.113-.019.278-.494-.177-.5zM27 2.24c5.435 0 10.45 1.781 14.538 4.761l-1.663 1.875 6.971 1.373-2.2-6.755-1.618 1.826C38.54 1.992 33.004 0 27 0 12.112 0 0 12.112 0 26.999c0 3.688.746 7.205 2.09 10.41l2.062-.874c-1.23-2.937-1.911-6.158-1.911-9.536C2.241 13.347 13.348 2.24 27 2.24zm12.956 34.498l-12.583 3.259c-.063.016-.1.079-.083.14.013.054.06.088.111.088.011 0 .021-.002.029-.005l12.584-3.259c.063-.015.099-.079.084-.14-.017-.063-.08-.099-.142-.083z" transform="translate(-153 -1309) translate(153 1309)"/>
            </g>
        </g>
    </g>
</svg>
