<svg width="24" height="24" viewBox="0 0 24 24" fill="none" xmlns="http://www.w3.org/2000/svg">
    <g clip-path="url(#jeggirrrxa)" fill="#3E4D68">
        <path fill-rule="evenodd" clip-rule="evenodd" d="m18.975 20.784 2.566 2.132a.613.613 0 0 1-.782.942L18.28 21.8H5.72l-2.478 2.06a.614.614 0 0 1-.862-.08.612.612 0 0 1 .08-.863l2.565-2.131a.617.617 0 0 1 .147-.123l1.456-1.21a2.58 2.58 0 0 1-2.21-2.55V2.772c0-1.083 2.164-2.001 5.167-2.328V.42c0-.233.189-.421.421-.421h3.989c.232 0 .42.188.42.421v.024c3.003.327 5.168 1.245 5.168 2.328v14.13c0 1.298-.96 2.37-2.21 2.55l1.456 1.211a.603.603 0 0 1 .146.12zm-2.027-4.947a1.125 1.125 0 1 0 0 2.25 1.125 1.125 0 0 0 0-2.25zm-8.44 3.646-1.315 1.092h9.614l-1.314-1.092H8.508zm-1.455-3.647a1.124 1.124 0 1 0 0 2.25 1.124 1.124 0 0 0 0-2.25zm.174-10.608c-.792 0-1.433.642-1.433 1.433v5.989c0 .791.641 1.433 1.433 1.433h9.545c.792 0 1.434-.642 1.434-1.434V6.661c0-.79-.642-1.433-1.434-1.433H7.227zm7.922-1.393H8.851V2.074h6.298v1.761z"/>
        <path d="M5.86 22.636h12.28a.612.612 0 1 1 0 1.225H5.86a.612.612 0 0 1 0-1.225z"/>
    </g>
    <defs>
        <clipPath id="jeggirrrxa">
            <path fill="#fff" transform="translate(0 -.001)" d="M0 0h24v24H0z"/>
        </clipPath>
    </defs>
</svg>
