<svg width="16" height="14" viewBox="0 0 16 14" fill="none" xmlns="http://www.w3.org/2000/svg">
<path fill-rule="evenodd" clip-rule="evenodd" d="M0.5 0.00219727C0.223858 0.00219727 0 0.226055 0 0.502197C0 0.77834 0.223858 1.0022 0.5 1.0022H15.5C15.7761 1.0022 16 0.77834 16 0.502197C16 0.226055 15.7761 0.00219727 15.5 0.00219727H0.5ZM0.5 4.0022C0.223858 4.0022 0 4.22605 0 4.5022C0 4.77834 0.223858 5.0022 0.5 5.0022H15.5C15.7761 5.0022 16 4.77834 16 4.5022C16 4.22605 15.7761 4.0022 15.5 4.0022H0.5ZM0 8.5022C0 8.22606 0.223858 8.0022 0.5 8.0022H15.5C15.7761 8.0022 16 8.22606 16 8.5022C16 8.77834 15.7761 9.0022 15.5 9.0022H0.5C0.223858 9.0022 0 8.77834 0 8.5022ZM0.5 12.0022C0.223858 12.0022 0 12.2261 0 12.5022C0 12.7783 0.223858 13.0022 0.5 13.0022H8.5C8.77614 13.0022 9 12.7783 9 12.5022C9 12.2261 8.77614 12.0022 8.5 12.0022H0.5Z" fill="#6575A1"/>
</svg>
