<svg width="24" height="24" viewBox="0 0 24 24" fill="none" xmlns="http://www.w3.org/2000/svg">
    <g clip-path="url(#ypu0cgz7za)">
        <path fill-rule="evenodd" clip-rule="evenodd" d="m12.545 20.393 11.25-3.015c.353.065.162.414.072.414-.048 0-3.002.804-5.882 1.588-2.653.722-5.243 1.427-5.44 1.47-.412.092-.688 0-.688 0s-8.381-5.152-8.68-5.381c-.297-.23-.343-1.145-.343-1.145s-2.427-.664-2.61-.71a1.48 1.48 0 0 0-.082-.018C.028 13.574 0 13.57 0 13.36c0-.28.292-.203.292-.203s10.123 2.656 11.016 2.885c.893.23.755-1.397.755-1.397 0-2.13-.755-2.084-.755-2.084l-7.3-1.927S.575 9.828.391 9.783a1.49 1.49 0 0 0-.08-.018c-.115-.022-.143-.028-.143-.237 0-.133.065-.185.134-.204L4.048 8.07v1.158l10.123 2.367s.755.142.755-1.393c0-1.225-.423-1.5-.593-1.562L4.17 6.3a1.493 1.493 0 0 0-.08-.018c-.116-.022-.143-.028-.143-.237 0-.125.057-.179.122-.2l8.857-2.739 9.398 1.78s.412.459.412 1.513c0 1.053-.412 1.42-.412 1.42l-1.901 1.007c.092.366.092 1.489.092 1.489 0 1.307-.622 1.46-.816 1.51l-.01.001c-.182.046-.113.123-.113.123s3.778 1.366 4.099 1.526c.32.16.091.367.091.367s-10.534 2.633-11.336 2.862c-.801.23-.778 1.26-.778 1.26V19.5c0 1.213.893.893.893.893zM22.81 15.23c.247 0 .462.173.523.42a.562.562 0 0 1-.39.68l-9.617 2.554a.547.547 0 0 1-.663-.396.564.564 0 0 1 .39-.686l9.62-2.554a.516.516 0 0 1 .137-.018zm-12.229-1.627-9.524-2.446a.514.514 0 0 0-.137-.016.543.543 0 0 0-.513.43c-.067.298.11.6.394.672l9.538 2.449c.041.009.083.014.123.013a.542.542 0 0 0 .513-.427.562.562 0 0 0-.394-.675zm-5.341-6.06 8.173 1.878c.289.066.473.365.41.666a.543.543 0 0 1-.515.44.53.53 0 0 1-.13-.015L5.012 8.636a.537.537 0 0 1-.339-.247.574.574 0 0 1-.07-.422.54.54 0 0 1 .638-.424z" fill="#3E4D68"/>
    </g>
    <defs>
        <clipPath id="ypu0cgz7za">
            <path fill="#fff" transform="translate(0 -.001)" d="M0 0h24v24H0z"/>
        </clipPath>
    </defs>
</svg>
