<svg width="24" height="24" viewBox="0 0 24 24" fill="none" xmlns="http://www.w3.org/2000/svg">
    <g clip-path="url(#k7t0hldtda)">
        <path fill-rule="evenodd" clip-rule="evenodd" d="M16.8 4.799c0 2.647-2.153 4.8-4.8 4.8a4.805 4.805 0 0 1-4.8-4.8c0-2.647 2.153-4.8 4.8-4.8s4.8 2.153 4.8 4.8zm-3 8.8v1.61a4.034 4.034 0 0 1-.06-.004h-.001a2.064 2.064 0 0 0-.14-.006c-.046 0-.092.003-.138.006l-.061.004V13.6h.4zm2.479 2.804 1.14-1.14-.283-.282-1.14 1.139c.1.09.194.183.283.283zm.921 2.396c0 .047-.003.093-.006.14l-.004.06h1.61v-.4h-1.61l.004.06c.003.047.006.093.006.14zm-5.996-2.68-1.14-1.139-.283.284 1.14 1.139c.09-.1.183-.194.283-.283zM8.4 18.6h1.61l-.004.06a2.067 2.067 0 0 0-.006.14c0 .047.003.093.006.14l.002.033.002.027H8.4v-.4zm2.521 2.596-1.14 1.14.283.282 1.14-1.139a3.59 3.59 0 0 1-.283-.283zM13.4 24v-1.61l.06.004c.047.003.093.006.14.006.047 0 .093-.003.139-.006l.06-.004v1.61h-.4zm2.596-2.52 1.14 1.139.282-.284-1.14-1.139c-.088.1-.182.194-.282.283zm2.331-4.855.153.37-1.486.616a3.558 3.558 0 0 0-.154-.37l1.487-.616zm-2.553-2.552-.37-.154-.615 1.487c.126.045.25.096.37.154l.615-1.487zm-4.35 0 .37-.153.617 1.486c-.127.045-.25.097-.37.154l-.616-1.487zm-2.552 2.553-.153.37 1.487.615c.045-.127.096-.25.154-.37l-1.488-.615zm0 4.349-.153-.37 1.487-.616c.044.127.096.25.154.37l-1.488.616zm2.553 2.553.37.153.616-1.487a3.565 3.565 0 0 1-.37-.154l-.616 1.488zm4.35 0-.37.153-.616-1.487a3.61 3.61 0 0 0 .37-.154l.615 1.488zm2.553-2.553.153-.37-1.487-.616c-.045.127-.097.25-.154.37l1.488.616zM13.6 11.199h-3.2c-4.19 0-7.6 3.409-7.6 7.6v4.8a.4.4 0 0 0 .8 0v-4.8c0-3.75 3.05-6.8 6.8-6.8h3.2c3.75 0 6.8 3.05 6.8 6.8v4.8a.4.4 0 0 0 .8 0v-4.8c0-4.191-3.41-7.6-7.6-7.6zm.342 6.174a.922.922 0 0 1 1.278-.224c.413.29.5.858.211 1.27L13.6 21.014l-1.83-2.595a.91.91 0 0 1 .21-1.27.922.922 0 0 1 1.278.224l.342.461.342-.461z" fill="#3E4D68"/>
    </g>
    <defs>
        <clipPath id="k7t0hldtda">
            <path fill="#fff" transform="translate(0 -.001)" d="M0 0h24v24H0z"/>
        </clipPath>
    </defs>
</svg>
