<svg width="24" height="24" viewBox="0 0 24 24" fill="none" xmlns="http://www.w3.org/2000/svg">
    <g clip-path="url(#3z2f88gp6a)">
        <path fill-rule="evenodd" clip-rule="evenodd" d="m12.138 2.579.005.013 9.387 3.333a.372.372 0 0 1 .214.505l-.112.244a.372.372 0 0 1-.462.195L12.12 3.657l-9.29 3.298a.372.372 0 0 1-.463-.195l-.112-.243a.372.372 0 0 1 .214-.506l9.63-3.419.005-.013.016.006.017-.006zm-4.334 4.24L12 6.807l4.196.012a.148.148 0 0 0 .05.008h2.129c.167 0 .207-.234.05-.29l-6.42-2.278-.005.015-.006-.015-6.419 2.278c-.157.056-.117.29.05.29h2.13a.152.152 0 0 0 .049-.008zM2.479 8.512H21.52c.173 0 .312-.14.312-.312v-.348a.312.312 0 0 0-.312-.312H2.48a.312.312 0 0 0-.312.312V8.2c0 .172.14.312.312.312zm18.95 10.691H2.57a.405.405 0 0 1-.405-.404v-.824c0-.224.182-.405.405-.405h18.858c.223 0 .405.181.405.405v.823a.405.405 0 0 1-.405.405zm2.17 2.216H.401A.402.402 0 0 1 0 21.017v-.81c0-.222.18-.402.402-.402h23.196c.222 0 .402.18.402.402v.81c0 .222-.18.402-.402.402zM14.19 9.174h-1.218c-.247 0-.447.2-.447.447v7.11c0 .248.2.448.447.448h1.218c.247 0 .447-.2.447-.447v-7.11c0-.248-.2-.448-.447-.448zm-4.38 0h1.218c.247 0 .447.2.447.447v7.11c0 .248-.2.448-.447.448H9.81a.447.447 0 0 1-.447-.447v-7.11c0-.248.2-.448.447-.448zm-1.944 0H6.648c-.247 0-.447.2-.447.447v7.11c0 .248.2.448.447.448h1.218c.247 0 .447-.2.447-.447v-7.11c0-.248-.2-.448-.447-.448zm-4.38 0h1.218c.247 0 .447.2.447.447v7.11c0 .248-.2.448-.447.448H3.486a.447.447 0 0 1-.447-.447v-7.11c0-.248.2-.448.447-.448zm13.866 0h-1.218c-.247 0-.447.2-.447.447v7.11c0 .248.2.448.447.448h1.218c.247 0 .447-.2.447-.447v-7.11c0-.248-.2-.448-.447-.448zm1.943 0h1.219c.247 0 .447.2.447.447v7.11c0 .248-.2.448-.447.448h-1.219a.447.447 0 0 1-.446-.447v-7.11c0-.248.2-.448.446-.448z" fill="#3E4D68"/>
    </g>
    <defs>
        <clipPath id="3z2f88gp6a">
            <path fill="#fff" transform="translate(0 -.001)" d="M0 0h24v24H0z"/>
        </clipPath>
    </defs>
</svg>
