<svg width="32" height="32" viewBox="0 0 32 32" fill="none" xmlns="http://www.w3.org/2000/svg">
<g id="Icon / Category / L / HumorBooks" clip-path="url(#clip0_306_12112)">
<g id="Union">
<path d="M20.9571 24.3078C20.9571 24.3078 21.2156 23.8818 21.2951 23.3408C21.3841 22.7358 21.3781 22.4393 21.3781 22.4393C26.6106 22.1543 29.3191 17.4112 30.0941 11.3077C30.3006 9.68272 30.2806 8.08971 30.0356 6.5587C27.9241 7.38271 25.1561 8.34971 22.0381 7.95471C18.9621 7.56421 16.1231 5.9347 14.0461 4.5142C13.4231 5.9392 13.0036 7.48121 12.7966 9.11171C12.7501 9.47921 12.7146 9.84822 12.6916 10.2107C12.6828 10.3482 12.6894 10.4438 12.6964 10.5431C12.702 10.624 12.7078 10.7073 12.7056 10.8177L10.9496 11.8857C10.9518 11.7743 10.9461 11.5006 10.9398 11.1973C10.9306 10.7601 10.9202 10.2613 10.9306 10.0992C10.9556 9.70022 10.9946 9.29271 11.0461 8.88921C11.3241 6.6962 11.9536 4.6427 12.9161 2.78519L13.3866 1.87769L14.2156 2.47569C16.1716 3.88619 19.1331 5.8072 22.2606 6.2037C25.1896 6.5747 27.8026 5.5437 29.9026 4.7142L31.3301 4.15619L31.5591 5.1522C32.0271 7.19121 32.1231 9.33721 31.8451 11.5302C30.9511 18.5697 27.6961 23.5723 20.9571 24.3078Z" fill="#3E4D68"/>
<path d="M25.2304 12.9751C25.0559 13.7321 24.3889 14.2251 23.7404 14.0756C23.0919 13.9261 22.7079 13.1911 22.8824 12.4336C23.0569 11.6766 23.7239 11.1841 24.3724 11.3336C25.0209 11.4831 25.4049 12.2181 25.2304 12.9751Z" fill="#3E4D68"/>
<path fill-rule="evenodd" clip-rule="evenodd" d="M19.3674 14.8223C19.2945 14.5768 19.216 14.3311 19.1318 14.0856C18.4328 12.0476 17.4208 10.2441 16.2128 8.75757C16.1007 8.87982 15.9863 9.00553 15.8694 9.13401C14.3117 10.8462 12.3077 13.0489 9.30173 14.0796C6.07022 15.1876 2.3467 14.7136 0.00369224 14.3156C-0.0378079 16.2311 0.269693 18.2761 0.968696 20.3141C3.34321 27.2391 9.33423 31.4587 14.3502 29.7386C18.5339 28.3039 20.7175 23.1898 19.9483 17.5137C21.262 17.7131 22.4689 18.1806 23.3751 18.723C24.1106 19.1473 24.6467 19.6211 24.854 19.8042C24.9158 19.8589 24.9484 19.8877 24.9482 19.8815C24.9401 19.8864 24.9305 19.8405 24.9124 19.7526C24.8496 19.4496 24.6836 18.6479 24.1161 17.713C23.4146 16.5315 22.0441 15.1285 20.0936 14.879C19.8475 14.8406 19.6051 14.8225 19.3674 14.8223ZM17.4758 20.1057C17.5534 20.7832 18.0793 25.3771 13.5712 26.9893C9.70816 28.3711 6.07418 24.9313 5.45853 24.3485C5.40029 24.2934 5.36907 24.2638 5.36721 24.2663C5.36637 24.265 5.39131 24.2729 5.43946 24.2882C6.02425 24.4736 10.0334 25.7453 12.8952 24.6758C16.2281 23.4301 17.3457 20.3586 17.4589 20.0473L17.4659 20.0282L17.468 20.0229C17.467 20.0286 17.4702 20.0571 17.4758 20.1057ZM11.7939 18.6913C12.1154 15.8808 15.235 15.4428 16.772 17.4598C15.035 18.8323 14.036 19.0308 11.7939 18.6913ZM4.67019 21.6893C4.53868 18.8633 7.5482 17.9328 9.3872 19.6783C7.8922 21.3108 6.93769 21.6663 4.67019 21.6893Z" fill="#3E4D68"/>
</g>
</g>
<defs>
<clipPath id="clip0_306_12112">
<rect width="32" height="32" fill="white"/>
</clipPath>
</defs>
</svg>
