<svg width="24" height="24" viewBox="0 0 24 24" fill="none" xmlns="http://www.w3.org/2000/svg">
    <g clip-path="url(#aqdcfuhj4a)">
        <path fill-rule="evenodd" clip-rule="evenodd" d="M14.114 14.264c.237.214.347.492.347.873 0 .366-.107.635-.339.847-.336.307-.877.456-1.383.522v-2.748c.492.06 1.038.2 1.375.506zM13.6 19.45a1.09 1.09 0 0 1-.43.235v-.014l-.43.065v-1.672c.412.087 1.032.315 1.032.913 0 .27-.092.395-.172.473zM15.22 9.11a.264.264 0 1 1 .001-.528.264.264 0 0 1 0 .528zm-3.96 7.395c-.504-.067-1.047-.215-1.38-.52-.234-.211-.342-.48-.342-.848 0-.38.11-.657.345-.871.338-.31.884-.45 1.377-.509v2.748zm0 3.231-.43-.065v.014a1.092 1.092 0 0 1-.43-.235c-.08-.078-.172-.202-.172-.473 0-.598.62-.827 1.032-.913v1.672zM8.779 8.581a.264.264 0 1 1-.001.53.264.264 0 0 1 .001-.53zm13.23-2.385C23.242 5.584 24 4.992 24 4.992s-1.085.204-3.8-1.425c-3.89-2.334-4.55-.847-6.04 1.086-.444.576-1 .964-1.42 1.2V4.789a1.81 1.81 0 1 0-1.478 0v1.064c-.421-.236-.978-.624-1.422-1.2C8.349 2.72 7.69 1.233 3.8 3.567 1.085 5.196 0 4.992 0 4.992s.76.592 1.99 1.204c.677-.213 2.01-.652 2.803-1.048l.282.566c-.62.31-1.52.635-2.23.872.352.146.73.288 1.13.413.638-.199 2.064-.66 2.895-1.077l.283.568c-.565.282-1.369.578-2.043.807 1.854.389 4.019.352 6.151-.793v5.624c-1.327-.37-2.809-1.085-2.809-1.774 0-.291.064-.493.193-.6.231-.196.692-.169.835-.144l.133-.727.139-.727c-.126-.023-1.24-.211-2.048.456-.333.275-.73.802-.73 1.742 0 1.23 1.078 2.06 2.205 2.59-.1.07-.196.142-.287.225-.544.494-.832 1.174-.832 1.968 0 .78.285 1.45.824 1.942.149.135.311.25.48.35-.363.37-.614.872-.614 1.548 0 .831.392 1.491 1.107 1.889-.503.442-.858 1.032-.858 1.805h1.479c0-.439.363-.757.783-.978v.978h1.478v-.978c.42.221.784.54.784.978h1.479c0-.773-.356-1.363-.859-1.805.715-.398 1.107-1.058 1.107-1.889 0-.676-.251-1.178-.614-1.547.17-.1.332-.216.48-.351.539-.492.823-1.163.823-1.942 0-.794-.287-1.474-.831-1.968a2.753 2.753 0 0 0-.287-.224c1.126-.532 2.205-1.361 2.205-2.591 0-.94-.398-1.467-.73-1.742-.808-.668-1.923-.479-2.047-.456l.271 1.454c.143-.025.603-.052.836.144.127.106.191.308.191.6 0 .69-1.482 1.404-2.808 1.774V6.504c2.132 1.145 4.297 1.182 6.152.793-.675-.229-1.478-.525-2.044-.807l.284-.568c.83.416 2.255.878 2.895 1.077.398-.125.776-.267 1.13-.413-.71-.237-1.612-.562-2.231-.872l.283-.566c.792.396 2.126.835 2.802 1.048z" fill="#3E4D68"/>
    </g>
    <defs>
        <clipPath id="aqdcfuhj4a">
            <path fill="#fff" transform="translate(0 -.001)" d="M0 0h24v24H0z"/>
        </clipPath>
    </defs>
</svg>
