<svg width="24" height="24" viewBox="0 0 24 24" fill="none" xmlns="http://www.w3.org/2000/svg">
    <path fill-rule="evenodd" clip-rule="evenodd" d="M14.348 9.866a3.51 3.51 0 0 1-2.498 1.038A3.539 3.539 0 0 1 8.319 7.36a3.535 3.535 0 0 1 3.53-3.543 3.535 3.535 0 0 1 3.532 3.543 3.533 3.533 0 0 1-1.034 2.506zm-5.149-.457c.09.114.182.226.284.328a3.33 3.33 0 0 0 1.53.873 2.473 2.473 0 0 1-.652-.761 3.874 3.874 0 0 1-.213-.44h-.949zm1.216-3.306-.257-.258c-.124.43-.197.912-.205 1.424h.058l.404-.404a.132.132 0 0 0 .037-.089v-.583a.128.128 0 0 0-.037-.09zm4.37-.061v-.297a4.491 4.491 0 0 0-.147-.247h-.228c.01.013.018.03.018.05v.197l-.031.032h-.053a.052.052 0 0 0-.052.052v.291c0 .025.01.048.026.064l.108.107a.093.093 0 0 1 .026.064v.196l-.016.038-.013.013h-.045l-.152-.151a.098.098 0 0 1-.026-.064v-.275a.044.044 0 0 0-.043-.044h-.044a.043.043 0 0 1-.042-.044v-.192a.09.09 0 0 0-.027-.064l-.13-.13a.09.09 0 0 1-.027-.064v-.075h-.263c.188.519.298 1.123.309 1.772h.853v-.056a.145.145 0 0 0-.04-.085l-.022-.024a.137.137 0 0 1-.041-.1v-.8c0-.04.015-.075.04-.102l.063-.062zm.319 2.1-.277-.277a.134.134 0 0 1-.04-.103v-.31h-.853a5.516 5.516 0 0 1-.307 1.77h1.01c.215-.323.374-.689.467-1.08zm-4.126.466a.153.153 0 0 0-.001.204l.41.41h.373v-.915h-.386a.235.235 0 0 0-.15.053l-.246.248zm2.017-3.837v-.036a.045.045 0 0 0-.042-.043h-.16a.157.157 0 0 1-.112-.046l-.325-.325H12.3l-.05.05a.15.15 0 0 1-.112.047h-.196v.894h1.334l-.037-.037a.095.095 0 0 1-.027-.064V5.17a.06.06 0 0 0-.058-.06h-.122a.09.09 0 0 1-.063-.026l-.142-.143a.09.09 0 0 1-.026-.063v-.026a.04.04 0 0 1 .04-.04h.113a.041.041 0 0 0 .041-.04zm.754 2.498a5.235 5.235 0 0 0-.32-1.77h-1.485v.791l.672.675a.232.232 0 0 1 .052.134v.17h1.08zM11.153 5.5l.605.606v-.607h-.605zm.79 5.212c.079-.007.158-.021.235-.045v-.11l-.203-.204c-.013-.016-.022-.035-.03-.053l-.003-.005v.417zm1.2-1.156c.03.025.067.038.105.037h.015c.03-.058.058-.12.086-.183h-1.41v.167l.043.043a.108.108 0 0 0 .154 0l.1-.101a.256.256 0 0 1 .158-.06h.543c.06 0 .12.02.168.06l.037.037zm-1.2-1.34v1.009h1.485a5.266 5.266 0 0 0 .32-1.77h-1.092a.23.23 0 0 1-.058.104l-.656.658zm1.595-2.934.014.032v.002h.33a.1.1 0 0 0-.022-.048l-.173-.174a.092.092 0 0 0-.064-.025h-.06a.09.09 0 0 1-.064-.027l-.12-.122h-.018c.057.1.11.208.159.321l.004.004v.004l.014.033zm-2.84-.583a2.94 2.94 0 0 0-.349.615h1.408V4.42h-.173a.156.156 0 0 1-.112-.046l-.037-.038a.157.157 0 0 0-.111-.046h-.129a.158.158 0 0 0-.11.046l-.325.327a.164.164 0 0 1-.061.036zm-.427 4.525h.654l-.895-.897c.056.321.136.624.241.897zm.9.244-.06-.06h-.762c.204.468.474.836.781 1.06.198.143.41.225.63.244V9.64l-.06-.06a.15.15 0 0 0-.094-.045h-.293a.234.234 0 0 1-.143-.068zm2.57.23c.032.027.072.04.111.04h.367c.102-.102.195-.214.282-.328h-.947a3.883 3.883 0 0 1-.08.183h.055a.256.256 0 0 1 .167.059l.045.046zm.576-4.6v.216h.183a3.583 3.583 0 0 0-.183-.216zm-3.924-.74V4.34a3.362 3.362 0 0 0-.909.644 3.302 3.302 0 0 0-.282.327h.947l.015-.034c.021-.05.042-.098.065-.145l-.045.045-.032.013h-.053l-.032-.032v-.02a.08.08 0 0 0-.025-.058l-.07-.072a.085.085 0 0 1-.026-.058V4.87a.08.08 0 0 1 .026-.06l.398-.4.023-.053zm-.317 1.141h-1.01a3.328 3.328 0 0 0-.557 1.771H9.77a5.56 5.56 0 0 1 .247-1.593v-.049l.02-.021.032-.089.007-.019zm.002 3.726a5.484 5.484 0 0 1-.309-1.77h-1.26a3.35 3.35 0 0 0 .555 1.77h1.014zm1.704 5.732s-1.35-2.72-4.764-3.197c-.026-.004-.087.006-.098.05-.005.01-.277.843-.572 1.748v.001c-.306.938-.636 1.95-.722 2.205-.017.05-.001.088.05.088.615 0 4.865.083 5.953 2.303l.153-3.198zm-.77 3.882-.006-.037c-.438-2.083-5.673-2.364-6.287-2.358-.05.002-.066-.037-.05-.087.099-.311.586-1.855.915-2.912a11.791 11.791 0 0 0-1.497-.097c-.112-.004-.168.05-.225.15-.01.02-.026.046-.044.078-.26.454-1.224 2.145-1.555 3.763-.022.077.03.13.081.118.497-.117 4.162-.64 7.637.878.348.152.694.324 1.034.52l-.002-.016zm-9.837-.45L2.8 14.036H2.06L0 19.317l11.072.046s-3.594-1.808-9.897-.976zm15.805-6.629c-3.414.477-4.763 3.197-4.763 3.197l.153 3.198c1.088-2.22 5.338-2.303 5.954-2.303.05 0 .066-.039.048-.088-.085-.254-.415-1.268-.72-2.204-.296-.906-.568-1.74-.574-1.75-.01-.044-.071-.054-.098-.05zm-3.993 7.079.007-.037c.438-2.083 5.672-2.364 6.287-2.358.05.002.066-.037.05-.087-.099-.311-.586-1.855-.915-2.912a11.79 11.79 0 0 1 1.497-.097c.112-.004.168.05.225.15.01.02.026.046.044.078.26.454 1.224 2.145 1.555 3.763.022.077-.03.13-.081.118-.497-.117-4.162-.64-7.637.878-.348.152-.694.324-1.034.52l.002-.016zm8.21-4.801 1.627 4.35c-6.302-.832-9.898.976-9.896.976L24 19.316l-2.06-5.28h-.742z" fill="#3E4D68"/>
</svg>
