<svg width="24" height="24" viewBox="0 0 24 24" fill="none" xmlns="http://www.w3.org/2000/svg">
    <path fill-rule="evenodd" clip-rule="evenodd" d="M10.958 13.194h-.844a.375.375 0 0 1-.228-.065.43.43 0 0 1-.132-.17l-.277-.818H7.694l-.277.818a.398.398 0 0 1-.129.164.354.354 0 0 1-.225.07h-.85l1.816-4.69h1.113l1.816 4.69zM9.229 11.4l-.434-1.285a5.675 5.675 0 0 1-.103-.286 9.478 9.478 0 0 1-.11-.36 5.07 5.07 0 0 1-.206.653L7.945 11.4h1.284z" fill="#3E4D68"/>
    <path d="M11.225 10.834h1.738v.805h-1.738v-.805zM17.065 9.06a.482.482 0 0 0 .028-.164v-.392h-3.508v.837h2.124l-2.208 3.154a.507.507 0 0 0-.096.28v.419h3.618v-.837h-2.234l2.202-3.145a.583.583 0 0 0 .074-.151z" fill="#3E4D68"/>
    <path fill-rule="evenodd" clip-rule="evenodd" d="M13.216 20.808h-2.432l-.835-.835H0V4.234h2.19V3.191h7.065a6.67 6.67 0 0 1 2.744.82 6.68 6.68 0 0 1 2.745-.82h7.064v1.043H24v15.74h-9.949l-.835.834zM3.026 4.024V17.52h5.746c1.131 0 2.242.289 3.227.838a6.63 6.63 0 0 1 3.228-.838h5.747V4.025H14.79a5.84 5.84 0 0 0-2.573.826l-.218.132-.216-.132a5.84 5.84 0 0 0-2.573-.826H3.026z" fill="#3E4D68"/>
</svg>
