<svg width="24" height="24" viewBox="0 0 24 24" fill="none" xmlns="http://www.w3.org/2000/svg">
    <g clip-path="url(#vspkwkjz0a)" fill="#3E4D68">
        <path d="M8.823 11.045A7.71 7.71 0 0 1 8.52 8.9c0-4.269 3.472-7.741 7.74-7.741C20.529 1.16 24 4.632 24 8.9c0 4.269-3.472 7.742-7.74 7.742-.3 0-.595-.02-.885-.053l.353-.413a7.248 7.248 0 0 0 4.017-.867c.62-.381 1.113-.838 1.598-1.287l.013-.011c-.02-.017-.12-.068-.24-.13-.204-.105-.468-.24-.501-.29-.159-.232-.08-.462-.005-.68.04-.118.08-.233.08-.342 0-.17-.19-.238-.363-.3-.138-.048-.264-.093-.274-.183-.056-.506.191-.652.435-.796.095-.055.188-.11.264-.186.27-.27-.267-.887-.614-.847-.35.037-1.333-.162-1.243-.916.068-.572-.4-.756-.807-.918-.248-.098-.474-.187-.543-.35-.266-.625.177-1.392.754-1.566.82-.246 1.625-.916 1.562-1.662-.07-.844-.452-1.606-1.08-2.058a6.526 6.526 0 0 0-2.093-.471c-.658.026-1.236.173-1.21.474.031.353.524.582.994.799.515.238 1.001.464.817.826-.068.132-.296.284-.545.45-.43.287-.922.616-.76.956.065.134.166.173.257.207.145.055.264.1.17.513-.071.308-.34.887-.755.925-.166.015-.321-.148-.517-.354-.306-.321-.711-.747-1.413-.77-.546-.017-1.314.854-.662 1.472.18.17.432.092.673.017.29-.09.563-.174.683.176.044.13.06.3.08.486.047.467.104 1.035.618 1.32.13.07.293.138.473.212.185.076.388.159.59.262-.59.12-1.316.346-2.173.677l-.721-.19c.062-.053.131-.101.202-.15.275-.192.565-.394.467-.832-.093-.415-.506-.537-1.018-.688-.486-.144-1.06-.313-1.531-.786-.297-.297-.929-1.284-.926-2.47l.014-.122c.055-.68.257-1.383.65-2.023a7.274 7.274 0 0 0-1.832 7.43l-.49-.088z"/>
        <path d="m8.675 22.683 7.26-9.243a.304.304 0 0 0-.211-.49L.344 11.5a.313.313 0 0 0-.262.521l2.827 2.904c.142.146.343.22.546.204l6.748-.576c.01-.001.013.013.004.016l-5.591 1.99a.196.196 0 0 0-.119.117L3.26 20.029a.347.347 0 0 0 .485.428l2.316-1.202 1.94 3.374c.14.254.495.282.674.054z"/>
    </g>
    <defs>
        <clipPath id="vspkwkjz0a">
            <path fill="#fff" transform="translate(0 -.001)" d="M0 0h24v24H0z"/>
        </clipPath>
    </defs>
</svg>
