<svg width="24" height="24" viewBox="0 0 24 24" fill="none" xmlns="http://www.w3.org/2000/svg">
    <g clip-path="url(#3w9lltt40a)">
        <path fill-rule="evenodd" clip-rule="evenodd" d="M20.538.009 2.772 2.294c-.686.087-1.284.74-1.363 1.489l-.401 3.814c-.041.396.076.762.323 1.004.224.22.53.318.863.276l3.472-.438c.364-.046.475.233.645 1.155v.003c.146.78.326 1.748 1.142 2.163a.246.246 0 0 0 .356-.194c.244-2.317 1.774-3.621 4.68-3.988l7.471-.987c.686-.086 1.285-.74 1.363-1.488l.401-3.814c.042-.397-.076-.763-.323-1.005a1.022 1.022 0 0 0-.863-.275zM5.798 3.722l-1.146.151-.465 3.942-.748.098.459-3.941-1.151.151.079-.68 3.054-.402-.083.681zm1.347 1.086.164-1.313 1.686-.212.083-.661-2.447.308-.57 4.619 2.45-.309.083-.661-1.695.213.167-1.348 1.326-.167.08-.635-1.327.166zm3.63-1.797-.138 1.316 1.323-.192-.067.637-1.323.192-.141 1.35 1.69-.244-.07.662-2.444.355.482-4.63 2.441-.353-.071.662-1.682.245zm5.522 3.063.338-4.642-.66.117-.214 2.956a5.61 5.61 0 0 0-.016.345l-1.74-2.82a.362.362 0 0 0-.047-.061.123.123 0 0 0-.048-.031.16.16 0 0 0-.059-.008.524.524 0 0 0-.082.01l-.392.069-.338 4.642.66-.117.214-3.026.003-.056.003-.08.003-.057.003-.095 1.732 2.824a.268.268 0 0 0 .11.09.258.258 0 0 0 .144.008l.386-.068zm3.474-4.188a.458.458 0 0 1-.076.107.183.183 0 0 1-.096.047.168.168 0 0 1-.12-.031 2.568 2.568 0 0 0-.148-.087.847.847 0 0 0-.202-.077.655.655 0 0 0-.278-.004.8.8 0 0 0-.276.098.694.694 0 0 0-.316.402.844.844 0 0 0-.033.265.366.366 0 0 0 .076.23.541.541 0 0 0 .182.138c.075.036.16.064.255.086.096.021.192.045.29.07.1.026.196.058.293.097a.793.793 0 0 1 .443.416c.05.105.076.236.081.396a1.969 1.969 0 0 1-.372 1.217c-.126.17-.282.316-.467.435a1.665 1.665 0 0 1-.987.257 1.373 1.373 0 0 1-.335-.065 1.273 1.273 0 0 1-.294-.14 1.1 1.1 0 0 1-.24-.206l.253-.435a.312.312 0 0 1 .079-.087.234.234 0 0 1 .097-.045c.03-.005.062 0 .092.016.03.017.064.037.1.061l.119.08c.042.03.09.056.144.078a.765.765 0 0 0 .418.038.776.776 0 0 0 .507-.29.892.892 0 0 0 .166-.589.413.413 0 0 0-.074-.246.48.48 0 0 0-.182-.14 1.162 1.162 0 0 0-.253-.08c-.094-.018-.19-.038-.288-.06a2.154 2.154 0 0 1-.288-.088.762.762 0 0 1-.442-.423 1.162 1.162 0 0 1-.08-.423 1.73 1.73 0 0 1 .352-1.106c.12-.159.266-.295.439-.407a1.54 1.54 0 0 1 .92-.245 1.16 1.16 0 0 1 .55.18.97.97 0 0 1 .205.179l-.214.381zm-1.383 16.706-1.735-4.582c-.14-.354-.283-.805-.429-1.35a8.97 8.97 0 0 1-.21.753c-.076.23-.146.431-.21.605l-1.736 4.574h4.32zm3.883 4.705h-1.586a.672.672 0 0 1-.438-.136.878.878 0 0 1-.254-.335l-1.052-2.77h-5.434l-1.051 2.77a.835.835 0 0 1-.246.322.654.654 0 0 1-.438.149h-1.586L15.19 10.75h2.077l5.004 12.546zM8.773 18.383v4.913H6.73v-4.913l-4.61-7.631h1.797c.18 0 .324.043.429.13.105.087.193.198.263.33l2.585 4.496c.117.227.224.442.32.645.097.204.183.404.258.601.065-.203.144-.405.237-.605.094-.2.199-.414.316-.64l2.567-4.496c.059-.116.144-.222.254-.318a.632.632 0 0 1 .43-.143h1.805l-4.61 7.63z" fill="#3E4D68"/>
    </g>
    <defs>
        <clipPath id="3w9lltt40a">
            <path fill="#fff" transform="translate(0 -.001)" d="M0 0h24v24H0z"/>
        </clipPath>
    </defs>
</svg>
