<svg width="24" height="24" viewBox="0 0 24 24" fill="none" xmlns="http://www.w3.org/2000/svg">
    <g clip-path="url(#alpslzy36a)">
        <path fill-rule="evenodd" clip-rule="evenodd" d="M6.345 3.981a.434.434 0 0 1-.308-.127L2.927.743a.436.436 0 0 1 .615-.617l3.111 3.111a.435.435 0 0 1-.308.744zM14.408 24c-.643 0-1.2-.186-1.625-.55-.64-.55-.906-1.458-.748-2.558.22-1.54-.938-2.08-1.199-2.18-.1.128-.171.217-.213.266-.434.503-.981.863-1.541 1.013-.19.051-.376.076-.555.076-.4 0-.764-.125-1.042-.365-.404-.348-.593-.908-.52-1.537.017-.15.048-.3.093-.449a7.352 7.352 0 0 0-4.96 2.846.434.434 0 0 1-.61.08.436.436 0 0 1-.081-.61A8.22 8.22 0 0 1 7.5 16.8c.074-.106.154-.21.24-.31.34-.395 2.968-3.04 7.81-7.86a.436.436 0 0 1 .71.145c.2.196.548.562.744.77a.436.436 0 0 1 .173.657c-2.853 3.862-4.793 6.47-5.797 7.796.762.383 1.755 1.338 1.516 3.015-.116.807.041 1.42.453 1.773.442.38 1.159.445 2.02.184a.435.435 0 1 1 .252.834c-.428.13-.835.194-1.214.194zm-6.246-6.338c.407.01.814.054 1.213.13a.437.437 0 0 0 .163-.856c-.308-.058-.62-.1-.934-.123.056-.073.115-.145.178-.216.67-.749 1.54-1.063 1.944-.702.404.362.188 1.261-.48 2.01-.67.748-1.54 1.062-1.944.701-.218-.194-.256-.545-.14-.944zM2.926 3.854a.433.433 0 0 0 .616 0l.84-.841a.435.435 0 1 0-.615-.616l-.841.84a.435.435 0 0 0 0 .617zM5.504 1.71a.435.435 0 0 1-.308-.744l.841-.84a.435.435 0 1 1 .616.616l-.84.84a.434.434 0 0 1-.309.128zm6.39 2.143a.434.434 0 0 0 .615 0 .435.435 0 0 0 0-.617L9.4.127a.436.436 0 0 0-.617.616l3.112 3.11zM9.09 3.98a.435.435 0 0 1-.308-.744l.841-.84a.436.436 0 0 1 .616.616l-.84.84a.434.434 0 0 1-.309.128zm1.963-2.398a.433.433 0 0 0 .616 0l.84-.84a.435.435 0 1 0-.615-.616l-.841.84a.435.435 0 0 0 0 .616zm-4.708 8.62a.434.434 0 0 1-.308-.127l-3.11-3.111a.436.436 0 0 1 .615-.616l3.111 3.11a.435.435 0 0 1-.308.744zm-3.419-.127a.434.434 0 0 0 .616 0l.84-.841a.435.435 0 1 0-.615-.616l-.841.84a.435.435 0 0 0 0 .617zm2.578-2.143a.435.435 0 0 1-.308-.744l.841-.84a.436.436 0 0 1 .616.616l-.84.84a.433.433 0 0 1-.309.128zm6.39 2.143a.433.433 0 0 0 .615 0 .435.435 0 0 0 0-.616L9.4 6.349a.436.436 0 0 0-.617.616l3.112 3.11zm-2.804.127a.435.435 0 0 1-.308-.744l.841-.84a.435.435 0 1 1 .616.616l-.84.841a.433.433 0 0 1-.309.127zm1.963-2.397a.433.433 0 0 0 .616 0l.84-.841a.436.436 0 0 0-.615-.616l-.841.84a.435.435 0 0 0 0 .617zm7.005-3.825a.434.434 0 0 1-.308-.127L14.64.743a.436.436 0 1 1 .616-.617l3.111 3.111a.436.436 0 0 1-.308.744zm-3.42-.127a.433.433 0 0 0 .617 0l.84-.841a.436.436 0 0 0-.615-.616l-.841.84a.436.436 0 0 0 0 .617zm2.58-2.143a.436.436 0 0 1-.308-.744l.84-.84a.436.436 0 0 1 .616.616l-.84.84a.434.434 0 0 1-.309.128zm1.539 8.365a.433.433 0 0 0 .615 0 .436.436 0 0 0 0-.616l-3.11-3.111a.436.436 0 0 0-.616.616l3.11 3.11zm.07-2.407a.435.435 0 0 1-.35-.694l.077-.103-.188.186a.435.435 0 0 1-.614-.617c2.353-2.339 4.19-4.16 4.19-4.16a.435.435 0 0 1 .657.568s-1.49 2.026-3.42 4.643a.435.435 0 0 1-.351.177z" fill="#3E4D68"/>
    </g>
    <defs>
        <clipPath id="alpslzy36a">
            <path fill="#fff" transform="translate(0 -.001)" d="M0 0h24v24H0z"/>
        </clipPath>
    </defs>
</svg>
