<svg width="24" height="24" viewBox="0 0 24 24" fill="none" xmlns="http://www.w3.org/2000/svg">
    <g clip-path="url(#j1krbnes7a)">
        <path fill-rule="evenodd" clip-rule="evenodd" d="M11.714-.001h-.01c-.164 0-.335.01-.512.03-1.354.144-2.21.854-2.67 1.744-.465.889-.576 1.94-.577 2.86 0 .67.063 1.288.104 1.698.022.211.038.368.037.448v.23c-.003.85-.054 2.124-1.263 3.105-.914.737-1.866.973-2.783.974-.444 0-.877-.057-1.287-.142-.208-.044-.395-.086-.564-.124-.42-.095-.73-.166-1.002-.169a.821.821 0 0 0-.43.104.725.725 0 0 0-.288.349.695.695 0 0 0-.06.28c.009.36.254.615.57.836.323.223.763.428 1.304.633.34.127.696.231 1.04.331.291.085.573.167.829.259.563.198.959.442 1.092.764.4.916 1.516 3.015 3.822 4.312 1.14.64 2.327.94 3.279 1.18l.037.01c.478.12.896.226 1.206.346.313.117.5.252.56.365a.391.391 0 0 1 .066.188c-.002.047-.014.084-.087.158-.108.108-.342.233-.61.363l-.048.024c-.255.127-.536.267-.78.462-.276.222-.445.536-.445.87 0 .314.152.626.427.862.276.238.671.413 1.19.5l.878.15-.645-.616s-.023-.022-.064-.067c-.13-.128-.363-.47-.347-.624l.002-.01v-.01c.008-.064.012-.098.175-.185.19-.089.464-.164.776-.25.286-.078.604-.165.916-.28.651-.237 1.326-.624 1.631-1.39.131-.33.19-.627.189-.894a1.606 1.606 0 0 0-.377-1.049 2.54 2.54 0 0 0-.594-.499l-.005-.003a2.381 2.381 0 0 1-.462-.39c-.158-.175-.261-.372-.258-.535.002-.168.083-.384.513-.661.385-.244.712-.41 1.01-.559.212-.107.41-.207.602-.322.462-.275.868-.656 1.256-1.38.298-.55.38-1.01.443-1.367.021-.126.041-.238.068-.338.05-.195.112-.343.25-.502.138-.158.366-.33.755-.519 1.654-.81 2.484-1.419 2.826-2.025.098-.184.188-.393.19-.627a.563.563 0 0 0-.163-.415.658.658 0 0 0-.468-.164h-.003c-.306.003-.688.116-1.251.373-.678.313-1.563.505-2.422.505h-.012c-1.206 0-2.325-.379-2.837-1.199-.803-1.262-.96-2.773-1.085-3.973-.026-.254-.05-.494-.08-.715-.103-.746-.411-1.562-.99-2.207-.576-.644-1.435-1.103-2.564-1.103zm-1.65 3.57c0-.36.219-.651.489-.651s.488.291.488.651c0 .36-.219.652-.488.652-.27 0-.49-.292-.49-.652zm1.818 4.599c.615 0 1.114-.628 1.114-1.401 0-.774-.499-1.401-1.114-1.401-.615 0-1.114.627-1.114 1.4 0 .774.499 1.402 1.114 1.402zm.883-5.25c-.27 0-.49.291-.49.651 0 .36.22.652.49.652s.488-.292.488-.652c0-.36-.219-.651-.489-.651z" fill="#3E4D68"/>
    </g>
    <defs>
        <clipPath id="j1krbnes7a">
            <path fill="#fff" transform="translate(0 -.001)" d="M0 0h24v24H0z"/>
        </clipPath>
    </defs>
</svg>
