<svg width="24" height="24" viewBox="0 0 24 24" fill="none" xmlns="http://www.w3.org/2000/svg">
    <g clip-path="url(#spgugdya1a)" fill="#3E4D68">
        <path fill-rule="evenodd" clip-rule="evenodd" d="M9.303-.001c-.912 0-1.654.742-1.654 1.654 0 .912.742 1.654 1.654 1.654.912 0 1.653-.742 1.653-1.654 0-.912-.741-1.654-1.653-1.654zm0 2.397a.744.744 0 0 1 0-1.486.744.744 0 0 1 0 1.486zM11.67 7.535c.912 0 1.654-.742 1.654-1.654 0-.912-.742-1.654-1.653-1.654-.912 0-1.654.742-1.654 1.654 0 .912.742 1.654 1.654 1.654zm0-2.397a.744.744 0 0 1 0 1.486.744.744 0 0 1 0-1.486z"/>
        <path d="M3.913 22.246c-.236-.354-.075-1.031-.075-1.031l4.384-5.996.386-.28s3.2 7.251 3.255 7.36c-.043-.037-2.213-.038-4.326-.039-1.492 0-2.955 0-3.624-.014z"/>
        <path fill-rule="evenodd" clip-rule="evenodd" d="m11.91 14.33.834 1.242-.21-.416c-.18-.716-.198-1.625.258-2.653.997-2.25 2.89-3.035 3.91-3.301-.052.416-.033.987.184 1.722.423 1.426.364 2.449-.205 3.528-.742 1.404-1.861 1.922-2.655 2.112.642-.954 1.565-2.564 1.674-4.066a.458.458 0 1 0-.913-.066c-.1 1.366-1.037 2.919-1.622 3.767l.925 1.38c.996-.28 2.747-.658 4.064-.314a.458.458 0 1 0 .231-.885c-.595-.156-1.252-.188-1.896-.152a5.312 5.312 0 0 0 1-1.35c.013-.023.025-.046.036-.07l.022-.044c.91-.002 1.737.31 2.71 1 .626.442 1.161.644 1.571.73-.58.879-1.933 2.417-4.384 2.637-1.272.114-2.203-.302-2.835-.779l1.683 2.509c.092.139.142.3.142.467v.632c0 1.124-.915 2.04-2.04 2.04H4.211a2.042 2.042 0 0 1-2.04-2.04v-.632c0-.167.05-.329.143-.468l4.38-6.53a.576.576 0 0 0 .099-.323V9.6h-.72a.456.456 0 1 1 0-.911h6.459a.456.456 0 0 1 0 .911h-.72v4.407c0 .115.034.227.098.322zm3.612 7.406h-1.517a.304.304 0 0 1 0-.607h1.37l-.95-1.415h-1.634a.304.304 0 1 1 0-.607h1.227l-.949-1.414h-1.627a.304.304 0 1 1 0-.608h1.22l-.95-1.414h-1.631a.304.304 0 1 1 0-.607h1.225l-.152-.227a1.487 1.487 0 0 1-.253-.83v-.358H9.382a.304.304 0 0 1 0-.607h1.519v-1.415H9.382a.303.303 0 1 1 0-.607h1.519V9.6H7.704v4.407c0 .296-.087.583-.253.83L3.083 21.35v.61a1.13 1.13 0 0 0 1.128 1.128h10.183a1.13 1.13 0 0 0 1.128-1.128v-.224zM6.935 7.535A1.656 1.656 0 0 1 5.28 5.88c0-.912.742-1.654 1.654-1.654.912 0 1.654.742 1.654 1.654 0 .912-.742 1.654-1.654 1.654zm0-.911a.744.744 0 1 0-.002-1.488.744.744 0 0 0 .002 1.488z"/>
    </g>
    <defs>
        <clipPath id="spgugdya1a">
            <path fill="#fff" transform="translate(0 -.001)" d="M0 0h24v24H0z"/>
        </clipPath>
    </defs>
</svg>
