<svg width="24" height="24" viewBox="0 0 24 24" fill="none" xmlns="http://www.w3.org/2000/svg">
    <g clip-path="url(#6osxhhrqza)">
        <path fill-rule="evenodd" clip-rule="evenodd" d="M23.835 7.949a8.505 8.505 0 0 0-6.69-6.713 8.828 8.828 0 0 0-3.105-.045A8.82 8.82 0 0 0 2.678 9.636v.248l-2.618 4.5a.502.502 0 0 0 .184.685.495.495 0 0 0 .251.065h1.44v2.79a2.745 2.745 0 0 0 2.738 2.768h3.052v2.46H8.73v-2.708h3.18v2.738h9.66v-7.5a8.529 8.529 0 0 0 2.265-7.733zM6.862 9.636v.315l-2.64 4.59a.255.255 0 0 0 .218.375h1.68v3.038c.003.65.258 1.274.712 1.74h-2.16a1.74 1.74 0 0 1-1.74-1.74v-3.285a.502.502 0 0 0-.502-.503H1.365l2.25-3.907a.555.555 0 0 0 .067-.27v-.353a7.822 7.822 0 0 1 7.816-7.822h.412a8.535 8.535 0 0 0-5.048 7.823zm13.05 2.588a2.317 2.317 0 0 1-2.294-2.04h-.158c-.085.007-.17.007-.255 0a1.688 1.688 0 0 1-1.125-.675.345.345 0 0 1 .075-.488.36.36 0 0 1 .495.068 1.005 1.005 0 0 0 1.8-.75.351.351 0 0 1 .425-.441.352.352 0 0 1 .265.321 1.688 1.688 0 0 1-.84 1.793 1.62 1.62 0 1 0 2.655-1.313 2.248 2.248 0 0 1-.157.3.353.353 0 0 1-.3.165.315.315 0 0 1-.18-.053.345.345 0 0 1-.113-.48c.196-.326.3-.699.3-1.08a2.025 2.025 0 0 0-2.025-2.025 2.145 2.145 0 0 0-.315 0h-.278l-.052-.06-.03-.15a2.385 2.385 0 0 0-4.582.945v.3a.344.344 0 0 1-.308.39.36.36 0 0 1-.352-.315 3.17 3.17 0 0 1 0-.382v-.098a2.033 2.033 0 0 0 0 4.058 1.89 1.89 0 0 1 1.845-1.5.353.353 0 0 1 0 .705 1.185 1.185 0 1 0 0 2.37h1.005a1.942 1.942 0 0 1 1.95 1.943v1.335a.351.351 0 0 1-.35.403.352.352 0 0 1-.348-.404V13.71a1.252 1.252 0 0 0-1.252-1.245h-1.028a1.875 1.875 0 0 1-1.845-1.553 2.739 2.739 0 1 1 0-5.467h.09a3.075 3.075 0 0 1 5.693-.66h.165a2.715 2.715 0 0 1 2.692 3.165 2.325 2.325 0 0 1-1.26 4.275h-.008zm-4.027-5.685a1.013 1.013 0 0 0-.982.42.345.345 0 0 1-.488.09.353.353 0 0 1-.09-.488 1.71 1.71 0 0 1 3.105 1.23.36.36 0 0 1-.352.3h-.053a.352.352 0 0 1-.292-.397.99.99 0 0 0-.188-.75.975.975 0 0 0-.66-.405z" fill="#3E4D68"/>
    </g>
    <defs>
        <clipPath id="6osxhhrqza">
            <path fill="#fff" transform="translate(0 -.001)" d="M0 0h24v24H0z"/>
        </clipPath>
    </defs>
</svg>
