<svg width="24" height="24" viewBox="0 0 24 24" fill="none" xmlns="http://www.w3.org/2000/svg">
    <g clip-path="url(#75vq8bndma)">
        <path fill-rule="evenodd" clip-rule="evenodd" d="M1.029 8.37a9.16 9.16 0 0 1 3.266-5.027 8.253 8.253 0 0 1 4.766-1.375 5.674 5.674 0 0 1 4.917 2.303c.117.146.223.3.317.461.35.029.697.086 1.038.172-.189-.46-.441-.89-.75-1.279A6.575 6.575 0 0 0 9.165.998a9.05 9.05 0 0 0-5.295 1.54C1.751 4.238.692 5.812.259 8.116a10.275 10.275 0 0 0 .433 5.997c.144.378.302.75.467 1.1.33.487.698.947 1.1 1.375-.4-.747-.747-1.521-1.038-2.317a10.467 10.467 0 0 1-.192-5.9zm1.726.523a6.877 6.877 0 0 1 2.496-3.94 5.887 5.887 0 0 1 3.583-1.129 4.037 4.037 0 0 1 3.026 1.114c.288-.077.58-.137.874-.178a4.505 4.505 0 0 0-3.79-1.699 6.588 6.588 0 0 0-3.988 1.245 7.647 7.647 0 0 0-2.71 4.298 12.798 12.798 0 0 0 .296 6.148 11.444 11.444 0 0 0 2.125 3.803l.433.234a15.425 15.425 0 0 1-2.063-4.085c-.473-1.9-.57-3.874-.282-5.811zM6.792 8.5a4.897 4.897 0 0 0-1.087 2.49c-.13 1.119-.105 2.25.076 3.362.275 1.506 1.65 3.94 2.249 4.91a9.561 9.561 0 0 1-.392-.612 8.18 8.18 0 0 0-.32-.537c-.51-.82-1.425-2.287-1.744-3.706a9.71 9.71 0 0 1-.226-3.548 4.532 4.532 0 0 1 1.21-2.662c.425-.434.98-.72 1.582-.811a8.055 8.055 0 0 0-.358.488c-.38.118-.721.333-.99.626zM4.254 9.615a5.04 5.04 0 0 1 1.74-2.909 4.388 4.388 0 0 1 2.634-.825 3.92 3.92 0 0 1 1.004.11c.2-.144.406-.277.62-.4a3.734 3.734 0 0 0-1.541-.274 4.876 4.876 0 0 0-2.958.914 5.742 5.742 0 0 0-1.932 3.233 11.258 11.258 0 0 0 .31 4.992 16.259 16.259 0 0 0 2.523 4.574c.083.103.241.282.413.467h.11a24.306 24.306 0 0 1-2.655-5.137 10.928 10.928 0 0 1-.268-4.745zm15.852 7.4 3.713 4.614a.832.832 0 0 1-.15 1.183.839.839 0 0 1-1.184-.117l-3.63-4.504-.468-.578a6.781 6.781 0 0 1-4.127 1.375 6.529 6.529 0 0 1-.9-.068H13.2l.062.068-.399.2a2.564 2.564 0 0 1-.282-.399 6.532 6.532 0 0 1-1.375-.516c.122.47.335.911.626 1.3l-.379.096a4.017 4.017 0 0 1-.687-1.664 6.875 6.875 0 0 1-1.025-.77c.053.939.408 1.836 1.01 2.558h-.274a4.676 4.676 0 0 1-1.025-2.86c-.158-.152-.591-.64-.591-.689a6.65 6.65 0 0 1-1.3-3.3.529.529 0 0 1 0-.104c-.034-.206-.034-.42-.034-.632.001-.44.045-.877.13-1.307a6.685 6.685 0 0 1 .95-2.366.543.543 0 0 1 .054-.075c.11-.159.22-.317.344-.468a6.739 6.739 0 0 1 1.41-1.327 6.802 6.802 0 0 1 2.146-1.025c.273-.075.551-.133.832-.172.305-.04.613-.063.921-.069.193.001.386.013.578.035.336.028.67.08.997.158l.475.124a6.678 6.678 0 0 1 2.75 1.678c.373.359.699.763.97 1.203a6.788 6.788 0 0 1-.46 7.826l.48.592zm-10.474-2.82.062.186c.048.127.106.252.172.371a7.823 7.823 0 0 0 .509-2.063 5.73 5.73 0 0 0-.241-2.022c-.09-.249-.22-.482-.385-.688l-.062.117a5.926 5.926 0 0 0-.275.688c-.01.038-.024.076-.037.114a.808.808 0 0 0-.06.257l-.061.33a.687.687 0 0 1 .144.248c.068.223.096.455.083.688a2.545 2.545 0 0 1-.186.736c.006.03.016.06.026.09.014.042.029.085.029.13.068.28.162.555.282.818zm1.224 1.774.323.282c.147.1.298.191.454.275.582-1.506.95-3.088 1.094-4.697a8.254 8.254 0 0 0-.42-3.211 4.21 4.21 0 0 0-.488-.887 5.225 5.225 0 0 0-1.114.832 3.138 3.138 0 0 0-.184.207 4.51 4.51 0 0 0-.373.48c.139.215.252.446.337.688.256.806.36 1.652.31 2.496a9.626 9.626 0 0 1-.688 2.669 5.5 5.5 0 0 0 .598.729l.151.137zm1.843 1.094c.15.053.305.097.46.13l.254-.56c.76-1.668 1.814-3.989 1.844-5.478a7.132 7.132 0 0 0-.591-3.438 5.417 5.417 0 0 0-.392-.605l-.578.04a5.371 5.371 0 0 0-1.279.324l-.082.035c.117.184.22.377.31.577.46 1.063.648 2.223.55 3.377a17.703 17.703 0 0 1-1.245 5.268c.095.057.193.107.295.151.147.07.3.13.454.179zm5.275-1.307a.363.363 0 0 0 .069-.041l-.021.007a5.11 5.11 0 0 0-.722-7.627 5.26 5.26 0 0 0-.887-.523 5.615 5.615 0 0 0-.9-.314c-.126-.036-.253-.07-.38-.07a6.189 6.189 0 0 1 .757 3.52c-.032 1.831-1.168 4.32-2.003 6.148l-.197.434c.207.03.416.047.625.048.42-.004.838-.057 1.245-.158a5.199 5.199 0 0 0 2.249-1.224.572.572 0 0 1 .165-.2z" fill="#3E4D68"/>
    </g>
    <defs>
        <clipPath id="75vq8bndma">
            <path fill="#fff" transform="translate(0 -.001)" d="M0 0h24v24H0z"/>
        </clipPath>
    </defs>
</svg>
