<svg width="24" height="24" viewBox="0 0 24 24" fill="none" xmlns="http://www.w3.org/2000/svg">
    <g clip-path="url(#fcnuh6ba1a)">
        <path fill-rule="evenodd" clip-rule="evenodd" d="m4.442 5.09-.646 9.722h16.409l-.647-9.721H4.442zm-.639 10.77-1.138 1.179h18.67l-1.138-1.18H3.803zm6.373 1.528-.369.757h4.386l-.369-.757h-3.648zM3.349 4.434c.017-.233.193-.425.429-.425h16.444c.236 0 .413.192.429.425l.78 11.09L24 18.185v1.295c.008.355-.196.502-.543.509H.543c-.347-.007-.551-.154-.543-.509v-1.295l2.57-2.661.779-11.09zm7.176 8.327c.28.284.671.426 1.172.426.48 0 .92-.165 1.32-.494l-2.197-2.621c-.477.41-.716.923-.716 1.54 0 .482.14.866.421 1.15zm1.397-5.89a.881.881 0 0 0-.95-.07c-.3.168-.465.538-.425.912.067.627.428 1.089.863 1.54.513-.39.862-.86.873-1.512.006-.335-.083-.647-.361-.87zm3.48 6.452c.094 0 .197-.01.308-.031l.04.23a1.938 1.938 0 0 1-.922.237c-.531 0-.984-.234-1.357-.704a3.257 3.257 0 0 1-2.011.683c-.693 0-1.276-.175-1.75-.525-.473-.35-.71-.825-.71-1.423 0-.813.487-1.485 1.462-2.017-.366-.448-.6-.802-.703-1.061a2.151 2.151 0 0 1-.154-.799c0-.5.183-.901.55-1.202.366-.301.822-.452 1.366-.452.479 0 .882.128 1.209.384.326.255.45.636.45 1.084 0 .724-.476 1.309-1.505 1.81l2.15 2.452c.221-.41.332-.875.332-1.397 0-.213-.01-.387-.03-.52-.01-.066-.031-.113-.063-.142a.32.32 0 0 0-.144-.063l-.625-.131-.01-.236a28.286 28.286 0 0 0 1.636.015c.15-.003.291-.008.426-.015l.015.23-.63.164c-.068.017-.096.057-.086.12.02.179.03.344.03.494 0 .728-.171 1.355-.514 1.88.222.323.423.559.605.71.181.15.393.225.635.225z" fill="#3E4D68"/>
    </g>
    <defs>
        <clipPath id="fcnuh6ba1a">
            <path fill="#fff" transform="translate(0 -.001)" d="M0 0h24v24H0z"/>
        </clipPath>
    </defs>
</svg>
