<svg width="24" height="24" viewBox="0 0 24 24" fill="none" xmlns="http://www.w3.org/2000/svg">
    <g clip-path="url(#5ididltw9a)" fill-rule="evenodd" clip-rule="evenodd" fill="#3E4D68">
        <path d="M20.237 2.688c.89.017 1.6.657 1.586 1.428l-.006.094h.047c.915.018 1.644.675 1.629 1.467-.016.792-.77 1.419-1.686 1.4a1.809 1.809 0 0 1-1.064-.36c-.218.72-.862 1.235-1.611 1.22a1.586 1.586 0 0 1-.926-.323.996.996 0 0 0 .335-.714.995.995 0 0 0-.31-.73.59.59 0 0 0 .032-.102.63.63 0 0 1 .204-.35c.236-.215.404-.656.414-1.167.005-.26-.03-.502-.097-.708a.598.598 0 0 1 .126-.595c.3-.35.784-.571 1.327-.56zM15.127 1.528h.008a1.142 1.142 0 0 1-.011-.16c0-.737.691-1.335 1.544-1.335.853 0 1.544.598 1.544 1.336 0 .125-.02.245-.057.36.296.06.55.213.722.42-.46.032-.854.265-1.063.598a.304.304 0 0 1-.214.136.338.338 0 0 1-.258-.055 2.614 2.614 0 0 0-1.498-.458c-.6 0-1.149.192-1.568.508a.345.345 0 0 1-.341.04c-.116-.048-.183-.145-.178-.256.031-.63.633-1.142 1.37-1.134zM12.667.116c.592 0 1.119.24 1.457.615-.885.19-1.54.883-1.54 1.707 0 .08.005.158.017.235a.24.24 0 0 1-.075.214.325.325 0 0 1-.235.092h-.005a.314.314 0 0 1-.282-.153c-.343-.612-1.052-1.042-1.882-1.076.2-.13.443-.213.709-.226.11-.793.89-1.408 1.836-1.408zM7.379 4.25h.037l-.002-.067c0-.95.89-1.718 1.987-1.718.68 0 1.28.296 1.638.747-.544.468-.881 1.117-.881 1.834 0 .833.455 1.574 1.161 2.047.109.072.158.184.133.301-.025.117-.118.206-.25.24-.204.052-.42.08-.643.08-.938 0-1.741-.494-2.082-1.199-.279.246-.668.4-1.098.4-.85 0-1.54-.597-1.54-1.333 0-.735.69-1.332 1.54-1.332z"/>
        <path d="M13.075 3.49a2 2 0 0 1 1.025.275c.313-.47.898-.786 1.57-.786.999 0 1.809.701 1.809 1.566 0 .48-.248.908-.64 1.196.47.334.771.842.771 1.412 0 1.008-.945 1.826-2.11 1.826-1.167 0-2.112-.818-2.112-1.826 0-.2.037-.393.106-.574a2.086 2.086 0 0 1-.418.042c-1 0-1.81-.7-1.81-1.566 0-.864.81-1.565 1.81-1.565z"/>
        <path d="M8.92 8.22H7.434a.978.978 0 0 0-.7.27.722.722 0 0 0-.234.632l1.115 8.747c.843-.571 1.938-.487 2.53.228.031.037.06.075.087.113L9.035 9.75l2.088-.024.539 10.154c.191.11.365.255.513.432.4.483.522 1.114.391 1.723h7.495c.486 0 .888-.315.935-.733l1.382-12.19a.723.723 0 0 0-.24-.625.98.98 0 0 0-.695-.267h-.906a.109.109 0 0 0-.073.026c-.544.458-1.288.74-2.107.74-.191 0-.378-.015-.56-.045a.11.11 0 0 0-.102.035c-.464.535-1.157.98-1.952 1.085l-.505 9.887-1.19.005-.429-10.369a2.798 2.798 0 0 1-1.044-1.019.102.102 0 0 0-.082-.05.11.11 0 0 0-.092.034c-.373.402-.946.658-1.588.658-.78 0-1.46-.38-1.8-.94a.105.105 0 0 0-.093-.047zm9.187 1.133 2.088.025-1.443 10.57-1.187-.001.542-10.594z"/>
        <path d="M5.99 20.843c.247-.204.538-.32.832-.35a1.534 1.534 0 0 1 .543-1.419c.649-.538 1.6-.463 2.123.169.29.35.389.797.309 1.217.508-.01 1.011.2 1.356.615.61.737.493 1.843-.264 2.47-.757.63-1.866.541-2.477-.196a1.698 1.698 0 0 1-.279-.475c-.07.092-.152.178-.245.256-.65.538-1.6.463-2.124-.169-.524-.631-.422-1.58.226-2.118zM1.856 20.93l.032.001-.001-.059c0-.832.779-1.505 1.74-1.505.596 0 1.121.259 1.435.654-.477.41-.772.979-.772 1.607 0 .73.398 1.378 1.017 1.793.096.063.138.161.116.264-.022.102-.103.18-.218.21-.179.046-.368.07-.564.07-.821 0-1.525-.433-1.823-1.05-.244.215-.585.35-.962.35-.745 0-1.349-.523-1.349-1.167 0-.645.604-1.167 1.349-1.167zM5.85 16.865c.47-.007.89.142 1.162.379-.7.133-1.214.587-1.207 1.119a.86.86 0 0 0 .017.15c.01.052-.01.1-.057.14a.293.293 0 0 1-.186.062h-.004c-.098.002-.182-.034-.225-.095-.278-.391-.845-.66-1.504-.672.157-.087.35-.142.56-.154.08-.513.693-.918 1.444-.93z"/>
    </g>
    <defs>
        <clipPath id="5ididltw9a">
            <path fill="#fff" transform="translate(0 -.001)" d="M0 0h24v24H0z"/>
        </clipPath>
    </defs>
</svg>
