<svg width="24" height="24" viewBox="0 0 24 24" fill="none" xmlns="http://www.w3.org/2000/svg">
    <g clip-path="url(#r5b5kzhc2a)" fill="#3E4D68">
        <path d="M16.972 10.012a4.367 4.367 0 0 0-3.108-1.287 4.358 4.358 0 0 0-3.108 1.287 4.354 4.354 0 0 0-1.225 2.398l2.226 2.704s3.666-1.188 6.288-3.349a4.409 4.409 0 0 0-1.073-1.753z"/>
        <path d="M8.504 7.76a7.532 7.532 0 0 1 5.36-2.22c2.024 0 3.929.789 5.36 2.22.36.359.678.75.953 1.162 1.262-1.44 2.446-2.99 2.698-4.337.84-4.528-2.14-4.732-5.18-4.539-3.04.193-7.623 2.276-11.052 7.905l.934.934c.269-.4.58-.777.927-1.125zM6.3 12.647l-1.74-1.748s-1.338 1.32-2.489 2.35C.92 14.277-1.324 16.64 1.041 19.55c2.363 2.908 5.454-.182 5.454-.182l1.492-1.462a7.523 7.523 0 0 1-1.687-5.26z"/>
        <path d="m23.429 22.626-3.747-4.645-.48-.595a6.79 6.79 0 0 0 1.494-4.263 6.804 6.804 0 0 0-2-4.83 6.786 6.786 0 0 0-4.83-2c-1.824 0-3.54.71-4.83 2-.35.35-.654.73-.916 1.135a6.775 6.775 0 0 0-1.054 4.34 6.775 6.775 0 0 0 1.462 3.616 6.787 6.787 0 0 0 5.338 2.57c1.51-.001 2.943-.488 4.124-1.387l.472.584 3.657 4.535a.842.842 0 1 0 1.31-1.06zm-13.203-5.868A5.113 5.113 0 0 1 8.72 13.12c0-.495.072-.981.206-1.444a5.11 5.11 0 0 1 1.299-2.193 5.107 5.107 0 0 1 3.638-1.508c1.374 0 2.665.535 3.638 1.508a5.145 5.145 0 0 1 1.507 3.637 5.112 5.112 0 0 1-1.392 3.512c-.024.015-.048.028-.07.046a.791.791 0 0 0-.174.197 5.126 5.126 0 0 1-7.145-.117z"/>
    </g>
    <defs>
        <clipPath id="r5b5kzhc2a">
            <path fill="#fff" transform="translate(0 -.001)" d="M0 0h24v24H0z"/>
        </clipPath>
    </defs>
</svg>
