<svg width="24" height="24" viewBox="0 0 24 24" fill="none" xmlns="http://www.w3.org/2000/svg">
    <path d="M12.001 4.222c-1.125 1.272-6.65 8.24 0 15.554 6.65-7.314 1.125-14.282 0-15.554z" fill="#3E4D68"/>
    <path d="M5.214 5.728c-.452 1.543-2.295 9.331 5.17 13.4-1.16-1.559-1.908-3.205-2.232-4.907-.341-1.79-.213-3.642.38-5.5.076-.234.155-.462.24-.683a14.36 14.36 0 0 0-3.558-2.31zM15.47 8.721a12.727 12.727 0 0 0-.24-.683 14.38 14.38 0 0 1 3.56-2.31c.451 1.543 2.294 9.332-5.17 13.4 1.16-1.56 1.908-3.206 2.23-4.907.342-1.79.214-3.64-.38-5.5z" fill="#3E4D68"/>
    <path d="M20.048 11.049c.05-.439.077-.887.084-1.334a14.26 14.26 0 0 1 3.342-.605c-.146 1.539-1.268 9.222-9.148 10.579 1.66-.96 2.982-2.172 3.94-3.614.971-1.458 1.57-3.148 1.782-5.026zM9.683 19.692C1.69 18.34.655 10.68.526 9.109a14.33 14.33 0 0 1 3.345.607c.007.446.035.894.084 1.333.211 1.878.812 3.568 1.782 5.027.96 1.443 2.283 2.655 3.946 3.616z" fill="#3E4D68"/>
</svg>
