<svg width="24" height="24" viewBox="0 0 24 24" fill="none" xmlns="http://www.w3.org/2000/svg">
    <path d="M17.46 7.227s-2.339 1.18-5.54 1.18c-3.198 0-5.537-1.18-5.537-1.18-.039.007-3.47.756-6.383 2.55 0 0 2.842 3.143 11.92 3.143C20.998 12.92 24 9.778 24 9.778c-3.214-1.795-6.5-2.544-6.54-2.55z" fill="#3E4D68"/>
    <path d="M11.985 3.817s-3.692-.053-5.011 2.955c0 0 1.662 1.055 5.011 1.055 3.35 0 5.012-1.055 5.012-1.055-1.32-3.008-5.012-2.955-5.012-2.955zM8.793 6.21c-.096.266-.35.416-.564.34-.216-.079-.315-.358-.219-.622.095-.265.348-.417.564-.34.216.077.314.355.219.622zm1.367.869a.51.51 0 1 1 0-1.021.51.51 0 0 1 0 1.02zm1.825.21a.51.51 0 1 1 0-1.018.51.51 0 0 1 0 1.019zm1.826-.21a.51.51 0 1 1 0-1.021.51.51 0 0 1 0 1.02zm1.924-.53c-.216.077-.47-.075-.564-.34-.095-.264.003-.543.22-.621.214-.077.468.075.563.34.096.264-.003.543-.22.621zM12.041 13.498c-1.576-.008-3.638-.188-3.638-.188s1.018 1.29 3.638 1.29c2.621 0 3.64-1.29 3.64-1.29s-2.063.18-3.64.188zM2.22 18.176a.163.163 0 0 1-.12-.272l3.588-3.961a.162.162 0 0 1 .23-.011.162.162 0 0 1 .011.23l-3.588 3.96a.165.165 0 0 1-.121.054zM21.932 18.176a.16.16 0 0 1-.12-.053l-3.59-3.961a.163.163 0 0 1 .242-.22l3.588 3.962a.163.163 0 0 1-.12.272zM8.64 20.31a.164.164 0 0 1-.153-.22l1.39-3.758a.164.164 0 0 1 .307.113l-1.39 3.759a.165.165 0 0 1-.153.106zM15.51 20.31a.165.165 0 0 1-.152-.107l-1.39-3.759a.164.164 0 0 1 .308-.112l1.388 3.759a.164.164 0 0 1-.153.219z" fill="#3E4D68"/>
</svg>
