<svg width="24" height="24" viewBox="0 0 24 24" fill="none" xmlns="http://www.w3.org/2000/svg">
    <g clip-path="url(#xpn3gea4oa)" fill="#3E4D68">
        <path d="M16.735 3.027a1.517 1.517 0 1 1-3.034 0 1.517 1.517 0 0 1 3.034 0zM12.935 12.605c.157.102.268.297.305.532a1.257 1.257 0 0 1-.011.431l-.809 3.998c-.1.495-.47.844-.822.772l-.168-.034c-.351-.071-.558-.534-.457-1.031l.758-3.748-2.586-2.055-.283-.19c-.18-.12-.32-.28-.414-.455a.841.841 0 0 1-.137-.477.94.94 0 0 1 .156-.58l3.502-5.212c.317-.472 1.014-.566 1.549-.207l.987.664c.124.083.228.184.312.297.124.13.216.314.247.524l.45 3.097 1.817-.09c.319-.016.594.265.612.624l.008.17c.018.359-.228.665-.547.682l-2.565.127a.56.56 0 0 1-.472-.234.967.967 0 0 1-.233-.512l-.244-1.67-2.334 3.472 1.28 1.016c.035.028.067.058.099.089z"/>
        <path fill-rule="evenodd" clip-rule="evenodd" d="M4.956 12.576a4.956 4.956 0 1 0 0 9.913 4.956 4.956 0 0 0 0-9.913zm0 9.035c-2.25 0-4.08-1.83-4.08-4.079 0-2.25 1.83-4.079 4.08-4.079 2.249 0 4.079 1.83 4.079 4.08 0 2.248-1.83 4.078-4.08 4.078zM14.088 17.532a4.956 4.956 0 1 1 9.913 0 4.956 4.956 0 0 1-9.913 0zm.877 0c0 2.25 1.83 4.08 4.08 4.08 2.249 0 4.078-1.83 4.078-4.08s-1.83-4.079-4.079-4.079c-2.249 0-4.079 1.83-4.079 4.08z"/>
    </g>
    <defs>
        <clipPath id="xpn3gea4oa">
            <path fill="#fff" transform="translate(0 -.001)" d="M0 0h24v24H0z"/>
        </clipPath>
    </defs>
</svg>
