<svg width="24" height="24" viewBox="0 0 24 24" fill="none" xmlns="http://www.w3.org/2000/svg">
    <g clip-path="url(#9z107bwvca)">
        <path fill-rule="evenodd" clip-rule="evenodd" d="m18.816 15.264 1.495-3.951-.765-.21-1.128 4.053.398.108zm-.43-4.853 2.388.654-1.845 4.505-1.24-.34.697-4.82zm-1.82 11.542c1.535-1.187 3.049-2.915 2.045-5.353 0 0-.786-.237-.886-.265.174 1.933-.412 3.733-1.159 5.617zm-.635-1.815c-.15-1.652-.316-3.497 1.626-4.41.398.11 1.28.373 1.28.373 1.954 3.182-1.122 6.754-3.652 7.052.972-.507.865-1.7.746-3.015zm3.831-10.098c.398.135.797.27 1.215.384 1.83-4.578 1.768-6.016 1.61-9.662l-.034-.763c-2.35 3.672-3.221 5.157-4.005 9.658.418.114.816.249 1.214.383zM4.4 21.98c.562.573 1.345.86 2.349.86.964 0 1.846-.333 2.648-.999l-4.407-5.305c-.956.83-1.435 1.868-1.435 3.115 0 .978.282 1.754.845 2.329zm2.8-11.924c-.52-.42-1.322-.472-1.903-.142-.602.342-.933 1.09-.853 1.848.134 1.267.858 2.202 1.73 3.117 1.028-.79 1.728-1.74 1.75-3.06.01-.68-.168-1.31-.725-1.763zm6.977 13.06c.189 0 .394-.02.616-.063l.081.468a3.856 3.856 0 0 1-1.85.478c-1.064 0-1.97-.474-2.718-1.424-1.207.921-2.552 1.382-4.033 1.382-1.388 0-2.557-.355-3.507-1.064-.949-.708-1.424-1.669-1.424-2.88 0-1.645.977-3.005 2.931-4.082-.734-.908-1.204-1.624-1.41-2.148a4.391 4.391 0 0 1-.308-1.616c0-1.014.367-1.825 1.102-2.434.735-.61 1.648-.915 2.74-.915.96 0 1.767.259 2.422.777.654.517.905 1.287.905 2.194 0 1.467-.955 2.65-3.02 3.663l4.31 4.965c.444-.83.667-1.772.667-2.828 0-.432-.02-.783-.06-1.053-.021-.134-.063-.23-.127-.287a.639.639 0 0 0-.288-.127l-1.254-.266-.02-.479a56.252 56.252 0 0 0 2.315.043c.343 0 .665-.004.964-.01.3-.007.585-.018.855-.033l.03.468-1.263.33c-.135.035-.193.117-.172.244.04.362.06.695.06 1 0 1.474-.343 2.743-1.03 3.805.444.653.849 1.131 1.212 1.436.364.305.789.457 1.274.457z" fill="#3E4D68"/>
    </g>
    <defs>
        <clipPath id="9z107bwvca">
            <path fill="#fff" transform="translate(0 -.001)" d="M0 0h24v24H0z"/>
        </clipPath>
    </defs>
</svg>
