<svg width="40" height="40" viewBox="0 0 40 40" fill="none" xmlns="http://www.w3.org/2000/svg">
    <path fill-rule="evenodd" clip-rule="evenodd" d="M7.097 20.71v11.355H6.004C2.694 32.065 0 29.52 0 26.387c0-3.13 2.693-5.677 6.004-5.677h1.093zm26.899 0c3.31 0 6.004 2.547 6.004 5.677 0 3.132-2.694 5.678-6.004 5.678h-1.093V20.71h1.093zM20.004 7.935c6.969 0 11.474 5.585 11.474 11.89v12.24h-2.184a2.839 2.839 0 0 1-2.839-2.839v-9.163c-.01-4.155-2.103-7.31-6.45-7.31-4.264 0-6.445 3.246-6.445 7.3v9.173a2.839 2.839 0 0 1-2.839 2.84H8.523v-12.24c0-6.296 4.515-11.891 11.482-11.891z" fill="#000"/>
</svg>
