<svg xmlns="http://www.w3.org/2000/svg" width="54" height="54" viewBox="0 0 54 54">
    <g fill="none" fill-rule="evenodd">
        <g fill="black">
            <g>
                <path d="M27 51.76c-13.652 0-24.76-11.108-24.76-24.761 0-13.653 11.108-24.76 24.76-24.76 13.653 0 24.761 11.107 24.761 24.76C51.761 40.652 40.653 51.76 27 51.76M27 0C12.112 0 0 12.112 0 26.999 0 41.887 12.112 54 27 54c14.889 0 27-12.113 27-27.001C54 12.112 41.889 0 27 0m-6.625 28.385s3.577-2.641 8.51-2.123c3.135.33 5.53 2.32 6.408 3.691 0 0-5.567-3.288-14.918-1.568m-3.348 5.269c-.828 0-1.5-.672-1.5-1.5 0-.829.672-1.5 1.5-1.5s1.5.671 1.5 1.5c0 .828-.672 1.5-1.5 1.5m5.116-9.523s-4.375-2.66-6.135-1.127c0 0 .857 2.479 1.715 2.975 0 0-3.564 3.201-3.97 4.824-1.189-.024-2.165.932-2.165 2.12v1.665c0 1.154.923 2.095 2.077 2.12l.088.002s1.939 3.516 3.879 4.643v2.344c0 .897.727 1.624 1.624 1.624h2.797c.896 0 1.623-.727 1.623-1.624 0 0 3.338.812 6.179.091 0 .847.687 1.533 1.534 1.533h3.067c.847 0 1.534-.686 1.534-1.533v-2.164s4.15-2.705 4.736-6.763c0 0 1.565-.654 0-2.66-.38-2.425-5.433-11.378-18.583-8.07m5.539-9.025c-.78-.422-1.714-.386-2.432-.97-1.502-1.221-1.212-3.29.505-4.135.093-.046.708-.269.708-.354V9.43c0-.266.216-.484.485-.485.263-.001.476.216.488.478l.014.299c.005.118.725.287.851.348.303.148.581.367.813.61.449.469.803 1.2.234 1.725-.319.293-.737.196-.995-.121-.298-.367-.352-.767-.793-1.022-.337-.195-.776-.278-1.141-.112-.531.24-.726.839-.493 1.36.226.512.65.645 1.149.805.257.082.525.159.79.247.739.243 1.454.567 1.817 1.306.248.508.285 1.101.159 1.648-.417 1.822-2.391 1.973-2.391 1.973v.351c0 .271-.232.486-.506.462-.235-.02-.414-.221-.424-.457l-.019-.432c-1.776-.339-2.258-1.272-2.386-1.82-.068-.294.001-.608.202-.833.423-.473 1.124-.072 1.297.421.231.655.708.987 1.389 1.01 1.272.043 1.905-1.421.679-2.085M27 21.125c3.866 0 7-3.135 7-7 0-3.866-3.134-7-7-7-3.865 0-7 3.134-7 7 0 3.865 3.135 7 7 7" transform="translate(-153 -610) translate(153 610)"/>
            </g>
        </g>
    </g>
</svg>
