<svg xmlns="http://www.w3.org/2000/svg" width="54" height="54" viewBox="0 0 54 54">
    <g fill="none" fill-rule="evenodd">
        <g fill="black">
            <g>
                <path d="M27 51.76c-13.653 0-24.761-11.108-24.761-24.761 0-13.653 11.108-24.76 24.761-24.76 13.652 0 24.76 11.107 24.76 24.76C51.76 40.652 40.652 51.76 27 51.76zM27 0C12.111 0 0 12.112 0 26.999 0 41.887 12.111 54 27 54c14.888 0 27-12.113 27-27.001C54 12.112 41.888 0 27 0zm2.18 33.659h-5.6v-1.295h2.051v-5.901c0-.234.008-.474.021-.721l-1.455 1.218c-.086.065-.168.106-.25.123-.082.015-.158.017-.23.003-.072-.014-.137-.038-.194-.074-.054-.035-.097-.073-.125-.115l-.546-.749 3.087-2.625h1.42v8.841h1.821v1.295zm-9.886-18.657c0 .258.208.466.466.466h17.379v24.155h-1.293V16.896H18.709c-1.022 0-1.85-.828-1.85-1.849 0-1.022.828-1.85 1.85-1.85h17.137v-.931H18.643c-1.499 0-2.715 1.215-2.715 2.714v24.904c0 1.021.828 1.849 1.849 1.849h16.219c.784 0 1.45-.49 1.719-1.179h2.355V14.536H19.76c-.258 0-.466.209-.466.466z" transform="translate(-153 -859) translate(153 859)"/>
            </g>
        </g>
    </g>
</svg>
