<svg width="24" height="24" viewBox="0 0 24 24" fill="none" xmlns="http://www.w3.org/2000/svg">
    <g clip-path="url(#h0anso8gua)">
        <path fill-rule="evenodd" clip-rule="evenodd" d="M5.546 11.891a6.357 6.357 0 0 0 6.537 6.228c1.144-.034 1.556-.096 2.45-.625a41.166 41.166 0 0 1 1.552 2.012s-.82.703-1.546.853c-.548.113-.745.374-.804.908a18.24 18.24 0 0 1-.267 1.566c-.044.22-.088.442-.13.664h-2.89a.471.471 0 0 0-.012-.028c-.008-.02-.016-.038-.02-.058l-.103-.62c-.11-.66-.22-1.32-.32-1.98-.03-.193-.105-.284-.3-.33a7.9 7.9 0 0 1-2.359-.978c-.188-.118-.315-.119-.5.016-.523.38-1.054.75-1.591 1.123l-.618.43-.484-.487c-.478-.482-.953-.96-1.433-1.435-.118-.116-.122-.19-.025-.322.28-.383.554-.768.83-1.153.221-.312.444-.624.668-.934.082-.112.105-.198.026-.325a9.011 9.011 0 0 1-1.063-2.547c-.02-.077-.127-.168-.209-.187-.178-.043-.359-.073-.54-.102-.098-.016-.196-.032-.293-.05-.455-.083-.91-.168-1.365-.253l-.57-.106v-2.892a.723.723 0 0 0 .029-.01c.019-.008.038-.016.058-.02l.632-.105c.655-.11 1.31-.219 1.967-.319.194-.03.282-.104.329-.3a8.142 8.142 0 0 1 1.01-2.417c.098-.158.079-.26-.023-.402-.398-.558-.79-1.12-1.184-1.684A555.17 555.17 0 0 0 2.6 4.47l.041-.045c.03-.034.059-.065.088-.095l.5-.498c.429-.427.858-.854 1.281-1.288.128-.13.208-.115.341-.018.375.273.752.543 1.13.813.319.228.637.456.955.686.106.076.187.092.305.02a9.096 9.096 0 0 1 2.545-1.066c.078-.02.17-.123.19-.205.038-.142.058-.29.079-.436.01-.073.02-.146.032-.218a969.22 969.22 0 0 1 .362-2.12h2.89a.57.57 0 0 0 .012.027c.009.02.017.038.02.058l.092.517c.126.715.252 1.43.37 2.146.024.146.082.209.22.242a8.525 8.525 0 0 1 2.527 1.049c.132.082.22.07.343-.02.293-.215.589-.427.884-.64.375-.269.75-.538 1.12-.813.18-.133.299-.162.447.03.078.1.172.189.265.277.041.038.082.076.12.115l1.482 1.475-.345.491c-.424.605-.842 1.2-1.263 1.794-.073.103-.1.18-.025.304a8.581 8.581 0 0 1 1.07 2.566c.032.135.105.183.233.204.332.052.664.107.997.16.519.086 1.038.17 1.558.25.158.023.198.079.197.23-.006.848-.006 1.697 0 2.546.002.146-.044.19-.188.215-.4.067-.8.138-1.2.208-.45.08-.9.16-1.35.233-.157.026-.21.093-.252.236-.37 1.266-1.058 2.201-1.058 2.201s-1.588-1.87-1.623-1.906c.389-.755.362-1.281.323-2.038a21.652 21.652 0 0 1-.023-.574 6.37 6.37 0 0 0-6.518-6.205 6.355 6.355 0 0 0-6.227 6.514zm14.423 6.239c.07.049.15.064.267.053 2.424-.233 4.27 1.991 3.36 4.04-.02.045-.05.087-.164.183-.02-.035-.037-.07-.055-.106a1.188 1.188 0 0 0-.134-.226c-.212-.259-.426-.517-.64-.774-.249-.299-.497-.597-.741-.899-.104-.128-.207-.156-.37-.129-.893.148-1.53.59-1.92 1.341-.074.142-.059.237.045.36.382.45.758.903 1.134 1.356l.323.39c.037.045.072.09.11.14l.063.08c-1.33.283-2.86-.458-3.461-1.654-.39-.773-.41-1.556-.08-2.334.067-.158.044-.254-.062-.382a473.727 473.727 0 0 1-2.282-2.742l-.508-.615c-.114-.14-.223-.174-.41-.159-2.416.195-4.23-2.002-3.33-4.025a.892.892 0 0 1 .058-.103l.04-.066.45.54c.39.466.772.924 1.145 1.389.137.171.268.207.482.166.867-.165 1.481-.611 1.859-1.342.068-.132.055-.223-.043-.339-.415-.491-.827-.986-1.25-1.496l-.402-.484a2.97 2.97 0 0 1 1.28.02c1.931.443 2.99 2.284 2.277 3.965-.065.153-.056.252.053.383l.178.212.03.035a607.4 607.4 0 0 1 2.601 3.13.48.48 0 0 0 .097.092z" fill="#3E4D68"/>
    </g>
    <defs>
        <clipPath id="h0anso8gua">
            <path fill="#fff" transform="translate(0 -.001)" d="M0 0h24v24H0z"/>
        </clipPath>
    </defs>
</svg>
