<svg width="24" height="24" viewBox="0 0 24 24" fill="none" xmlns="http://www.w3.org/2000/svg">
    <g clip-path="url(#8j4fluhlfa)" fill="#3E4D68">
        <path fill-rule="evenodd" clip-rule="evenodd" d="M.515 23.999h22.968v-1.733H.515v1.733zM18.413 3.314v10.219h.581l-.002-10.22L15.858 0H5.006v13.534h.579V.511h10.273v2.8h2.555v.003zm1.758 8.753h3.556V13.8h-3.556v-1.733zm-19.898 0h3.556V13.8H.273v-1.733z"/>
        <path d="M9.179 3.139H7.283v1.898H9.18V3.139zM15.95 4.397h-5.872v.535h5.873v-.535zM16.158 5.987H7.283v.526h8.875v-.526zM16.158 7.66H7.283v.527h8.875V7.66zM16.265 9.334H7.39v.526h8.875v-.526zM16.158 11.3H7.283v.526h8.875V11.3zM21.19 14.919H2.837l-2.33 6.144h23.008l-2.327-6.144zM19.6 16.1l.152 1.594h-1.425l-.124-1.594H19.6zm-2.002 0 .113 1.594h-1.425l-.083-1.594h1.395zm-2 0 .074 1.594H14.24l-.043-1.594h1.4zm-2.007 0 .033 1.594h-1.427l-.004-1.594h1.399zm-3.4 0h1.398l-.004 1.594h-1.429l.035-1.594zm-2.004 0h1.398l-.045 1.594H8.113l.074-1.594zm-2 0h1.396L7.5 17.695H6.072l.115-1.594zm-2.004 0H5.58l-.123 1.594H4.03l.152-1.594zm.055 3.845H2.772l.18-1.684h1.436l-.15 1.684zm2.094 0H4.866l.14-1.684h1.435l-.109 1.684zm2.097 0H6.963l.096-1.684h1.438l-.068 1.684zm2.1 0H9.06l.058-1.684h1.44l-.027 1.684zm.627 0 .016-1.684h1.438l.014 1.684h-1.468zm2.099 0-.027-1.684h1.44l.055 1.684h-1.468zm2.096 0-.068-1.684h1.44l.099 1.684h-1.47zm2.101 0-.11-1.684h1.437l.141 1.684h-1.468zm2.096 0-.15-1.684h1.44l.18 1.684h-1.47z"/>
    </g>
    <defs>
        <clipPath id="8j4fluhlfa">
            <path fill="#fff" transform="translate(0 -.001)" d="M0 0h24v24H0z"/>
        </clipPath>
    </defs>
</svg>
