<svg width="24" height="24" viewBox="0 0 24 24" fill="none" xmlns="http://www.w3.org/2000/svg">
    <g clip-path="url(#p9sw8c7ppa)">
        <path fill-rule="evenodd" clip-rule="evenodd" d="M11.396 3.489a1.025 1.025 0 1 1 1.267 0v.992c.257.08.444.321.444.605v.382h9.32a.863.863 0 0 1 .686-.347c.49 0 .887.425.887.95 0 .525-.397.95-.887.95a.863.863 0 0 1-.685-.347h-9.321v1.199a.634.634 0 0 1-.444.604v11.48c2.199.205 3.891 1.436 3.891 2.384h-9.05c0-.948 1.693-2.179 3.892-2.384V8.477a.634.634 0 0 1-.443-.604V6.674H1.658a.864.864 0 0 1-.685.347c-.49 0-.887-.425-.887-.95 0-.525.397-.95.887-.95.276 0 .522.135.685.347h9.295v-.382c0-.284.186-.524.443-.605V3.49zm8.43 4.074 3.736 9.731c.224.01.403.2.403.434 0 .146-.07.276-.177.355-.046 1.178-1.803 2.125-3.963 2.125s-3.917-.947-3.963-2.125a.439.439 0 0 1-.177-.355c0-.234.179-.424.403-.434l3.737-9.731zm0 1.312 3.195 8.419H16.63l3.197-8.42zM4.14 7.563.403 17.294a.428.428 0 0 0-.403.434c0 .147.07.276.177.355.046 1.178 1.803 2.125 3.963 2.125s3.917-.947 3.962-2.125a.439.439 0 0 0 .178-.355.428.428 0 0 0-.403-.434L4.14 7.564zm-3.196 9.73h6.392L4.14 8.876.944 17.294z" fill="#3E4D68"/>
    </g>
    <defs>
        <clipPath id="p9sw8c7ppa">
            <path fill="#fff" transform="translate(0 -.001)" d="M0 0h24v24H0z"/>
        </clipPath>
    </defs>
</svg>
