<svg width="40" height="41" viewBox="0 0 40 41" fill="none" xmlns="http://www.w3.org/2000/svg">
    <path fill-rule="evenodd" clip-rule="evenodd" d="M20.777 9.754c5.61-3.257 7.057-6.755 7.057-6.755L33.5 20.73s-1.084 2.773-8.683 7.96c-8.003 5.46-18.575 8.564-18.575 8.564l4.583-23.761s6.114-1.512 9.951-3.74zM10.99 24.103c2.778-.796 7.925-2.437 11.671-4.612 2.897-1.682 5.025-3.42 6.575-4.975l-2.185-6.831c-1.204 1.225-2.881 2.608-5.184 3.945-2.962 1.72-7.064 3.01-9.166 3.605l-1.71 8.868z" fill="#3E4D68"/>
    <path d="M8.772 37.042c8.34-.615 18.71-2.894 24.062-5.674l.547-6.63C28.22 31.36 16.183 35.726 8.772 37.042zM6.682 37.999l27.075-.692-.639-3.085C29.944 35.315 18.254 37.412 6.63 38h.052z" fill="#3E4D68"/>
</svg>
