<svg width="24" height="24" viewBox="0 0 24 24" fill="none" xmlns="http://www.w3.org/2000/svg">
    <g clip-path="url(#2xyn7fvmwa)" fill="#3E4D68">
        <path fill-rule="evenodd" clip-rule="evenodd" d="m4.111 13.457-.993 3.208c.35.667.775 1.29 1.262 1.858l.86-2.534c.029-.084.151-.045.129.04l-.747 2.767a10.047 10.047 0 0 0 3.6 2.498l.934-2.045a1.975 1.975 0 0 1 1.752-1.07h2c.735 0 1.41.412 1.753 1.07l.961 2.107a10.049 10.049 0 0 0 3.844-2.657l-.018-4.872c-.026-.092.11-.134.141-.043l1.097 3.236a10.003 10.003 0 0 0 .965-2.277c.037-.16.07-.32.099-.482l-.923-2.845a3.076 3.076 0 0 0-2.73-1.667h-4.381c-1.147 0-2.2.642-2.731 1.667l-.38.813a2.774 2.774 0 0 0-1.237-.292H6.6a2.805 2.805 0 0 0-2.489 1.52zm7.797 4.215a1.75 1.75 0 0 1-1.743-1.757c0-.97.78-1.757 1.743-1.757a1.75 1.75 0 0 1 1.742 1.757c0 .97-.78 1.757-1.742 1.757z"/>
        <path d="M9.413 21.694c.107.028.214.055.322.08-.005-.434-.02-.636-.036-.72-.013-.072-.025-.06-.031-.037l-.255.677zM14.194 21.79c.11-.025.22-.051.329-.08l-.261-.693c-.013-.053-.058-.042-.068.773zM18 6.374a2.625 2.625 0 1 1-5.25 0 2.625 2.625 0 0 1 5.25 0zM7.875 11.249a2.625 2.625 0 1 0 0-5.25 2.625 2.625 0 0 0 0 5.25zM10.158 22.129l.096.01c-.078-.007-.156-.017-.233-.027l.137.017z"/>
        <path fill-rule="evenodd" clip-rule="evenodd" d="M12 23.999c6.627 0 12-5.372 12-12 0-6.627-5.373-12-12-12s-12 5.373-12 12 5.373 12 12 12zm0-1.012c6.068 0 10.987-4.92 10.987-10.988S18.068 1.012 12 1.012c-6.068 0-10.987 4.919-10.987 10.987 0 6.068 4.919 10.987 10.987 10.987z"/>
    </g>
    <defs>
        <clipPath id="2xyn7fvmwa">
            <path fill="#fff" transform="translate(0 -.001)" d="M0 0h24v24H0z"/>
        </clipPath>
    </defs>
</svg>
