<svg width="24" height="24" viewBox="0 0 24 24" fill="none" xmlns="http://www.w3.org/2000/svg">
    <g clip-path="url(#y8spovdafa)" fill="#3E4D68">
        <path d="M11.983 3.996A2.006 2.006 0 0 0 12 8.005a2.01 2.01 0 0 0 1.997-2.028 2.01 2.01 0 0 0-2.014-1.98z"/>
        <path fill-rule="evenodd" clip-rule="evenodd" d="M12.35.004C5.615-.189.026 5.215 0 11.974-.058 18.505 5.31 23.943 11.864 24c6.615.057 12.069-5.266 12.135-11.812C24.067 5.517 18.79.189 12.35.004zm-.37 20a1.995 1.995 0 0 1-1.973-2.014c.009-1.123.892-1.986 2.026-1.98 1.093.006 1.978.916 1.965 2.02a2.01 2.01 0 0 1-2.018 1.974zm4.796 1.886-.006.002c.103-.18.213-.36.323-.541.24-.392.482-.788.663-1.21 1.685-3.948-1.145-8.445-5.431-8.618-1.198-.049-2.314-.27-3.32-.958-1.777-1.219-2.63-3.48-2.094-5.6.532-2.115 2.36-3.748 4.504-3.922 2.43-.197 4.663.455 6.676 1.81 5.372 3.616 6.514 10.85 2.527 15.959-1.018 1.306-2.288 2.315-3.774 3.05a.57.57 0 0 1-.068.028z"/>
    </g>
    <defs>
        <clipPath id="y8spovdafa">
            <path fill="#fff" transform="translate(0 -.001)" d="M0 0h24v24H0z"/>
        </clipPath>
    </defs>
</svg>
