<svg width="24" height="24" viewBox="0 0 24 24" fill="none" xmlns="http://www.w3.org/2000/svg">
    <g clip-path="url(#q6zd061p1a)" fill="#3E4D68">
        <path d="M17.686 10.206c.337-3.888-3.892-4.41-3.892-4.41C13.74 2.777 18.253 0 18.253 0c-1.593 4.305.23 9.044.23 9.044l-.797 1.163z"/>
        <path fill-rule="evenodd" clip-rule="evenodd" d="M17.79 11.936c3.128-5.054 5.557-1.718 5.658-1.576.001.003 0 .005-.003.007-.972.337-2.161 1.293-2.197 1.321v.003c-.418 10.932-9.136 8.495-9.202 8.476h-.001l-.093.008a.546.546 0 0 1-.04.002c-4.06.01-5.75 2.994-5.75 2.994-.604 1.179-.893.775-.934.705a.073.073 0 0 0-.015-.018l-.96-.829c-1.686-1.765-.593-3.546-.583-3.562 3.699-.938 5.176-1.919 6.12-2.546.304-.202.553-.367.803-.482 1.025-.473-1.938-1.57-1.938-1.57C-.574 11.078.575 2.255.62 1.933c0-.004.005-.005.007-.002 1.976 2.382 9.88 4.818 9.88 4.818 6.514 1.27 6.21 3.92 6.092 4.418-.017.07-.03.143-.034.216-.072 1.11.362 1.14.706 1a1.11 1.11 0 0 0 .52-.448zm3.363-2.213a.146.146 0 1 0 .29-.024.146.146 0 0 0-.29.024z"/>
    </g>
    <defs>
        <clipPath id="q6zd061p1a">
            <path fill="#fff" transform="translate(0 -.001)" d="M0 0h24v24H0z"/>
        </clipPath>
    </defs>
</svg>
