<?xml version="1.0" encoding="UTF-8"?>
<svg width="476px" height="287px" viewBox="0 0 476 287" version="1.1" xmlns="http://www.w3.org/2000/svg" xmlns:xlink="http://www.w3.org/1999/xlink">
    <title>Image desktop</title>
    <defs>
        <polygon id="path-1" points="0 0 464 0 464 243 0 243"></polygon>
    </defs>
    <g id="Audiobooks-Image-Options" stroke="none" stroke-width="1" fill="none" fill-rule="evenodd">
        <g id="AudioBooksLandingPage_1440--Non-Participating" transform="translate(-182.000000, -1229.000000)">
            <g id="Image-desktop" transform="translate(182.000000, 1229.000000)">
                <path d="M323,109 C319.199045,109 315.993717,111.536211 315,115 L331,115 C330.006283,111.536211 326.800955,109 323,109" id="Fill-1" fill="#F2BC7B"></path>
                <path d="M345,109 C341.199045,109 337.993717,111.536211 337,115 L353,115 C352.006283,111.536211 348.800955,109 345,109" id="Fill-3" fill="#F2BC7B"></path>
                <path d="M334.5,107 C329.036311,107 324.428521,110.381294 323,115 L346,115 C344.571479,110.381294 339.963689,107 334.5,107" id="Fill-5" fill="#F2BC7B"></path>
                <path d="M164.5,234 C149.059028,234 136.036725,244.566684 132,259 L197,259 C192.963275,244.566684 179.940972,234 164.5,234" id="Fill-7" fill="#CCCCCC"></path>
                <path d="M210,225 C188.144631,225 169.713774,239.793408 164,260 L256,260 C250.286226,239.793408 231.854847,225 210,225" id="Fill-9" fill="#CCCCCC"></path>
                <g id="Group-13" transform="translate(12.000000, 0.000000)">
                    <mask id="mask-2" fill="white">
                        <use xlink:href="#path-1"></use>
                    </mask>
                    <g id="Clip-12"></g>
                    <path d="M352.556228,49.3317893 C342.034883,49.3317893 331.857298,50.8219079 322.2095,53.5991617 C297.401178,20.9901639 258.627103,0 215.04721,0 C150.406809,0 96.3401563,46.1669264 82.7422694,107.959905 C80.9647816,107.579638 79.1238868,107.37718 77.236354,107.37718 C62.4840433,107.37718 50.524778,119.585557 50.524778,134.645143 C50.524778,136.516577 50.7097583,138.342903 51.0613781,140.108387 C21.6987669,147.811791 0,175.018912 0,207.397652 C0,220.411145 3.50519348,232.588052 9.60377947,243 L431.885008,243 C451.741308,222.455141 464.000314,194.239397 464.000314,163.098488 C464.000314,100.266466 414.105413,49.3317893 352.556228,49.3317893" id="Fill-11" fill="#E6E6E6" mask="url(#mask-2)"></path>
                </g>
                <path d="M369,129 C358.547404,129 349.732539,135.762562 347,145 L391,145 C388.267461,135.762562 379.452596,129 369,129" id="Fill-14" fill="#FFFFFF"></path>
                <path d="M428,129 C417.547404,129 408.732539,135.762562 406,145 L450,145 C447.267461,135.762562 438.452596,129 428,129" id="Fill-16" fill="#FFFFFF"></path>
                <path d="M400.5,123 C386.008957,123 373.788902,132.721676 370,146 L431,146 C427.211098,132.721676 414.991043,123 400.5,123" id="Fill-18" fill="#FFFFFF"></path>
                <path d="M410.30159,217.54351 C413.332002,219.150319 415.53313,221.335935 416.506033,222.404867 C416.547214,222.311985 416.58891,222.219103 416.630606,222.125696 C417.705947,219.737523 418.984104,217.071228 420.470741,214.235961 C419.226043,213.729569 416.312482,212.38304 413.66145,209.952887 C410.175473,206.757636 408.466973,202.900665 408.466973,202.900665 C408.466973,202.900665 412.409546,204.224629 415.895524,207.41988 C418.45956,209.770271 420.060989,212.476447 420.729152,213.744263 C421.970761,211.39807 423.353931,208.942203 424.882263,206.433335 C423.783243,205.596871 421.344294,203.549266 419.41805,200.551324 C416.849895,196.553718 416.16526,192.379794 416.16526,192.379794 C416.16526,192.379794 419.64506,194.687154 422.21373,198.685285 C424.008195,201.478046 424.882263,204.355294 425.246716,205.836685 C426.785858,203.340412 428.46965,200.798485 430.299633,198.268102 C429.341144,197.273686 427.232158,194.868196 425.773834,191.599479 C423.83369,187.249235 423.781699,183.017588 423.781699,183.017588 C423.781699,183.017588 426.875427,185.839211 428.815571,190.189454 C430.152926,193.186871 430.593049,196.127615 430.737697,197.66673 C431.982395,195.968613 433.293498,194.277843 434.672549,192.611737 C434.151093,191.311911 433.099946,188.284058 432.963019,184.71308 C432.779764,179.937783 434.300375,176 434.300375,176 C434.300375,176 436.118519,179.804495 436.301775,184.579792 C436.413479,187.481178 435.895627,190.071908 435.471976,191.659301 C436.452601,190.503784 437.465655,189.361911 438.512684,188.239978 C439.202467,186.753339 440.462608,184.436533 442.402236,182.300768 C445.587077,178.794336 449.394782,177.108813 449.394782,177.108813 C449.394782,177.108813 448.038896,181.108518 444.854054,184.615475 C442.935531,186.728151 440.791541,188.178582 439.389326,188.998778 C438.305234,190.159018 437.25872,191.340773 436.246695,192.536696 C437.740024,192.227089 440.612919,191.80151 443.798275,192.22394 C448.447103,192.840006 452,195.028771 452,195.028771 C452,195.028771 448.016246,196.217873 443.367418,195.601807 C439.83717,195.133723 436.940082,193.759907 435.749949,193.125475 C434.359573,194.794205 433.040234,196.489173 431.78627,198.193062 C433.19106,198.302736 436.271404,198.701027 439.421756,200.144112 C443.697896,202.103033 446.479677,205.244234 446.479677,205.244234 C446.479677,205.244234 442.32811,205.210125 438.052485,203.251203 C434.803299,201.76299 432.418914,199.593116 431.45991,198.635957 C429.571243,201.228261 427.839064,203.836308 426.258741,206.396077 C427.68618,206.381909 430.760347,206.50995 433.991517,207.652873 C438.420541,209.21875 441.463308,212.097572 441.463308,212.097572 C441.463308,212.097572 437.325125,212.437091 432.8961,210.870688 C429.560433,209.691032 427.01184,207.76727 425.956575,206.88935 C424.409196,209.420782 423.010584,211.899738 421.758164,214.266397 C423.20259,214.202376 426.251534,214.227565 429.487852,215.239823 C433.969382,216.6425 437.112013,219.40745 437.112013,219.40745 C437.112013,219.40745 432.988758,219.898623 428.507227,218.49647 C425.175164,217.453776 422.584359,215.658579 421.474015,214.805848 C420.008483,217.602807 418.746798,220.233944 417.685356,222.591156 C417.631821,222.709227 417.57983,222.826248 417.527324,222.943794 C418.466767,222.984725 422.042828,223.247628 425.713606,224.928953 C429.989746,226.887874 432.771013,230.0296 432.771013,230.0296 C432.771013,230.0296 428.61996,229.994966 424.343821,228.036044 C420.672013,226.354195 418.103859,223.801773 417.451139,223.113815 C413.134333,232.800321 411.196763,239.928108 411.177202,240 L410.069431,239.690393 C410.088992,239.618501 412.003912,232.568378 416.259976,222.957437 C414.857761,222.763802 411.814479,222.184994 408.759873,220.565591 C404.600585,218.360558 402,215.06193 402,215.06193 C402,215.06193 406.142816,215.338477 410.30159,217.54351" id="Fill-20" fill="#F6D2A6"></path>
                <path d="M331.5,234 C317.959508,234 306.540483,242.876304 303,255 L360,255 C356.459517,242.876304 345.040492,234 331.5,234" id="Fill-22" fill="#F6D2A6"></path>
                <path d="M408.5,234 C394.959508,234 383.540483,242.876304 380,255 L437,255 C433.459517,242.876304 422.040492,234 408.5,234" id="Fill-24" fill="#F6D2A6"></path>
                <path d="M371.999737,224 C352.520019,224 336.092857,237.102897 331,255 L413,255 C407.906617,237.102897 391.479455,224 371.999737,224" id="Fill-26" fill="#F6D2A6"></path>
                <path d="M346,245 C339.348343,245 333.738845,249.226661 332,255 L360,255 C358.261155,249.226661 352.651657,245 346,245" id="Fill-28" fill="#F2BC7B"></path>
                <path d="M365,242 C355.497664,242 347.484407,247.917336 345,256 L385,256 C382.515593,247.917336 374.502336,242 365,242" id="Fill-30" fill="#F2BC7B"></path>
                <path d="M375,251 C370.248761,251 366.242319,254.381096 365,259 L385,259 C383.757681,254.381096 379.751239,251 375,251" id="Fill-32" fill="#6F728A"></path>
                <path d="M403,251 C398.248761,251 394.242319,254.381096 393,259 L413,259 C411.757681,254.381096 407.751239,251 403,251" id="Fill-34" fill="#6F728A"></path>
                <path d="M390.5,247 C383.13582,247 376.925065,252.072017 375,259 L406,259 C404.074935,252.072017 397.86418,247 390.5,247" id="Fill-36" fill="#6F728A"></path>
                <path d="M373.104296,203.132814 C378.186478,204.10864 382.313311,206.278947 384.180819,207.385338 C384.201633,207.234323 384.221926,207.082784 384.24326,206.930721 C384.783375,203.034235 385.500927,198.649049 386.447429,193.930898 C384.4259,193.750519 379.623663,193.096124 374.740252,190.772704 C368.31871,187.717808 364.193437,182.935161 364.193437,182.935161 C364.193437,182.935161 370.47969,183.105052 376.901233,186.159948 C381.624378,188.407336 385.102865,191.586504 386.613418,193.112379 C387.413184,189.203308 388.372175,185.074008 389.519529,180.805753 C387.567726,180.08791 383.155745,178.220156 379.081466,174.764653 C373.648574,170.156616 370.87411,164.469979 370.87411,164.469979 C370.87411,164.469979 376.907997,166.254361 382.340889,170.862398 C386.136265,174.081417 388.632866,177.824792 389.793229,179.790601 C390.961397,175.535455 392.32001,171.151318 393.895606,166.719465 C392.080653,165.713751 387.993886,163.18793 384.483138,159.138332 C379.811506,153.74953 377.930469,147.702661 377.930469,147.702661 C377.930469,147.702661 383.623532,150.393654 388.295164,155.78298 C391.514,159.495942 393.408046,163.520371 394.274415,165.664986 C395.356207,162.684024 396.536863,159.684186 397.827311,156.690116 C396.515529,155.054126 393.698397,151.172322 391.975544,146.110193 C389.671989,139.341287 390.198055,133.026473 390.198055,133.026473 C390.198055,133.026473 394.459657,137.686421 396.763212,144.455327 C398.163452,148.568372 398.517805,152.510477 398.580767,154.973375 C399.510098,152.88644 400.492504,150.804749 401.533188,148.736166 C401.899509,146.301583 402.739341,142.426071 404.642753,138.512805 C407.767407,132.086827 412.573287,128 412.573287,128 C412.573287,128 412.312596,134.331594 409.187941,140.757047 C407.305343,144.628364 404.813425,147.649177 403.129077,149.440375 C402.051449,151.579222 401.037302,153.73275 400.078832,155.892046 C402.11337,154.793522 406.100231,152.92367 410.902468,152.132941 C417.910436,150.979359 424,152.560815 424,152.560815 C424,152.560815 418.726853,156.013173 411.718885,157.166755 C406.396306,158.043477 401.607077,157.342414 399.609483,156.953867 C398.303945,159.956851 397.112882,162.967176 396.020684,165.960198 C398.105694,165.501911 402.745065,164.722719 407.932356,165.411198 C414.972584,166.346648 420.348759,169.633309 420.348759,169.633309 C420.348759,169.633309 414.310709,171.403533 407.271001,170.468607 C401.921884,169.758105 397.53592,167.691096 395.736056,166.738866 C394.101662,171.285029 392.701421,175.784524 391.500472,180.148736 C393.56623,179.50273 398.081238,178.339185 403.256561,178.561511 C410.351426,178.866686 415.994536,181.662026 415.994536,181.662026 C415.994536,181.662026 410.135484,183.962898 403.04114,183.657723 C397.697746,183.428055 393.178575,181.785774 391.272562,180.989278 C390.107516,185.297907 389.136557,189.467059 388.328466,193.410737 C390.397346,192.685029 394.831702,191.384627 399.959673,191.41871 C407.060782,191.465378 412.800676,194.053597 412.800676,194.053597 C412.800676,194.053597 407.027481,196.565785 399.926372,196.519117 C394.64646,196.483985 390.121565,195.044629 388.146346,194.308434 C387.213893,198.963138 386.505708,203.289596 385.971316,207.136269 C385.944779,207.328707 385.918762,207.519573 385.892744,207.710962 C387.273732,207.357547 392.574458,206.16726 398.618231,206.970048 C405.65846,207.904974 411.034635,211.191635 411.034635,211.191635 C411.034635,211.191635 404.997106,212.961859 397.956877,212.026933 C391.911021,211.224145 387.095775,208.688886 385.85476,207.987822 C383.724999,223.774071 383.95499,234.846364 383.957592,234.958576 L382.218088,235 C382.215487,234.888312 381.986016,223.937146 384.059579,208.286181 C381.942307,208.623341 377.279521,209.127247 372.156753,208.143556 C365.181047,206.803827 360,203.212516 360,203.212516 C360,203.212516 366.12859,201.793085 373.104296,203.132814" id="Fill-38" fill="#F6D2A6"></path>
                <path d="M90.0754337,160 C90.0754337,160 87.7868623,154.669769 90.3233536,148.073634 C92.859845,141.47697 87.6394645,138.544179 84.9727632,140.698278 C82.305541,142.852377 80.999274,150.206573 90.0754337,160" id="Fill-40" fill="#ADB1CC"></path>
                <path d="M94.0872673,165 C94.0872673,165 95.7247924,159.465182 102.025657,156.060873 C108.325984,152.656041 106.073714,147.068824 102.552658,147.000707 C99.0321408,146.933113 93.2189807,151.705014 94.0872673,165" id="Fill-42" fill="#ADB1CC"></path>
                <path d="M95,164.883775 C95,164.883775 89.1695586,164.786232 84.0409983,168.987856 C78.9129686,173.18948 74.1642624,169.946503 75.124508,167.094153 C76.084223,164.241804 82.3931957,160.782416 95,164.883775" id="Fill-44" fill="#ADB1CC"></path>
                <path d="M103,174.883775 C103,174.883775 97.1695247,174.786232 92.0409347,178.987856 C86.9128752,183.18948 82.1646719,179.946503 83.1243926,177.094153 C84.0841132,174.241804 90.3931225,170.782416 103,174.883775" id="Fill-46" fill="#ADB1CC"></path>
                <path d="M107,183.883775 C107,183.883775 101.169559,183.786232 96.0409983,187.987856 C90.9129686,192.18948 86.1642624,188.946503 87.124508,186.094153 C88.084223,183.241804 94.3931957,179.782416 107,183.883775" id="Fill-48" fill="#ADB1CC"></path>
                <path d="M112,196.883775 C112,196.883775 106.169559,196.786232 101.040998,200.987856 C95.9129686,205.18948 91.1642624,201.946503 92.124508,199.094153 C93.084223,196.241804 99.3931957,192.782416 112,196.883775" id="Fill-50" fill="#ADB1CC"></path>
                <path d="M103.087267,173 C103.087267,173 104.724792,167.465182 111.025657,164.060873 C117.325984,160.656041 115.073714,155.068824 111.552658,155.000707 C108.032141,154.933113 102.218981,159.705014 103.087267,173" id="Fill-52" fill="#ADB1CC"></path>
                <path d="M107.087267,184 C107.087267,184 108.724792,178.465182 115.025657,175.060873 C121.325984,171.656041 119.073714,166.068824 115.552658,166.000707 C112.032141,165.933113 106.218981,170.705014 107.087267,184" id="Fill-54" fill="#ADB1CC"></path>
                <path d="M111.087267,196 C111.087267,196 112.724792,190.465182 119.025657,187.060873 C125.325984,183.656041 123.073714,178.068824 119.552658,178.000707 C116.032141,177.933113 110.218981,182.705014 111.087267,196" id="Fill-56" fill="#ADB1CC"></path>
                <path d="M121.344737,249.997352 C121.038535,249.968638 120.800729,249.710738 120.803886,249.40011 C120.80599,249.253932 120.924893,234.558853 116.964265,216.0219 C113.316152,198.946207 105.359645,175.021023 88.1755271,158.012676 C87.9419301,157.781401 87.9414039,157.406037 88.1744749,157.17424 C88.4075459,156.942443 88.7858259,156.941921 89.0199491,157.172674 C106.418724,174.393502 114.458357,198.561445 118.139616,215.803677 C122.123394,234.462793 122.001334,249.266461 121.99923,249.413684 C121.995547,249.741018 121.725121,250.003617 121.395244,250 C121.377882,250 121.361573,249.998918 121.344737,249.997352" id="Fill-58" fill="#ADB1CC"></path>
                <path d="M65,196 C65,196 62.6903298,193.657795 62.758869,189.698341 C62.8279121,185.738887 59.3969205,185.232943 58.3718563,186.889073 C57.347296,188.545695 58.1002193,192.659195 65,196" id="Fill-60" fill="#ADB1CC"></path>
                <path d="M72.2370509,197 C72.2370509,197 72.0444685,193.539856 74.081951,190.330766 C76.1190444,187.122202 74.3344479,184.425727 72.8898856,185.105886 C71.4453234,185.786045 69.8190723,189.667415 72.2370509,197" id="Fill-62" fill="#ADB1CC"></path>
                <path d="M69,197.000945 C69,197.000945 65.8971451,198.22793 64.1512296,202.308486 C62.4048167,206.389606 59.1527382,205.173894 59.0060017,202.963968 C58.8587678,200.754042 61.39905,196.931057 69,197.000945" id="Fill-64" fill="#ADB1CC"></path>
                <path d="M76,200.000945 C76,200.000945 72.8971451,201.22793 71.1512296,205.308486 C69.4048167,209.389606 66.1527382,208.173894 66.0060017,205.963968 C65.8587678,203.754042 68.39905,199.931057 76,200.000945" id="Fill-66" fill="#ADB1CC"></path>
                <path d="M81,207.000945 C81,207.000945 77.8971451,208.22793 76.1512296,212.308486 C74.4048167,216.389606 71.1527382,215.173894 71.0060017,212.963968 C70.8587678,210.754042 73.39905,206.931057 81,207.000945" id="Fill-68" fill="#ADB1CC"></path>
                <path d="M86,213.000945 C86,213.000945 82.8971451,214.22793 81.1512296,218.308486 C79.4048167,222.389606 76.1527382,221.173894 76.0060017,218.963968 C75.8587678,216.754042 78.39905,212.931057 86,213.000945" id="Fill-70" fill="#ADB1CC"></path>
                <path d="M77.2370509,202 C77.2370509,202 77.0444685,198.539856 79.081951,195.330766 C81.1190444,192.122202 79.3344479,189.425727 77.8898856,190.105886 C76.4453234,190.786045 74.8190723,194.667415 77.2370509,202" id="Fill-72" fill="#ADB1CC"></path>
                <path d="M83.2370509,207 C83.2370509,207 83.0444685,203.539856 85.081951,200.330766 C87.1190444,197.122202 85.3344479,194.425727 83.8898856,195.105886 C82.4453234,195.786045 80.8190723,199.667415 83.2370509,207" id="Fill-74" fill="#ADB1CC"></path>
                <path d="M87.2370509,213 C87.2370509,213 87.0444685,209.539856 89.081951,206.330766 C91.1190444,203.122202 89.3344479,200.425727 87.8898856,201.105886 C86.4453234,201.786045 84.8190723,205.667415 87.2370509,213" id="Fill-76" fill="#ADB1CC"></path>
                <path d="M101.737003,240.987809 C101.560696,241.035688 101.375573,240.938878 101.312829,240.761567 C101.283271,240.678436 98.2969423,232.307985 92.2465016,222.609016 C86.6731269,213.674537 77.2842618,201.751025 64.206951,195.686144 C64.0290884,195.603539 63.9507874,195.39045 64.0321997,195.209982 C64.113612,195.029514 64.3236248,194.950066 64.5014874,195.032671 C77.7421414,201.173317 87.2279754,213.216791 92.8537236,222.239136 C98.942537,232.00282 101.949608,240.435356 101.979165,240.51954 C102.045021,240.706321 101.949608,240.912044 101.765523,240.978865 C101.756189,240.982548 101.746336,240.985178 101.737003,240.987809" id="Fill-78" fill="#ADB1CC"></path>
                <path d="M76.5,62 C62.008928,62 49.7884276,71.7217669 46,85 L107,85 C103.211572,71.7217669 90.991072,62 76.5,62" id="Fill-80" fill="#F7D5AC"></path>
                <path d="M159.5,62 C145.008928,62 132.788428,71.7217669 129,85 L190,85 C186.211572,71.7217669 173.991072,62 159.5,62" id="Fill-82" fill="#F7D5AC"></path>
                <path d="M120.5,50 C99.3577939,50 81.5278649,64.3708467 76,84 L165,84 C159.472135,64.3708467 141.642206,50 120.5,50" id="Fill-84" fill="#F7D5AC"></path>
                <path d="M75,82 C70.2489606,82 66.2422675,85.3812214 65,90 L85,90 C83.7577325,85.3812214 79.7510394,82 75,82" id="Fill-86" fill="#F2BC7B"></path>
                <path d="M104,82 C99.2489606,82 95.2422675,85.3812214 94,90 L114,90 C112.757732,85.3812214 108.751039,82 104,82" id="Fill-88" fill="#F2BC7B"></path>
                <path d="M89,79 C81.8735224,79 75.8630862,83.2268575 74,89 L104,89 C102.136914,83.2268575 96.1264776,79 89,79" id="Fill-90" fill="#F2BC7B"></path>
                <path d="M81.5,239 C72.2352263,239 64.4219976,244.917607 62,253 L101,253 C98.5780024,244.917607 90.7647737,239 81.5,239" id="Fill-92" fill="#ADB1CC"></path>
                <path d="M136.5,239 C127.235226,239 119.421998,244.917607 117,253 L156,253 C153.578002,244.917607 145.764774,239 136.5,239" id="Fill-94" fill="#ADB1CC"></path>
                <path d="M111,231 C97.697117,231 86.4783125,239.876267 83,252 L139,252 C135.521688,239.876267 124.302883,231 111,231" id="Fill-96" fill="#ADB1CC"></path>
                <path d="M51.5,253 C46.9866285,253 43.1799733,255.958481 42,260 L61,260 C59.8200267,255.958481 56.0133715,253 51.5,253" id="Fill-98" fill="#6F728A"></path>
                <path d="M77.5,253 C72.9866285,253 69.1799733,255.958481 68,260 L87,260 C85.8200267,255.958481 82.0133715,253 77.5,253" id="Fill-100" fill="#6F728A"></path>
                <path d="M66,251 C59.8235958,251 54.61469,254.803903 53,260 L79,260 C77.38531,254.803903 72.1764042,251 66,251" id="Fill-102" fill="#6F728A"></path>
                <path d="M15.9997434,83 C8.39787654,83 1.98720149,88.4947028 0,96 L32,96 C30.0122853,88.4947028 23.6016102,83 15.9997434,83" id="Fill-104" fill="#8987A8"></path>
                <path d="M60,83 C52.3980112,83 45.9872334,88.4947028 44,96 L76,96 C74.0127666,88.4947028 67.6019888,83 60,83" id="Fill-106" fill="#8987A8"></path>
                <path d="M39,76 C28.0725337,76 18.8572455,83.6083524 16,94 L62,94 C59.1427545,83.6083524 49.9274663,76 39,76" id="Fill-108" fill="#8987A8"></path>
                <path d="M114.5,103 C109.986677,103 106.180203,105.958506 105,110 L124,110 C122.819797,105.958506 119.013323,103 114.5,103" id="Fill-110" fill="#FFFFFF"></path>
                <path d="M140.5,103 C135.986677,103 132.180203,105.958506 131,110 L150,110 C148.819797,105.958506 145.013323,103 140.5,103" id="Fill-112" fill="#FFFFFF"></path>
                <path d="M129,101 C122.823589,101 117.61515,104.804119 116,110 L142,110 C140.38485,104.804119 135.176411,101 129,101" id="Fill-114" fill="#FFFFFF"></path>
                <path d="M143.5,169 C137.086035,169 131.676864,173.226995 130,179 L157,179 C155.323136,173.226995 149.913965,169 143.5,169" id="Fill-116" fill="#ADB1CC"></path>
                <path d="M181.5,169 C175.086035,169 169.676864,173.226995 168,179 L195,179 C193.323136,173.226995 187.913965,169 181.5,169" id="Fill-118" fill="#ADB1CC"></path>
                <path d="M163.5,163 C154.235632,163 146.422235,168.917283 144,177 L183,177 C180.577765,168.917283 172.764368,163 163.5,163" id="Fill-120" fill="#ADB1CC"></path>
                <polygon id="Fill-122" fill="#474A66" points="252 102 140.631726 110.420098 140 266 251.367751 257.579902"></polygon>
                <polygon id="Fill-124" fill="#6274A5" points="251 100 155.629822 113.890864 155 272 250.370178 258.108608"></polygon>
                <polygon id="Fill-126" fill="#2B2F44" points="248.63304 101 360 110.432463 359.36696 268 248 258.567537"></polygon>
                <polygon id="Fill-128" fill="#435170" points="251.631016 101 347 115.605305 346.368984 273 251 258.394695"></polygon>
                <polygon id="Fill-130" fill="#536687" points="250.642072 101 330 120.761506 329.358459 278 250 258.238494"></polygon>
                <polygon id="Fill-132" fill="#809DD1" points="252 102 172.640246 121.086761 172 278 251.359754 258.913239"></polygon>
                <path d="M313.18861,234 C309.869906,229.047858 305.76907,224.575294 301,220.70659 L301.62278,220 C306.464995,223.928339 310.629572,228.470058 314,233.499374 L313.18861,234 Z" id="Fill-134" fill="#474A66"></path>
                <path d="M306.687892,226 C305.762399,214.766831 305.630775,198.794551 307.170359,190 L308,190.198088 C306.493437,198.804723 306.633775,215.018991 307.530833,225.905239 L306.687892,226 Z" id="Fill-136" fill="#474A66"></path>
                <path d="M322,239.089486 L293.802269,225 L291.720726,227.877372 L250.436617,235.290314 C247.513866,235.592373 244.845154,237.079753 243.060601,239.40144 L210,281.464707 L213.490015,283 L250.071535,246.818028 L297.196431,249.924548 C304.390691,249.64905 311.140778,248.805368 317.928054,242.789187 L322,239.089486 Z" id="Fill-138" fill="#451E3B"></path>
                <polygon id="Fill-140" fill="#E18F4B" points="216.054351 287 219.545634 286.895522 223 285.766325 222.900015 283 219.464108 284.641325 216 285.495336"></polygon>
                <polygon id="Fill-142" fill="#E18F4B" points="224.948079 286 227 285.938532 226.89351 283 224 283.086778 224.077483 285.230927"></polygon>
                <polygon id="Fill-144" fill="#E18F4B" points="201 280.914357 204.164244 281.768313 207.780522 282 209 280.319034 205.158212 280.398947 201.663323 280"></polygon>
                <polygon id="Fill-146" fill="#E18F4B" points="208.46293 284.791911 210.548102 286 212 281.703804 209.059576 280 208 283.134906"></polygon>
                <path d="M320.159632,239 L291,226.382124 L293.366185,223.098617 C298.039479,215.314258 302.650068,209.531606 303.813987,200.520545 L306.60822,187.419784 C308.84226,180.013312 311.597109,176.092024 318.74645,177.178903 L329.801086,178.9571 C337.515803,180.129744 342.075089,188.266001 339.063203,195.486389 L330.128081,225.409079 L320.159632,239 Z" id="Fill-148" fill="#8DB1BF"></path>
                <polygon id="Fill-150" fill="#FFE1C3" points="323.940184 166.874138 319.51179 165 317 175.417392 318.974684 178 325 176.720699"></polygon>
                <path d="M327.98092,164.193143 C327.874049,164.735057 327.348771,165.087427 326.806857,164.98106 C326.264943,164.87419 325.912573,164.348408 326.01894,163.806998 C326.12581,163.265084 326.651592,162.91221 327.193002,163.01908 C327.734916,163.125951 328.08779,163.651229 327.98092,164.193143" id="Fill-152" fill="#FFE1C3"></path>
                <polygon id="Fill-154" fill="#451E3B" points="281.088442 239 248.212487 242.708239 223 283 226.776247 282.874101 255.200773 251.951298 296 249.844594"></polygon>
                <path d="M283,204 L279.024875,203.915595 C278.127146,203.851749 277.304851,203.502224 276.756655,202.951424 L275.038506,201.225801 C274.927461,201.114342 275.075052,200.96032 275.246539,201.009376 L278.443881,201.925573 C278.776547,202.020799 279.150914,201.964529 279.412361,201.779486 C279.998509,201.365034 280.813775,201.201273 281.588278,201.34267 L282.847723,201.572801 L283,204 Z" id="Fill-156" fill="#FFE1C3"></path>
                <path d="M288.034521,221 L284.543225,222.008538 C283.631601,222.268581 282.860491,222.933433 282.415939,223.843315 L281.023534,226.692528 C280.933449,226.876435 281.119494,227.075354 281.285467,226.971337 L284.38117,225.035223 C284.703323,224.833623 285.101852,224.847027 285.411765,225.070074 C286.107478,225.569786 286.984341,225.65879 287.752025,225.307598 L289,224.736576 L288.034521,221 Z" id="Fill-158" fill="#FFE1C3"></path>
                <path d="M317.736774,176 L317.049931,179.888871 C316.608261,182.389389 319.200146,184.040176 320.745091,182.242829 L325,177.292587 L320.996573,176.579892 L317.736774,176 Z" id="Fill-160" fill="#FFE1C3"></path>
                <path d="M291.004165,224 L290,220.355276 L322.549826,214.155741 L332.679064,186 L340,190.310491 L330.351458,219.912303 C329.58764,222.246411 328.176615,224.047069 325.797578,223.741119 L291.004165,224 Z" id="Fill-162" fill="#8DB1BF"></path>
                <polygon id="Fill-164" fill="#8DB1BF" points="284.164576 203.257968 284 199.964887 306 198 305.487536 206"></polygon>
                <polygon id="Fill-166" fill="#506166" points="303.119912 219 303 218.364909 320.72608 215.141693 328.379028 194 329 194.216246 321.219646 215.709076"></polygon>
                <path d="M320.981872,163 L320.218689,162.794496 C318.728977,162.393624 317.759037,160.417975 318.052284,158.381519 L318.539107,155 L322,155.931804 L320.981872,163 Z" id="Fill-168" fill="#E18F4B"></path>
                <path d="M329.781676,168 L326,166.938225 L326.957895,160 L330,160.853867 C329.582066,163.122507 329.521637,165.494545 329.766862,167.857133 L329.781676,168 Z" id="Fill-170" fill="#E18F4B"></path>
                <path d="M319.782915,170.945307 L324.773364,171.962028 C325.819021,172.175019 326.834294,171.470468 327.040178,170.38817 L329,160.091432 L318.732019,158 L317.065567,166.75594 C316.697806,168.689119 317.914248,170.56485 319.782915,170.945307" id="Fill-172" fill="#FFE1C3"></path>
                <path d="M330.766791,161 L321.841627,159.086531 C319.262014,158.533515 317.582672,155.808695 318.090583,153 L327.819469,155.085692 C329.955366,155.54365 331.345574,157.799888 330.924968,160.124904 L330.766791,161 Z" id="Fill-174" fill="#E18F4B"></path>
                <path d="M328.326111,162 C328.296878,162 328.267221,161.996157 328.237564,161.988471 C328.027,161.933227 327.896087,161.694957 327.944809,161.456686 C328.423555,159.108572 328.274847,157.335957 327.50165,156.189762 C326.670411,154.956618 325.388811,154.886962 325.376101,154.886482 C325.160453,154.876874 324.991832,154.67127 325.000306,154.426274 C325.008356,154.18224 325.190957,153.993449 325.406181,154.000174 C325.473545,154.003057 327.070778,154.090006 328.123173,155.650772 C329.044654,157.017943 329.240813,159.038436 328.70699,161.656526 C328.665047,161.86165 328.504052,162 328.326111,162" id="Fill-176" fill="#000000"></path>
                <path d="M332,164.5 C332,166.432668 330.433231,168 328.5,168 C326.567332,168 325,166.432668 325,164.5 C325,162.567332 326.567332,161 328.5,161 C330.433231,161 332,162.567332 332,164.5" id="Fill-178" fill="#000000"></path>
                <path d="M329,163.5 C329,164.328347 328.328266,165 327.499819,165 C326.671372,165 326,164.328347 326,163.5 C326,162.671653 326.671372,162 327.499819,162 C328.328266,162 329,162.671653 329,163.5" id="Fill-180" fill="#451E3B"></path>
                <polygon id="Fill-182" fill="#451E3B" points="327.76747 286 331 286 328.040662 261 321 261"></polygon>
                <polygon id="Fill-184" fill="#451E3B" points="279.564581 286 282.90033 286 286 261 279 261"></polygon>
                <path d="M329,225 L329,263 L276,263 L276,238.520332 C276,231.053407 281.898724,225 289.175493,225 L329,225 Z" id="Fill-186" fill="#E18F4B"></path>
                <path d="M328,263 C328,263 349.772803,224.227644 355.927034,186.366462 C356.225788,184.528917 355.595142,182.660458 354.25515,181.384604 C349.049477,176.427896 343.281504,177.926959 339.907188,179.562778 C338.140034,180.418936 336.942429,182.142257 336.765869,184.117605 C336.00837,192.597453 332.810614,214.106213 328,225.954108 L328,263 Z" id="Fill-188" fill="#E18F4B"></path>
                <polygon id="Fill-190" fill="#A45F4A" points="142 242 135.597266 242 126 284 128.969978 284"></polygon>
                <polygon id="Fill-192" fill="#A45F4A" points="144.902117 242 144 284 147.291889 284 152 242"></polygon>
                <polygon id="Fill-194" fill="#451E3B" points="134 287 130.74259 287 126 285.816895 127.484612 284 134 286.418296"></polygon>
                <polygon id="Fill-196" fill="#451E3B" points="127.418105 287 126 287 126 284 128 284 127.147509 285.816895"></polygon>
                <polygon id="Fill-198" fill="#451E3B" points="153 287 149.74259 287 145 285.816895 146.484612 284 153 286.418296"></polygon>
                <polygon id="Fill-200" fill="#451E3B" points="146.418105 287 145 287 145 284 147 284 146.147509 285.816895"></polygon>
                <polygon id="Fill-202" fill="#A45F4A" points="151.496538 242 152 223 143 223 145.060466 242"></polygon>
                <polygon id="Fill-204" fill="#A45F4A" points="142.396559 242 143 223 135 223 136.476784 242"></polygon>
                <path d="M146.245089,145 L142.542146,145 C141.690379,145 141,144.326875 141,143.496396 L141,136 L149,136 L149,142.313941 C149,143.797301 147.766472,145 146.245089,145" id="Fill-206" fill="#A45F4A"></path>
                <polygon id="Fill-208" fill="#A45F4A" points="145.108429 143 141.094333 143.851845 139 151 146 151"></polygon>
                <path d="M146.899561,137 L140,137 L140,130 L146.899561,130 C148.61161,130 150,131.567315 150,133.5 C150,135.433248 148.61161,137 146.899561,137" id="Fill-210" fill="#2D334A"></path>
                <path d="M140.239882,143 L137,143 L137,136 L144,136 L144,139.239882 C144,141.316357 142.316357,143 140.239882,143" id="Fill-212" fill="#DBA98B"></path>
                <path d="M143,140 C143,140.552333 142.552333,141 142,141 C141.447667,141 141,140.552333 141,140 C141,139.447667 141.447667,139 142,139 C142.552333,139 143,139.447667 143,140" id="Fill-214" fill="#FFE1C3"></path>
                <path d="M153.983548,238 L144.410754,238 L141.09802,229.978495 L138.440828,238 L134.776798,238 L128.455576,199.117419 C128,196.317624 127.885767,193.472441 128.114214,190.644674 L130.804863,157.339517 C130.927189,155.826942 131.539864,154.397225 132.548269,153.271502 C133.844193,151.824897 135.685879,151 137.61748,151 L149.577721,151 C150.976105,151 152.343125,151.42274 153.501562,152.21386 C155.361545,153.483664 156.505868,155.576781 156.578531,157.843005 L157.277462,179.660295 L160,194.088871 L153.983548,238 Z" id="Fill-216" fill="#FCD18D"></path>
                <path d="M133,162 C136.865952,162 140,158.915462 140,155.110583 L140,131 C136.134048,131 133,134.084538 133,137.889944 L133,162 Z" id="Fill-218" fill="#2D334A"></path>
                <path d="M175.328769,157 L175.899535,154.247651 C176.082358,153.365661 176.013613,152.408249 175.710023,151.606184 L174.759489,149.094173 C174.697805,148.931509 174.534305,148.992297 174.529474,149.179164 L174.436947,152.675041 C174.427286,153.039207 174.283851,153.363973 174.065727,153.515943 C173.575968,153.857594 173.230016,154.544837 173.142691,155.350279 L173,156.659474 L175.328769,157 Z" id="Fill-220" fill="#A45F4A"></path>
                <path d="M175,157.676291 L167.272841,177.832842 C165.929709,181.3355 161.079006,182.120702 158.588292,179.239089 L145,163.520324 L153.767591,155 L163.615258,172.154997 L171.642439,157.368818 L175,157.676291 Z" id="Fill-222" fill="#FCD18D"></path>
                <path d="M149,151 C143.281343,145.076379 142.610418,143.021863 142.604528,143 L142.302532,143.095859 L142,143.187233 C142.024095,143.274683 142.618986,145.246234 148.106326,151 L149,151 Z" id="Fill-224" fill="#451E3B"></path>
                <polygon id="Fill-226" fill="#FFFFFF" points="232 134 194 143.354372 194 219 232 209.645628"></polygon>
                <polygon id="Fill-228" fill="#FFFFFF" points="242 217 186.28174 231.169613 186 237 241.71826 222.830387"></polygon>
                <polygon id="Fill-230" fill="#FFFFFF" points="242 227 186.304266 241.103139 186 247 241.695213 232.896861"></polygon>
                <path d="M142.402028,138 C142.247582,138 142.113119,137.81828 142.092459,137.56828 C142.050122,137.054839 141.706344,132.502688 142.688227,130.726344 C142.950717,130.251075 143.296188,130 143.687383,130 C143.859779,130 144,130.222581 144,130.496237 C144,130.77043 143.859779,130.992473 143.687383,130.992473 C143.472649,130.992473 143.304655,131.116129 143.158338,131.380645 C142.482976,132.602688 142.607278,136.16828 142.712274,137.439247 C142.734967,137.710753 142.614391,137.960215 142.44301,137.995699 C142.429462,137.998925 142.415576,138 142.402028,138" id="Fill-232" fill="#FBBC58"></path>
                <path d="M146,141 C146,143.209179 144.209179,145 142,145 C139.790821,145 138,143.209179 138,141 C138,138.790821 139.790821,137 142,137 C144.209179,137 146,138.790821 146,141" id="Fill-234" fill="#FBBC58"></path>
                <path d="M144,140 C144,141.104599 143.104512,142 141.999806,142 C140.895488,142 140,141.104599 140,140 C140,138.895401 140.895488,138 141.999806,138 C143.104512,138 144,138.895401 144,140" id="Fill-236" fill="#FFFFFF"></path>
                <path d="M253.825827,114.988157 L253.825827,114.988157 C252.506955,115.116363 251.337342,114.188988 251.213542,112.916903 L250,100.464935 L254.775296,100 L255.989337,112.452467 C256.113137,113.724553 255.1447,114.859951 253.825827,114.988157" id="Fill-238" fill="#FBBC58"></path>
                <path d="M276.636407,128.368321 C272.633536,128.752063 266.598463,137.070102 262.828581,147.584948 C259.901242,155.750214 258.406542,165.190479 260.932069,171.707881 C262.231122,170.786071 263.582242,169.695953 264.975436,168.441153 C273.343545,160.905617 277.55784,153.270132 279.620021,148.191892 C282.120829,142.032856 282.835045,136.087701 281.530733,132.288084 C280.728686,129.952488 279.23872,128.597738 277.222295,128.371429 C277.032434,128.349678 276.836787,128.34916 276.636407,128.368321 M326.200265,179.415868 C323.641078,179.661338 320.080517,178.986553 315.550136,177.392547 C304.720139,173.581537 296.694412,176.042458 288.933229,178.422592 C281.413976,180.72867 274.310734,182.905798 265.951567,178.256355 C263.497567,176.89073 261.811428,174.832194 260.743259,172.323629 C255.503922,175.916616 251.068735,176.791299 247.980987,174.757621 C245.545394,173.153776 244.134844,169.812474 244.009146,165.350501 C243.8845,160.918046 245.037344,155.75125 247.255726,150.800924 C254.909619,133.72155 253.685774,114.223202 253.6721,114.027965 L254.085483,114 C254.098631,114.195755 255.330364,133.784731 247.636501,150.953696 C245.440734,155.852235 244.299987,160.960511 244.423055,165.337036 C244.545071,169.671613 245.89251,172.90209 248.218182,174.433434 C251.171292,176.378038 255.471314,175.486783 260.589161,171.947655 C257.973174,165.319946 259.468925,155.738303 262.436761,147.460141 C264.344318,142.140056 266.886148,137.195945 269.5947,133.538224 C272.424741,129.715303 275.150122,127.740662 277.273837,127.979918 C279.461189,128.225907 281.068964,129.672838 281.92413,132.163795 C283.257368,136.046272 282.540523,142.090858 280.006055,148.331717 C277.928622,153.448279 273.683823,161.139694 265.258914,168.726499 C263.822067,170.02014 262.42782,171.14133 261.084589,172.086444 C262.120676,174.557723 263.763688,176.581561 266.162466,177.915596 C274.362802,182.477519 281.37979,180.325766 288.808583,178.047653 C296.272614,175.759183 304.732235,173.165169 315.696345,177.022787 C322.826935,179.531871 327.459872,179.747823 329.464726,177.663911 C332.131203,174.892785 329.161263,168.857521 329.131285,168.79693 L329.505223,168.625515 C329.634077,168.882896 332.624527,174.960626 329.769767,177.928543 C328.960357,178.769565 327.768069,179.265167 326.200265,179.415868" id="Fill-240" fill="#000000"></path>
                <path d="M304.041717,175.999015 C304.038322,175.999507 304.035896,175.999507 304.033956,176 L304,175.627075 C304,175.626583 304,175.626583 304.000485,175.626583 C304.063546,175.620671 307.852535,175.218188 310.508368,172.079117 C314.854232,166.942904 317.283046,166.442879 318,166 L317.926752,166.385241 C317.269464,166.791172 315.107931,167.227154 310.801843,172.31706 C308.066942,175.549239 304.292505,175.974383 304.041717,175.999015" id="Fill-242" fill="#000000"></path>
                <path d="M254,113 C254,112.447639 254.447639,112 255,112 C255.552361,112 256,112.447639 256,113 C256,113.552361 255.552361,114 255,114 C254.447639,114 254,113.552361 254,113" id="Fill-244" fill="#555A6C"></path>
                <path d="M233.058024,83.7286516 L233.276101,83.9521425 C233.345856,84.023293 233.45159,84.0141263 233.5118,83.9311903 L235.959476,80.5513266 C236.019685,80.4683905 236.011976,80.3431133 235.941853,80.2715264 L235.723776,80.0480355 C235.654021,79.9764486 235.548654,79.9860517 235.488444,80.0689878 L233.040401,83.4488514 C232.980192,83.5317875 232.988268,83.6570647 233.058024,83.7286516" id="Fill-246" fill="#451E3B"></path>
                <path d="M233.349523,85 C233.349523,85 234.308463,84.3022024 234.74595,83.4473694 C234.921211,83.1052714 235.038163,82.7231932 234.988517,82.3229797 L234.833914,81.0691697 C234.823918,80.9883851 234.734288,80.9739593 234.707965,81.0493857 L234.215501,82.4548729 C234.164189,82.6011919 234.050902,82.6996997 233.922288,82.7095917 C233.63374,82.7318487 233.372847,82.9301007 233.22624,83.2379889 L233,83.7132167 L233.349523,85 Z" id="Fill-248" fill="#FFD6BB"></path>
                <path d="M198,92.5500627 L192.814907,92.9736624 C188.914929,93.2929667 185.691528,90.6657928 186.023557,87.4379845 L187.685878,71.2673871 C187.840462,69.7617896 189.29649,68.5418011 191.116117,68.3931134 L195.921282,68 L198,92.5500627 Z" id="Fill-250" fill="#11141C"></path>
                <path d="M193,101.382099 L193.149824,102.358955 C195.002439,105.854581 197.775251,108.811466 201.186677,110.928245 L211.636125,116.235674 L208.181134,137.92053 L210.537414,138 L219.278759,116.417834 C219.837678,115.03847 219.450366,113.467141 218.309152,112.483577 L211.373136,106.504786 L211.631875,106.37939 L227.970694,108.333617 L234.822766,127.360374 L237,127.890342 L233.659768,105.130067 C233.50835,104.099027 232.730538,103.258405 231.6908,103.002451 L211.354541,98 L193,101.382099 Z" id="Fill-252" fill="#451E3B"></path>
                <polygon id="Fill-254" fill="#DBA98B" points="212.601537 142 211.16534 141.173661 210 139.983357 210.7323 139 211.7618 140.372648 213 141.465268"></polygon>
                <polygon id="Fill-256" fill="#DBA98B" points="208.857838 139 208 138.365103 208.790079 137 210 137.895161 209.423245 138.891496"></polygon>
                <polygon id="Fill-258" fill="#DBA98B" points="239.806713 131 238.337514 130.448461 237 129.384203 237.355219 128 238.627075 129.320393 240 130.247211"></polygon>
                <polygon id="Fill-260" fill="#DBA98B" points="236.082631 130 235 129.638396 235.472845 128 237 128.509638 236.654777 129.705474"></polygon>
                <path d="M213.914019,74.9661791 L213.071873,86.9180296 L213.659179,95.3755507 C213.729656,96.3904107 213.561635,97.4079288 213.169417,98.3403879 L193.809772,104 L193.265875,102.537517 C192.892553,101.534884 192.664781,100.480153 192.590218,99.4078781 L192.141823,92.968913 L192.004444,90.8264899 L191.013685,75.2766444 C190.849239,72.7110528 192.179615,70.3559822 194.315876,68.9732421 C194.98183,68.5330619 195.731028,68.1917627 196.530785,67.9732674 C197.004205,67.8472738 197.493456,67.7553038 198.000582,67.7117111 L205.878653,67.0291127 C206.202948,67.0009369 206.516007,66.9950891 206.829577,67.003595 C208.896894,67.0583518 210.734906,67.9057519 212.031576,69.2177867 C212.045875,69.2241661 212.053536,69.2374566 212.060686,69.243836 C212.638799,69.8318062 213.101494,70.5074935 213.433449,71.251228 C213.931893,72.3777279 214.128513,73.6435119 213.914019,74.9661791" id="Fill-262" fill="#674E50"></path>
                <path d="M203.837076,77.419301 L202.709077,82.9293102 C201.765544,87.5707732 198.226233,91.2401368 193.695152,92.2691634 L192.695431,92.4914505 L190.454274,93 L190,90.8920677 L192.553371,90.3059888 L193.233457,90.154183 C196.959884,89.309492 199.866815,86.3010259 200.644965,82.4831095 L201.766074,76.9812328 C202.220348,74.7448077 201.328762,72.4715156 199.485691,71.1903829 L194.95249,68.0198098 C195.643708,67.5703562 196.421328,67.2222871 197.250895,67 L200.683131,69.4039536 C203.230671,71.1822504 204.468926,74.3295104 203.837076,77.419301" id="Fill-264" fill="#11141C"></path>
                <path d="M234,86.2062668 L219.123026,91.8596928 C218.048678,92.2677946 216.847154,91.7575323 216.378358,90.6937649 L209,73.949159 L215.308267,72 L220.854008,86.6024768 L233.388064,84.5106173 L234,86.2062668 Z" id="Fill-266" fill="#674E50"></path>
                <path d="M206.79438,68.9891394 C206.281608,69.0251681 205.765674,68.9713475 205.278724,68.8307911 L201,67.443909 L207.879476,67 L207.995417,67.7917415 C208.055495,68.4020052 207.517953,68.9384324 206.79438,68.9891394" id="Fill-268" fill="#FFD6BB"></path>
                <polygon id="Fill-270" fill="#FFD6BB" points="205.230675 61 202.447943 61.2214736 201 68 208 67.4878424"></polygon>
                <polygon id="Fill-272" fill="#674E50" points="204 103.808532 196.371175 91.9933977 197.53102 78.0335196 191.174729 78 190 94.6196039 202.93424 105"></polygon>
                <path d="M204.718022,104 C204.718022,104 205.908398,104.298745 206.511823,104.932824 C206.753193,105.186455 206.940129,105.485556 206.954454,105.834388 L206.999935,106.926353 C207.0028,106.997043 206.910764,107.027593 206.870297,106.969336 L206.116821,105.880212 C206.038394,105.766895 205.902668,105.706862 205.765152,105.724623 C205.457172,105.764764 205.149193,105.650381 204.943277,105.419839 L204,104.833361 L204.718022,104 Z" id="Fill-274" fill="#FFD6BB"></path>
                <polygon id="Fill-276" fill="#451E3B" points="209.380952 72 209 62.0210457 209.619048 62 210 71.9784866"></polygon>
                <path d="M206.388295,64.927821 L202.593657,63.9476885 C201.483528,63.6607057 200.794974,62.4369775 201.054841,61.2137721 L202.801361,53 L211,55.1181318 L209.344054,62.9063957 C209.034394,64.3643102 207.710871,65.2696913 206.388295,64.927821" id="Fill-278" fill="#FFD6BB"></path>
                <path d="M200,53.1372523 L208.168108,54.9318002 C209.641622,55.2550418 211.116216,54.3982997 211.461081,53.0171767 L212,50.8624019 L203.831351,49.0683606 C202.358378,48.7446124 200.883784,49.6018612 200.538919,50.9824775 L200,53.1372523 Z" id="Fill-280" fill="#451E3B"></path>
                <polygon id="Fill-282" fill="#451E3B" points="203 55.5053731 200.861922 55 200.586298 56.1858994 200.506638 56.5285729 200 58.7083459 201.233139 59 201.739379 56.820227 202.644716 57.033946"></polygon>
                <path d="M203.973371,56.2281807 C203.847271,56.7656062 203.309245,57.0994706 202.771819,56.9733707 C202.234394,56.8472709 201.900529,56.3092449 202.026629,55.7718193 C202.152729,55.2343938 202.690755,54.9005294 203.228181,55.0266293 C203.765606,55.1527291 204.099471,55.6907551 203.973371,56.2281807" id="Fill-284" fill="#FFD6BB"></path>
                <path d="M203,56.8857091 L203.628037,56.9863904 C204.030533,57.0509611 204.433029,56.8795886 204.527078,56.6032505 L205,55.2181939 L203.643637,55 L203,56.8857091 Z" id="Fill-286" fill="#451E3B"></path>
                <path d="M209.752361,94 C208.274833,94 206.859965,93.7781004 205.555675,93.2699132 C203.638996,92.5233302 202.523741,91.5862436 202.146197,90.4049078 C201.520117,88.4445289 203.003437,86.148374 204.721077,83.4893041 C206.60353,80.5742782 208.737679,77.2702629 208.737679,73.5612941 C208.737679,71.156584 207.469722,69.044015 206.351308,67.1799523 C205.917949,66.4583796 205.508812,65.7761848 205.206566,65.130175 C203.461018,61.4031137 202.753848,59.2293494 202.747003,59.2080641 L203.378875,59 C203.38572,59.0212853 204.081833,61.1588646 205.806845,64.8433552 C206.094873,65.4579691 206.495059,66.1252642 206.919467,66.8319371 C208.083165,68.7710307 209.401672,70.9692731 209.401672,73.5612941 C209.401672,77.4698128 207.210655,80.8626944 205.277125,83.8564761 C203.652686,86.3713378 202.24993,88.5435057 202.778596,90.1984401 C203.09032,91.1749046 204.077094,91.9747009 205.794734,92.6441245 C215.505033,96.4233348 232.419731,83.1205358 232.589283,82.9864382 L233,83.5137823 C232.386031,84.0012163 219.671178,94 209.752361,94" id="Fill-288" fill="#451E3B"></path>
                <path d="M203.540571,54 C203.500623,54 203.459534,53.9969423 203.419015,53.9895165 C203.128536,53.9379727 202.947058,53.7165091 203.013829,53.4937351 C203.04008,53.4068096 203.678106,51.349426 205.601316,50.4321212 C206.485307,50.0105978 207.488572,49.8974635 208.583147,50.0927184 C208.873625,50.144699 209.053962,50.3670362 208.98548,50.5893734 C208.917568,50.8117106 208.626519,50.9493064 208.336611,50.8973258 C207.520531,50.7518674 206.812881,50.8283095 206.172572,51.1340778 C204.625444,51.8714161 204.071879,53.6614709 204.066172,53.6793801 C204.008533,53.8707037 203.786537,54 203.540571,54" id="Fill-290" fill="#E18F4B"></path>
                <path d="M207,56 C207,58.2091319 205.209258,60 203.000282,60 C200.791306,60 199,58.2091319 199,56 C199,53.7908681 200.791306,52 203.000282,52 C205.209258,52 207,53.7908681 207,56" id="Fill-292" fill="#E18F4B"></path>
                <path d="M205,57 C205,58.1045033 204.104503,59 203,59 C201.895497,59 201,58.1045033 201,57 C201,55.8954967 201.895497,55 203,55 C204.104503,55 205,55.8954967 205,57" id="Fill-294" fill="#FFFFFF"></path>
            </g>
        </g>
    </g>
</svg>