<?xml version="1.0" encoding="UTF-8"?>
<svg width="352px" height="212px" viewBox="0 0 352 212" version="1.1" xmlns="http://www.w3.org/2000/svg" xmlns:xlink="http://www.w3.org/1999/xlink">
    <title>Image-mobile</title>
    <defs>
        <polygon id="path-1" points="0 0 342 0 342 179 0 179"></polygon>
    </defs>
    <g id="Audiobooks-Image-Options" stroke="none" stroke-width="1" fill="none" fill-rule="evenodd">
        <g id="AudioBooksLandingPage_375-Mobile--Non-Participating" transform="translate(-11.000000, -1316.000000)">
            <g id="Image-mobile" transform="translate(11.000000, 1316.000000)">
                <path d="M239,81 C236.149284,81 233.745288,83.1135095 233,86 L245,86 C244.254712,83.1135095 241.850716,81 239,81" id="Fill-1" fill="#F2BC7B"></path>
                <path d="M255,81 C252.149284,81 249.745288,83.1135095 249,86 L261,86 C260.254712,83.1135095 257.850716,81 255,81" id="Fill-3" fill="#F2BC7B"></path>
                <path d="M246.5,79 C242.461621,79 239.055863,81.5359706 238,85 L255,85 C253.944137,81.5359706 250.538379,79 246.5,79" id="Fill-5" fill="#F2BC7B"></path>
                <path d="M121,172 C109.597436,172 99.9809659,180.03068 97,191 L145,191 C142.019034,180.03068 132.402564,172 121,172" id="Fill-7" fill="#CCCCCC"></path>
                <path d="M155,166 C138.846032,166 125.223224,176.989389 121,192 L189,192 C184.776776,176.989389 171.153583,166 155,166" id="Fill-9" fill="#CCCCCC"></path>
                <g id="Group-13" transform="translate(10.000000, 0.000000)">
                    <mask id="mask-2" fill="white">
                        <use xlink:href="#path-1"></use>
                    </mask>
                    <g id="Clip-12"></g>
                    <path d="M259.858254,36.3390547 C252.103297,36.3390547 244.601715,37.4367141 237.490623,39.48251 C219.205178,15.4618903 190.626012,0 158.504624,0 C110.860191,0 71.0093394,34.0077359 60.9867589,79.5260202 C59.6766278,79.2459065 58.3197614,79.0967701 56.9285196,79.0967701 C46.0550491,79.0967701 37.2402458,88.0897724 37.2402458,99.1830479 C37.2402458,100.561594 37.3765891,101.906912 37.6357571,103.207413 C15.9934877,108.881937 0,128.923396 0,152.774402 C0,162.360473 2.58356933,171.330294 7.0786478,179 L318.329036,179 C332.964498,163.866133 342.000232,143.081695 342.000232,120.142508 C342.000232,73.8588369 305.224248,36.3390547 259.858254,36.3390547" id="Fill-11" fill="#E6E6E6" mask="url(#mask-2)"></path>
                </g>
                <path d="M272.5,95 C264.660553,95 258.049405,100.071921 256,107 L289,107 C286.950595,100.071921 280.339447,95 272.5,95" id="Fill-14" fill="#FFFFFF"></path>
                <path d="M316.5,95 C308.660553,95 302.049405,100.071921 300,107 L333,107 C330.950595,100.071921 324.339447,95 316.5,95" id="Fill-16" fill="#FFFFFF"></path>
                <path d="M295.5,91 C284.809886,91 275.795092,98.1855865 273,108 L318,108 C315.204908,98.1855865 306.190114,91 295.5,91" id="Fill-18" fill="#FFFFFF"></path>
                <path d="M303.143176,160.508515 C305.385681,161.688515 307.014516,163.293577 307.734464,164.078574 C307.764938,164.010364 307.795793,163.942154 307.826648,163.873558 C308.6224,162.119743 309.568237,160.161683 310.668348,158.079534 C309.747272,157.707652 307.591237,156.718795 305.629473,154.934151 C303.04985,152.587639 301.78556,149.755176 301.78556,149.755176 C301.78556,149.755176 304.703064,150.727462 307.282687,153.073974 C309.180075,154.800043 310.365132,156.787391 310.859573,157.718443 C311.778363,155.995458 312.801909,154.19193 313.932875,152.349481 C313.1196,151.735202 311.314778,150.231492 309.889357,148.029878 C307.988922,145.094137 307.482292,142.028911 307.482292,142.028911 C307.482292,142.028911 310.057345,143.723379 311.95816,146.659506 C313.286064,148.71044 313.932875,150.823419 314.20257,151.911316 C315.341535,150.078115 316.587541,148.211387 317.941729,146.353137 C317.232447,145.622863 315.671797,143.856331 314.592637,141.455867 C313.156931,138.261157 313.118457,135.153541 313.118457,135.153541 C313.118457,135.153541 315.407816,137.225671 316.843522,140.42038 C317.833165,142.621609 318.158856,144.781217 318.265896,145.911504 C319.186972,144.66445 320.157188,143.422791 321.177686,142.199244 C320.791809,141.244685 320.01396,139.021105 319.912634,136.398668 C319.777025,132.89181 320.902277,130 320.902277,130 C320.902277,130 322.247704,132.793926 322.383313,136.300785 C322.465974,138.43149 322.082764,140.334058 321.769262,141.499799 C322.494924,140.651216 323.244585,139.812653 324.019386,138.988734 C324.529825,137.896983 325.46233,136.195579 326.897655,134.627127 C329.254437,132.05209 332.072139,130.814285 332.072139,130.814285 C332.072139,130.814285 331.068783,133.751568 328.712,136.32699 C327.292293,137.878486 325.705741,138.943646 324.668101,139.545978 C323.865873,140.398029 323.091453,141.26588 322.342554,142.144136 C323.447618,141.916768 325.57356,141.604234 327.930723,141.914456 C331.370856,142.36688 334,143.974254 334,143.974254 C334,143.974254 331.052022,144.8475 327.611889,144.395077 C324.999506,144.051328 322.85566,143.042432 321.974962,142.57652 C320.946084,143.801994 319.969773,145.046736 319.04184,146.29803 C320.081384,146.378572 322.360839,146.671067 324.692099,147.730832 C327.856443,149.169415 329.914961,151.476234 329.914961,151.476234 C329.914961,151.476234 326.842802,151.451185 323.678839,150.012602 C321.274441,148.919696 319.509997,147.326194 318.800334,146.623281 C317.40272,148.527005 316.120908,150.442289 314.951468,152.322119 C316.007773,152.311714 318.282657,152.405744 320.673722,153.245078 C323.9512,154.39502 326.202848,156.509155 326.202848,156.509155 C326.202848,156.509155 323.140592,156.758488 319.863114,155.608162 C317.394721,154.741852 315.508761,153.329089 314.727865,152.684366 C313.582805,154.543387 312.547832,156.36387 311.621041,158.101885 C312.689917,158.05487 314.946135,158.073368 317.34101,158.816745 C320.657343,159.846836 322.982889,161.877346 322.982889,161.877346 C322.982889,161.877346 319.931681,162.238052 316.615348,161.208345 C314.149621,160.442617 312.232426,159.124269 311.410771,158.498044 C310.326278,160.552062 309.392631,162.484302 308.607163,164.21538 C308.567547,164.302088 308.529074,164.388026 308.490219,164.474348 C309.185407,164.504407 311.831693,164.697477 314.548069,165.9322 C317.712412,167.370782 319.770549,169.677987 319.770549,169.677987 C319.770549,169.677987 316.698771,169.652553 313.534427,168.21397 C310.81729,166.978862 308.916855,165.104427 308.433843,164.599208 C305.239406,171.712736 303.805605,176.947204 303.79113,177 L302.971379,176.772632 C302.985854,176.719837 304.402895,171.542403 307.552382,164.484368 C306.514743,164.342167 304.262715,163.917105 302.002306,162.727856 C298.924433,161.108535 297,158.686105 297,158.686105 C297,158.686105 300.065684,158.889194 303.143176,160.508515" id="Fill-20" fill="#F6D2A6"></path>
                <path d="M245,173 C235.022795,173 226.608777,179.762899 224,189 L266,189 C263.391223,179.762899 254.977205,173 245,173" id="Fill-22" fill="#F6D2A6"></path>
                <path d="M302,173 C292.022795,173 283.608777,179.762899 281,189 L323,189 C320.391223,179.762899 311.977205,173 302,173" id="Fill-24" fill="#F6D2A6"></path>
                <path d="M274.499804,166 C260.008795,166 247.788589,175.721504 244,189 L305,189 C301.21102,175.721504 288.990814,166 274.499804,166" id="Fill-26" fill="#F6D2A6"></path>
                <path d="M255.5,181 C250.511257,181 246.304134,184.381329 245,189 L266,189 C264.695866,184.381329 260.488743,181 255.5,181" id="Fill-28" fill="#F2BC7B"></path>
                <path d="M269.5,179 C262.610807,179 256.801195,183.226669 255,189 L284,189 C282.198805,183.226669 276.389193,179 269.5,179" id="Fill-30" fill="#F2BC7B"></path>
                <path d="M276.5,186 C272.936571,186 269.931739,188.535822 269,192 L284,192 C283.068261,188.535822 280.063429,186 276.5,186" id="Fill-32" fill="#6F728A"></path>
                <path d="M297.5,186 C293.936571,186 290.931739,188.535822 290,192 L305,192 C304.068261,188.535822 301.063429,186 297.5,186" id="Fill-34" fill="#6F728A"></path>
                <path d="M288.5,183 C283.036253,183 278.428274,186.381345 277,191 L300,191 C298.571726,186.381345 293.963747,183 288.5,183" id="Fill-36" fill="#6F728A"></path>
                <path d="M275.623467,150.471891 C279.355694,151.19236 282.386338,152.794737 283.757789,153.611604 C283.773074,153.500108 283.787977,153.388224 283.803644,153.275953 C284.200291,150.399108 284.727243,147.161448 285.422331,143.677953 C283.93777,143.544776 280.411127,143.061624 276.824872,141.346202 C272.109052,139.090718 269.079555,135.559605 269.079555,135.559605 C269.079555,135.559605 273.696023,135.685039 278.411843,137.940522 C281.880403,139.599809 284.434917,141.947045 285.544229,143.073625 C286.131557,140.187489 286.835816,137.138753 287.678404,133.987425 C286.245049,133.457429 283.005,132.078433 280.012952,129.527173 C276.023171,126.124978 273.985674,121.926433 273.985674,121.926433 C273.985674,121.926433 278.41681,123.243874 282.40659,126.64607 C285.193819,129.022729 287.027261,131.786528 287.879403,133.23792 C288.737276,130.096271 289.735008,126.859384 290.892086,123.587268 C289.55923,122.844732 286.55801,120.979874 283.979804,117.989983 C280.549075,114.011335 279.167688,109.546824 279.167688,109.546824 C279.167688,109.546824 283.348532,111.533632 286.779261,115.512668 C289.143094,118.254014 290.534034,121.225321 291.170274,122.808728 C291.964714,120.607831 292.831759,118.392997 293.779432,116.182422 C292.816092,114.974542 290.74726,112.108537 289.48204,108.371077 C287.790367,103.373473 288.176697,98.711134 288.176697,98.711134 C288.176697,98.711134 291.306311,102.151656 292.997984,107.14926 C294.026285,110.185994 294.286513,113.096521 294.332751,114.914922 C295.015228,113.374101 295.736682,111.837151 296.500935,110.309879 C296.769952,108.512384 297.386704,105.651024 298.784521,102.761791 C301.07919,98.0173772 304.608508,95 304.608508,95 C304.608508,95 304.417062,99.674728 302.122394,104.418754 C300.739861,107.277017 298.909859,109.507336 297.672916,110.82981 C296.881533,112.408958 296.136769,113.998946 295.432892,115.593193 C296.927006,114.782133 299.854857,113.401588 303.3815,112.817779 C308.527977,111.966069 313,113.133686 313,113.133686 C313,113.133686 309.127533,115.682623 303.981056,116.534333 C300.072287,117.181633 296.555197,116.664025 295.088214,116.377154 C294.129459,118.59431 293.254773,120.816887 292.45269,123.026688 C293.983869,122.688327 297.390907,122.113035 301.200324,122.621352 C306.370492,123.312011 310.31862,125.738611 310.31862,125.738611 C310.31862,125.738611 305.884427,127.045599 300.714641,126.355327 C296.786383,125.830751 293.565441,124.304641 292.243666,123.601593 C291.043408,126.958105 290.015106,130.280163 289.133159,133.502338 C290.6502,133.02538 293.965909,132.166314 297.766537,132.330462 C302.976829,132.555778 307.120988,134.619627 307.120988,134.619627 C307.120988,134.619627 302.818246,136.318401 297.608337,136.093085 C293.684282,135.923518 290.365516,134.710992 288.965788,134.122925 C288.110207,137.304063 287.397159,140.382221 286.803717,143.293909 C288.323051,142.758105 291.579531,141.797996 295.345385,141.82316 C300.560262,141.857615 304.775497,143.768544 304.775497,143.768544 C304.775497,143.768544 300.535806,145.623336 295.320929,145.588881 C291.443494,145.562942 288.120524,144.50024 286.669973,143.956694 C285.985203,147.393345 285.465129,150.587646 285.072685,153.427712 C285.053197,153.569793 285.034091,153.710713 285.014984,153.852019 C286.029147,153.591086 289.921867,152.712276 294.360264,153.304989 C299.530432,153.995261 303.47856,156.421861 303.47856,156.421861 C303.47856,156.421861 299.044749,157.728849 293.874581,157.038577 C289.434656,156.445864 285.89846,154.574037 284.987089,154.056429 C283.423046,165.711698 283.591946,173.886568 283.593857,173.969416 L282.316409,174 C282.314498,173.917539 282.14598,165.832098 283.668753,154.276713 C282.113882,154.525644 278.689648,154.897687 274.927616,154.17141 C269.804831,153.182265 266,150.530736 266,150.530736 C266,150.530736 270.500683,149.482745 275.623467,150.471891" id="Fill-38" fill="#F6D2A6"></path>
                <path d="M67.3065753,118 C67.3065753,118 65.5901467,114.002326 67.4925152,109.055225 C69.3948837,104.107727 65.4795984,101.908134 63.4795724,103.523708 C61.4791557,105.139283 60.4994555,110.654929 67.3065753,118" id="Fill-40" fill="#ADB1CC"></path>
                <path d="M70.0581782,122 C70.0581782,122 71.1498616,118.002631 75.3504381,115.543964 C79.5506557,113.084918 78.0491425,109.049707 75.7017721,109.00051 C73.3547605,108.951693 69.4793205,112.398066 70.0581782,122" id="Fill-42" fill="#ADB1CC"></path>
                <path d="M70,122.412831 C70,122.412831 65.6271689,122.339674 61.7807487,125.490892 C57.9347264,128.64211 54.3731968,126.209877 55.093381,124.070615 C55.8131673,121.931353 60.5448968,119.336812 70,122.412831" id="Fill-44" fill="#ADB1CC"></path>
                <path d="M76,128.412831 C76,128.412831 71.6271435,128.339674 67.780701,131.490892 C63.9346564,134.64211 60.3735039,132.209877 61.0932944,130.070615 C61.8130849,127.931353 66.5448419,125.336812 76,128.412831" id="Fill-46" fill="#ADB1CC"></path>
                <path d="M79,135.412831 C79,135.412831 74.6271689,135.339674 70.7807487,138.490892 C66.9347264,141.64211 63.3731968,139.209877 64.093381,137.070615 C64.8131673,134.931353 69.5448968,132.336812 79,135.412831" id="Fill-48" fill="#ADB1CC"></path>
                <path d="M83,145.412831 C83,145.412831 78.6271689,145.339674 74.7807487,148.490892 C70.9347264,151.64211 67.3731968,149.209877 68.093381,147.070615 C68.8131673,144.931353 73.5448968,142.336812 83,145.412831" id="Fill-50" fill="#ADB1CC"></path>
                <path d="M76.0581782,128 C76.0581782,128 77.1498616,124.002631 81.3504381,121.543964 C85.5506557,119.084918 84.0491425,115.049707 81.7017721,115.00051 C79.3547605,114.951693 75.4793205,118.398066 76.0581782,128" id="Fill-52" fill="#ADB1CC"></path>
                <path d="M79.0581782,136 C79.0581782,136 80.1498616,132.002631 84.3504381,129.543964 C88.5506557,127.084918 87.0491425,123.049707 84.7017721,123.00051 C82.3547605,122.951693 78.4793205,126.398066 79.0581782,136" id="Fill-54" fill="#ADB1CC"></path>
                <path d="M83.0581782,144 C83.0581782,144 84.1498616,140.002631 88.3504381,137.543964 C92.5506557,135.084918 91.0491425,131.049707 88.7017721,131.00051 C86.3547605,130.951693 82.4793205,134.398066 83.0581782,144" id="Fill-56" fill="#ADB1CC"></path>
                <path d="M89.5181888,184.998064 C89.2930406,184.977069 89.1181832,184.788497 89.1205043,184.561371 C89.1220517,184.454488 89.2094804,173.709699 86.2972537,160.155798 C83.6148175,147.670345 77.764445,130.176662 65.1290641,117.740451 C64.9573015,117.571347 64.9569147,117.296887 65.1282904,117.127401 C65.2996661,116.957915 65.5778131,116.957534 65.7499626,117.126256 C78.5431794,129.717829 84.4546746,147.389013 87.1614825,159.996237 C90.0907307,173.639462 90.0009809,184.463649 89.9994335,184.571296 C89.9967255,184.810637 89.7978833,185.002645 89.5553267,185 C89.5425605,185 89.5305681,184.999209 89.5181888,184.998064" id="Fill-58" fill="#ADB1CC"></path>
                <path d="M48,145 C48,145 46.0202827,143.126236 46.0790306,139.958673 C46.1382104,136.79111 43.1973604,136.386355 42.3187339,137.711258 C41.4405395,139.036556 42.0859023,142.327356 48,145" id="Fill-60" fill="#ADB1CC"></path>
                <path d="M52.9277881,145 C52.9277881,145 52.7833514,142.693237 54.3114632,140.553844 C55.8392833,138.414801 54.5008359,136.617151 53.4174142,137.07059 C52.3339925,137.52403 51.1143042,140.11161 52.9277881,145" id="Fill-62" fill="#ADB1CC"></path>
                <path d="M51,145.000709 C51,145.000709 48.517716,145.920948 47.1209836,148.981365 C45.7238533,152.042205 43.1221905,151.13042 43.0048013,149.472976 C42.8870142,147.815532 44.91924,144.948293 51,145.000709" id="Fill-64" fill="#ADB1CC"></path>
                <path d="M57,148.000709 C57,148.000709 54.517716,148.920948 53.1209836,151.981365 C51.7238533,155.042205 49.1221905,154.13042 49.0048013,152.472976 C48.8870142,150.815532 50.91924,147.948293 57,148.000709" id="Fill-66" fill="#ADB1CC"></path>
                <path d="M60,153.000709 C60,153.000709 57.517716,153.920948 56.1209836,156.981365 C54.7238533,160.042205 52.1221905,159.13042 52.0048013,157.472976 C51.8870142,155.815532 53.91924,152.948293 60,153.000709" id="Fill-68" fill="#ADB1CC"></path>
                <path d="M64,157.000709 C64,157.000709 61.517716,157.920948 60.1209836,160.981365 C58.7238533,164.042205 56.1221905,163.13042 56.0048013,161.472976 C55.8870142,159.815532 57.91924,156.948293 64,157.000709" id="Fill-70" fill="#ADB1CC"></path>
                <path d="M56.9277881,149 C56.9277881,149 56.7833514,146.693237 58.3114632,144.553844 C59.8392833,142.414801 58.5008359,140.617151 57.4174142,141.07059 C56.3339925,141.52403 55.1143042,144.11161 56.9277881,149" id="Fill-72" fill="#ADB1CC"></path>
                <path d="M61.9277881,153 C61.9277881,153 61.7833514,150.693237 63.3114632,148.553844 C64.8392833,146.414801 63.5008359,144.617151 62.4174142,145.07059 C61.3339925,145.52403 60.1143042,148.11161 61.9277881,153" id="Fill-74" fill="#ADB1CC"></path>
                <path d="M64.9277881,157 C64.9277881,157 64.7833514,154.693237 66.3114632,152.553844 C67.8392833,150.414801 66.5008359,148.617151 65.4174142,149.07059 C64.3339925,149.52403 63.1143042,152.11161 64.9277881,157" id="Fill-76" fill="#ADB1CC"></path>
                <path d="M74.8062124,177.990989 C74.676302,178.026378 74.5398961,177.954823 74.4936633,177.823767 C74.4718842,177.762322 72.2714312,171.575467 67.8132117,164.406664 C63.7065146,157.802919 56.7884035,148.989888 47.1524902,144.50715 C47.0214336,144.446094 46.9637381,144.288594 47.0237261,144.155204 C47.0837141,144.021815 47.2384603,143.963093 47.369517,144.024148 C57.1257884,148.562886 64.1153503,157.464584 68.2606385,164.133274 C72.7471325,171.349911 74.9628691,177.582655 74.9846482,177.644877 C75.0331735,177.782933 74.9628691,177.934989 74.8272273,177.984378 C74.8203497,177.987101 74.81309,177.989045 74.8062124,177.990989" id="Fill-78" fill="#ADB1CC"></path>
                <path d="M56.5,46 C45.8098649,46 36.7947417,53.1856538 34,63 L79,63 C76.2052583,53.1856538 67.1901351,46 56.5,46" id="Fill-80" fill="#F7D5AC"></path>
                <path d="M118.5,46 C107.809865,46 98.7947417,53.1856538 96,63 L141,63 C138.205258,53.1856538 129.190135,46 118.5,46" id="Fill-82" fill="#F7D5AC"></path>
                <path d="M89,37 C73.3215101,37 60.0993156,47.5667991 56,62 L122,62 C117.900684,47.5667991 104.67849,37 89,37" id="Fill-84" fill="#F7D5AC"></path>
                <path d="M55.5,61 C51.9367204,61 48.9317006,63.5359161 48,67 L63,67 C62.0682994,63.5359161 59.0632796,61 55.5,61" id="Fill-86" fill="#F2BC7B"></path>
                <path d="M76.5,61 C72.9367204,61 69.9317006,63.5359161 69,67 L84,67 C83.0682994,63.5359161 80.0632796,61 76.5,61" id="Fill-88" fill="#F2BC7B"></path>
                <path d="M65.5,58 C60.0363672,58 55.4283661,61.381486 54,66 L77,66 C75.5716339,61.381486 70.9636328,58 65.5,58" id="Fill-90" fill="#F2BC7B"></path>
                <path d="M60.5,177 C53.6108093,177 47.8009725,181.226862 46,187 L75,187 C73.1990275,181.226862 67.3891907,177 60.5,177" id="Fill-92" fill="#ADB1CC"></path>
                <path d="M100.5,177 C93.6108093,177 87.8009725,181.226862 86,187 L115,187 C113.199027,181.226862 107.389191,177 100.5,177" id="Fill-94" fill="#ADB1CC"></path>
                <path d="M81.5,171 C71.7603892,171 63.5466216,177.76287 61,187 L102,187 C99.4533784,177.76287 91.2396108,171 81.5,171" id="Fill-96" fill="#ADB1CC"></path>
                <path d="M38,186 C34.6743578,186 31.869454,188.535841 31,192 L45,192 C44.130546,188.535841 41.3256422,186 38,186" id="Fill-98" fill="#6F728A"></path>
                <path d="M58,186 C54.6743578,186 51.869454,188.535841 51,192 L65,192 C64.130546,188.535841 61.3256422,186 58,186" id="Fill-100" fill="#6F728A"></path>
                <path d="M48.5,186 C43.9864739,186 40.1799657,188.958591 39,193 L58,193 C56.8200343,188.958591 53.0135261,186 48.5,186" id="Fill-102" fill="#6F728A"></path>
                <path d="M11.4998156,61 C6.03597376,61 1.42830107,64.804025 0,70 L23,70 C21.5713301,64.804025 16.9636574,61 11.4998156,61" id="Fill-104" fill="#8987A8"></path>
                <path d="M44.5,61 C39.0360706,61 34.428324,64.804025 33,70 L56,70 C54.571676,64.804025 49.9639294,61 44.5,61" id="Fill-106" fill="#8987A8"></path>
                <path d="M29,56 C20.9231771,56 14.1118771,61.4949212 12,69 L46,69 C43.8881229,61.4949212 37.0768229,56 29,56" id="Fill-108" fill="#8987A8"></path>
                <path d="M85,76 C81.6743939,76 78.8696235,78.5358625 78,82 L92,82 C91.1303765,78.5358625 88.3256061,76 85,76" id="Fill-110" fill="#FFFFFF"></path>
                <path d="M104,76 C100.674394,76 97.8696235,78.5358625 97,82 L111,82 C110.130376,78.5358625 107.325606,76 104,76" id="Fill-112" fill="#FFFFFF"></path>
                <path d="M95.5,75 C90.986469,75 87.1803019,77.9587591 86,82 L105,82 C103.819698,77.9587591 100.013531,75 95.5,75" id="Fill-114" fill="#FFFFFF"></path>
                <path d="M106,125 C101.248915,125 97.2421212,128.381596 96,133 L116,133 C114.757879,128.381596 110.751085,125 106,125" id="Fill-116" fill="#ADB1CC"></path>
                <path d="M134,125 C129.248915,125 125.242121,128.381596 124,133 L144,133 C142.757879,128.381596 138.751085,125 134,125" id="Fill-118" fill="#ADB1CC"></path>
                <path d="M120.5,120 C113.611111,120 107.801149,124.226631 106,130 L135,130 C133.198851,124.226631 127.388889,120 120.5,120" id="Fill-120" fill="#ADB1CC"></path>
                <polygon id="Fill-122" fill="#474A66" points="186 75 103.468154 81.2123897 103 196 185.531458 189.78761"></polygon>
                <polygon id="Fill-124" fill="#6274A5" points="186 74 115.465806 84.2566265 115 201 185.534194 190.742984"></polygon>
                <polygon id="Fill-126" fill="#2B2F44" points="183.469128 74 266 81.0037453 265.530872 198 183 190.996255"></polygon>
                <polygon id="Fill-128" fill="#435170" points="185.466689 75 256 85.7841499 255.533311 202 185 191.21585"></polygon>
                <polygon id="Fill-130" fill="#536687" points="185.473528 75 244 89.5141008 243.526864 205 185 190.485899"></polygon>
                <polygon id="Fill-132" fill="#809DD1" points="186 75 127.472181 89.0981757 127 205 185.527819 190.901824"></polygon>
                <path d="M231.438269,172 C229.140704,168.462755 226.301664,165.268067 223,162.504707 L223.431155,162 C226.783458,164.805956 229.666626,168.050041 232,171.64241 L231.438269,172 Z" id="Fill-134" fill="#474A66"></path>
                <path d="M226.687892,167 C225.762399,158.887156 225.630775,147.35162 227.170359,141 L228,141.143063 C226.493437,147.358967 226.633775,159.069271 227.530833,166.931562 L226.687892,167 Z" id="Fill-136" fill="#474A66"></path>
                <path d="M238,176.445654 L217.103467,166 L215.560895,168.133224 L184.966421,173.629026 C182.800455,173.852966 180.822748,174.955679 179.500267,176.67693 L155,207.861766 L157.586351,209 L184.69587,182.175435 L219.618783,184.478544 C224.950245,184.274295 229.952541,183.648807 234.982397,179.188535 L238,176.445654 Z" id="Fill-138" fill="#451E3B"></path>
                <polygon id="Fill-140" fill="#E18F4B" points="159.046587 212 162.039115 211.921642 165 211.074743 164.914298 209 161.969235 210.230993 159 210.871502"></polygon>
                <polygon id="Fill-142" fill="#E18F4B" points="166.632053 211 168 210.959021 167.929007 209 166 209.057852 166.051656 210.487285"></polygon>
                <polygon id="Fill-144" fill="#E18F4B" points="148 206.914357 150.373183 207.768313 153.085391 208 154 206.319034 151.118659 206.398947 148.497492 206"></polygon>
                <polygon id="Fill-146" fill="#E18F4B" points="154.347198 209.99326 155.911077 211 157 207.419836 154.794682 206 154 208.612422"></polygon>
                <path d="M237.018498,176 L215,166.63835 L216.786711,164.2022 C220.315525,158.426707 223.79699,154.136353 224.675868,147.450727 L226.785799,137.730808 C228.472727,132.235683 230.552919,129.32634 235.951401,130.132734 L244.298779,131.452042 C250.124178,132.322068 253.566904,138.358646 251.292623,143.715708 L244.545694,165.916413 L237.018498,176 Z" id="Fill-148" fill="#8DB1BF"></path>
                <polygon id="Fill-150" fill="#FFE1C3" points="239.205138 123.29748 235.883842 122 234 129.21204 235.481013 131 240 130.11433"></polygon>
                <path d="M241.98092,121.193143 C241.874049,121.735057 241.348771,122.087427 240.806857,121.98106 C240.264943,121.87419 239.912573,121.348408 240.01894,120.806998 C240.12581,120.265084 240.651592,119.91221 241.193002,120.01908 C241.734916,120.125951 242.08779,120.651229 241.98092,121.193143" id="Fill-152" fill="#FFE1C3"></path>
                <polygon id="Fill-154" fill="#451E3B" points="207.1738 176 183.304956 178.78118 165 209 167.741658 208.905576 188.378643 185.713473 218 184.133445"></polygon>
                <path d="M209,150 L206.018657,149.94373 C205.345359,149.901166 204.728639,149.668149 204.317492,149.300949 L203.028879,148.150534 C202.945596,148.076228 203.056289,147.973547 203.184904,148.006251 L205.582911,148.617048 C205.83241,148.680533 206.113185,148.643019 206.309271,148.519657 C206.748882,148.243356 207.360331,148.134182 207.941208,148.228446 L208.885792,148.381867 L209,150 Z" id="Fill-156" fill="#FFE1C3"></path>
                <path d="M212.27589,163 L209.657419,163.840448 C208.973701,164.057151 208.395368,164.611194 208.061954,165.369429 L207.01765,167.743773 C206.950086,167.897029 207.089621,168.062795 207.2141,167.976114 L209.535877,166.362686 C209.777492,166.194686 210.076389,166.205856 210.308824,166.391729 C210.830609,166.808155 211.488256,166.882325 212.064019,166.589665 L213,166.113813 L212.27589,163 Z" id="Fill-158" fill="#FFE1C3"></path>
                <path d="M234.552581,129 L234.037449,132.333318 C233.706196,134.476619 235.650109,135.891579 236.808818,134.350996 L240,130.107932 L236.997429,129.49705 L234.552581,129 Z" id="Fill-160" fill="#FFE1C3"></path>
                <path d="M215.743082,165 L215,162.314414 L239.086872,157.746336 L246.582508,137 L252,140.176152 L244.860079,161.988012 C244.294854,163.707882 243.250695,165.034683 241.490208,164.809246 L215.743082,165 Z" id="Fill-162" fill="#8DB1BF"></path>
                <polygon id="Fill-164" fill="#8DB1BF" points="210.119692 149.943476 210 147.473665 226 146 225.627299 152"></polygon>
                <polygon id="Fill-166" fill="#506166" points="224.087628 162 224 161.517331 236.953674 159.067687 242.546213 143 243 143.164347 237.314357 159.498898"></polygon>
                <path d="M236.236404,120 L235.664016,119.845872 C234.546733,119.545218 233.819278,118.063481 234.039213,116.536139 L234.404331,114 L237,114.698853 L236.236404,120 Z" id="Fill-168" fill="#E18F4B"></path>
                <path d="M243.836257,124 L241,123.203669 L241.718421,118 L244,118.6404 C243.68655,120.34188 243.641228,122.120909 243.825146,123.89285 L243.836257,124 Z" id="Fill-170" fill="#E18F4B"></path>
                <path d="M236.855277,125.246648 L240.182242,125.972877 C240.879348,126.125014 241.556196,125.621763 241.693452,124.848693 L243,117.49388 L236.154679,116 L235.043712,122.254243 C234.798537,123.635085 235.609498,124.974893 236.855277,125.246648" id="Fill-172" fill="#FFE1C3"></path>
                <path d="M244.838548,119 L238.659588,117.564898 C236.873702,117.150136 235.711081,115.106521 236.062712,113 L242.798094,114.564269 C244.276792,114.907737 245.239243,116.599916 244.948055,118.343678 L244.838548,119 Z" id="Fill-174" fill="#E18F4B"></path>
                <path d="M242.494583,119 C242.472658,119 242.450416,118.997118 242.428173,118.991353 C242.27025,118.94992 242.172065,118.771217 242.208606,118.592515 C242.567666,116.831429 242.456135,115.501968 241.876238,114.642322 C241.252808,113.717463 240.291608,113.665222 240.282076,113.664861 C240.12034,113.657656 239.993874,113.503452 240.000229,113.319706 C240.006267,113.13668 240.143218,112.995087 240.304636,113.000131 C240.355158,113.002292 241.553084,113.067504 242.34238,114.238079 C243.033491,115.263457 243.18061,116.778827 242.780242,118.742394 C242.748785,118.896237 242.628039,119 242.494583,119" id="Fill-176" fill="#000000"></path>
                <path d="M246,122 C246,123.656572 244.657055,125 243,125 C241.343428,125 240,123.656572 240,122 C240,120.343428 241.343428,119 243,119 C244.657055,119 246,120.343428 246,122" id="Fill-178" fill="#000000"></path>
                <path d="M243,121 C243,121.552232 242.552178,122 241.999879,122 C241.447581,122 241,121.552232 241,121 C241,120.447768 241.447581,120 241.999879,120 C242.552178,120 243,120.447768 243,121" id="Fill-180" fill="#451E3B"></path>
                <polygon id="Fill-182" fill="#451E3B" points="242.413976 211 245 211 242.63253 192 237 192"></polygon>
                <polygon id="Fill-184" fill="#451E3B" points="205.483927 211 208.34314 211 211 192 205 192"></polygon>
                <path d="M243,166 L243,194 L204,194 L204,175.96235 C204,170.460405 208.340571,166 213.695174,166 L243,166 Z" id="Fill-186" fill="#E18F4B"></path>
                <path d="M242,194 C242,194 258.329603,165.262842 262.945275,137.201025 C263.169341,135.83908 262.696357,134.454222 261.691363,133.508589 C257.787108,129.834793 253.461128,130.945864 250.930391,132.158294 C249.605026,132.792859 248.706822,134.070143 248.574402,135.534225 C248.006277,141.819289 245.60796,157.761076 242,166.542457 L242,194 Z" id="Fill-188" fill="#E18F4B"></path>
                <polygon id="Fill-190" fill="#A45F4A" points="105 179 100.19795 179 93 210 95.2274835 210"></polygon>
                <polygon id="Fill-192" fill="#A45F4A" points="107.676588 179 107 210 109.468917 210 113 179"></polygon>
                <polygon id="Fill-194" fill="#451E3B" points="99 212 96.5569423 212 93 211.211263 94.1134591 210 99 211.612197"></polygon>
                <polygon id="Fill-196" fill="#451E3B" points="94.4181049 212 93 212 93 210 95 210 94.147509 211.211263"></polygon>
                <polygon id="Fill-198" fill="#451E3B" points="113 212 110.556942 212 107 211.211263 108.113459 210 113 211.612197"></polygon>
                <polygon id="Fill-200" fill="#451E3B" points="108.418105 212 107 212 107 210 109 210 108.147509 211.211263"></polygon>
                <polygon id="Fill-202" fill="#A45F4A" points="112.608418 179 113 165 106 165 107.602584 179"></polygon>
                <polygon id="Fill-204" fill="#A45F4A" points="104.547419 179 105 165 99 165 100.107588 179"></polygon>
                <path d="M107.933817,107 L105.156609,107 C104.517784,107 104,106.476458 104,105.83053 L104,100 L110,100 L110,104.910843 C110,106.064567 109.074854,107 107.933817,107" id="Fill-206" fill="#A45F4A"></path>
                <polygon id="Fill-208" fill="#A45F4A" points="107.235796 106 103.795142 106.638884 102 112 108 112"></polygon>
                <path d="M108.519649,101 L103,101 L103,95 L108.519649,95 C109.889288,95 111,96.3434132 111,98 C111,99.6570693 109.889288,101 108.519649,101" id="Fill-210" fill="#2D334A"></path>
                <path d="M103.777042,106 L101,106 L101,100 L107,100 L107,102.777042 C107,104.556877 105.556877,106 103.777042,106" id="Fill-212" fill="#DBA98B"></path>
                <path d="M106,103 C106,103.552333 105.552333,104 105,104 C104.447667,104 104,103.552333 104,103 C104,102.447667 104.447667,102 105,102 C105.552333,102 106,102.447667 106,103" id="Fill-214" fill="#FFE1C3"></path>
                <path d="M113.675675,176 L106.79523,176 L104.414202,170.006922 L102.504345,176 L99.8708237,176 L95.3274454,146.949796 C95,144.857995 94.9178951,142.732283 95.082091,140.619584 L97.015995,115.736421 C97.1039168,114.606336 97.5442773,113.538157 98.2690687,112.697099 C99.2005138,111.616302 100.524225,111 101.912563,111 L110.508987,111 C111.514076,111 112.496621,111.31584 113.329248,111.906907 C114.66611,112.855611 115.488592,114.419434 115.54082,116.11259 L116.043176,132.412864 L118,143.192835 L113.675675,176 Z" id="Fill-216" fill="#FCD18D"></path>
                <path d="M97,119 C100.313673,119 103,116.711472 103,113.888497 L103,96 C99.6863271,96 97,98.288528 97,101.111894 L97,119 Z" id="Fill-218" fill="#2D334A"></path>
                <path d="M129.552513,116 L129.933023,113.935738 C130.054905,113.274246 130.009076,112.556187 129.806682,111.954638 L129.172993,110.07063 C129.13187,109.948632 129.02287,109.994223 129.019649,110.134373 L128.957965,112.756281 C128.951524,113.029405 128.855901,113.272979 128.710484,113.386957 C128.383979,113.643196 128.153344,114.158628 128.095128,114.762709 L128,115.744606 L129.552513,116 Z" id="Fill-220" fill="#A45F4A"></path>
                <path d="M130,115.955751 L124.075845,130.685538 C123.04611,133.245173 119.327238,133.818974 117.417691,131.71318 L107,120.226391 L113.721819,114 L121.271698,126.536344 L127.42587,115.731059 L130,115.955751 Z" id="Fill-222" fill="#FCD18D"></path>
                <path d="M111,112 C106.098294,107.557284 105.523216,106.016397 105.518167,106 L105.259313,106.071894 L105,106.140425 C105.020653,106.206012 105.530559,107.684675 110.233994,112 L111,112 Z" id="Fill-224" fill="#451E3B"></path>
                <polygon id="Fill-226" fill="#FFFFFF" points="172 98 144 104.93324 144 161 172 154.06676"></polygon>
                <polygon id="Fill-228" fill="#FFFFFF" points="179 160 138.206274 170.62721 138 175 178.793726 164.37279"></polygon>
                <polygon id="Fill-230" fill="#FFFFFF" points="179 168 138.222766 178.577354 138 183 178.776853 172.422646"></polygon>
                <path d="M105.402028,102 C105.247582,102 105.113119,101.86371 105.092459,101.67621 C105.050122,101.291129 104.706344,97.8770161 105.688227,96.5447581 C105.950717,96.1883065 106.296188,96 106.687383,96 C106.859779,96 107,96.1669355 107,96.3721774 C107,96.5778226 106.859779,96.7443548 106.687383,96.7443548 C106.472649,96.7443548 106.304655,96.8370968 106.158338,97.0354839 C105.482976,97.9520161 105.607278,100.62621 105.712274,101.579435 C105.734967,101.783065 105.614391,101.970161 105.44301,101.996774 C105.429462,101.999194 105.415576,102 105.402028,102" id="Fill-232" fill="#FBBC58"></path>
                <path d="M108,104 C108,105.656884 106.656884,107 105,107 C103.343116,107 102,105.656884 102,104 C102,102.343116 103.343116,101 105,101 C106.656884,101 108,102.343116 108,104" id="Fill-234" fill="#FBBC58"></path>
                <path d="M106,103.5 C106,104.328449 105.328384,105 104.499854,105 C103.671616,105 103,104.328449 103,103.5 C103,102.671551 103.671616,102 104.499854,102 C105.328384,102 106,102.671551 106,103.5" id="Fill-236" fill="#FFFFFF"></path>
                <path d="M188.188189,84.9913153 L188.188189,84.9913153 C187.089129,85.0853332 186.114452,84.4052581 186.011285,83.4723956 L185,74.3409521 L188.979413,74 L189.991114,83.1318093 C190.094281,84.0646718 189.28725,84.8972974 188.188189,84.9913153" id="Fill-238" fill="#FBBC58"></path>
                <path d="M204.383522,94.7226279 C201.392872,95.0090026 196.883909,101.216494 194.067331,109.063394 C191.880238,115.156876 190.763509,122.20185 192.650396,127.065583 C193.620953,126.377665 194.630411,125.564144 195.671303,124.627726 C201.923338,119.004192 205.07195,113.306068 206.612659,109.516337 C208.481079,104.920042 209.014689,100.483359 208.040203,97.6478241 C207.440972,95.9048415 206.327779,94.8938343 204.821255,94.7249467 C204.679405,94.7087149 204.533232,94.7083284 204.383522,94.7226279 M241.413991,132.817812 C239.501955,133.000999 236.841765,132.497427 233.456998,131.307871 C225.365621,128.463833 219.369388,130.300342 213.570804,132.076561 C207.95297,133.797515 202.645951,135.422237 196.400596,131.952504 C194.567148,130.933381 193.307389,129.39716 192.509332,127.525096 C188.594884,130.206429 185.281239,130.859178 182.9743,129.341508 C181.154605,128.144609 180.100745,125.6511 180.006833,122.321269 C179.913707,119.013467 180.775027,115.157649 182.432439,111.463376 C188.150864,98.7175748 187.236498,84.1665688 187.226282,84.0208694 L187.535131,84 C187.544954,84.1460859 188.465215,98.7647243 182.716926,111.577385 C181.07641,115.233011 180.224128,119.045157 180.316075,122.311221 C180.407237,125.54598 181.413944,127.956784 183.151515,129.099578 C185.357862,130.550775 188.570522,129.885659 192.394201,127.244519 C190.439728,122.298467 191.557243,115.147988 193.774592,108.970254 C195.199778,105.000042 197.098846,101.310406 199.122477,98.5807642 C201.236876,95.727838 203.27308,94.2542254 204.859763,94.4327749 C206.493992,94.6163484 207.695203,95.6961474 208.33412,97.5550712 C209.330218,100.452442 208.794643,104.963327 206.901076,109.620684 C205.348971,113.439014 202.177569,119.178876 195.883097,124.840671 C194.80959,125.806075 193.767912,126.642784 192.764348,127.348093 C193.538436,129.192331 194.765974,130.702658 196.558164,131.698206 C202.684852,135.102626 207.927429,133.496841 213.477677,131.796756 C219.054252,130.088942 225.374658,128.153111 233.566235,131.031931 C238.893687,132.904381 242.355077,133.065539 243.852956,131.510381 C245.845152,129.442377 243.626231,124.938448 243.603834,124.893231 L243.883213,124.765309 C243.979482,124.957385 246.213727,129.493005 244.08086,131.707868 C243.476129,132.335496 242.585339,132.705349 241.413991,132.817812" id="Fill-240" fill="#000000"></path>
                <path d="M224.029798,130.999212 C224.027373,130.999606 224.02564,130.999606 224.024254,131 L224,130.70166 C224,130.701266 224,130.701266 224.000346,130.701266 C224.04539,130.696537 226.75181,130.37455 228.648834,127.863294 C231.753023,123.754323 233.48789,123.354303 234,123 L233.94768,123.308193 C233.478189,123.632938 231.934237,123.981723 228.85846,128.053648 C226.904958,130.639391 224.208932,130.979506 224.029798,130.999212" id="Fill-242" fill="#000000"></path>
                <path d="M188,83 C188,82.4476395 188.447639,82 189,82 C189.552361,82 190,82.4476395 190,83 C190,83.5523605 189.552361,84 189,84 C188.447639,84 188,83.5523605 188,83" id="Fill-244" fill="#555A6C"></path>
                <path d="M173.038682,61.7964887 L173.184067,61.9641069 C173.230571,62.0174697 173.30106,62.0105948 173.3412,61.9483927 L174.972984,59.4134949 C175.013124,59.3512929 175.007984,59.257335 174.961236,59.2036448 L174.815851,59.0360266 C174.769347,58.9823364 174.699103,58.9895388 174.658963,59.0517408 L173.026934,61.5866386 C172.986794,61.6488406 172.992179,61.7427985 173.038682,61.7964887" id="Fill-246" fill="#451E3B"></path>
                <path d="M172.349523,63 C172.349523,63 173.308463,62.4766518 173.74595,61.8355271 C173.921211,61.5789535 174.038163,61.2923949 173.988517,60.9922348 L173.833914,60.0518773 C173.823918,59.9912888 173.734288,59.9804694 173.707965,60.0370393 L173.215501,61.0911547 C173.164189,61.200894 173.050902,61.2747748 172.922288,61.2821938 C172.63374,61.2988865 172.372847,61.4475755 172.22624,61.6784917 L172,62.0349125 L172.349523,63 Z" id="Fill-248" fill="#FFD6BB"></path>
                <path d="M146,68.6580477 L142.543271,68.9799834 C139.943286,69.2226547 137.794352,67.2260026 138.015705,64.7728683 L139.123919,52.4832142 C139.226975,51.3389601 140.19766,50.4117689 141.410745,50.2987661 L144.614188,50 L146,68.6580477 Z" id="Fill-250" fill="#11141C"></path>
                <path d="M142,74.4520216 L142.112368,75.160242 C143.501829,77.6945713 145.581439,79.8383131 148.140007,81.3729778 L155.977094,85.2208633 L153.385851,100.942385 L155.15306,101 L161.709069,85.3529298 C162.128259,84.3528911 161.837775,83.2136775 160.981864,82.5005934 L155.779852,78.16597 L155.973906,78.0750574 L168.228021,79.4918724 L173.367074,93.2862709 L175,93.6704982 L172.494826,77.1692984 C172.381262,76.4217948 171.797904,75.8123436 171.0181,75.6267771 L155.765906,72 L142,74.4520216 Z" id="Fill-252" fill="#451E3B"></path>
                <polygon id="Fill-254" fill="#DBA98B" points="157.734358 105 156.776894 104.449108 156 103.655572 156.4882 103 157.174533 103.915099 158 104.643512"></polygon>
                <polygon id="Fill-256" fill="#DBA98B" points="154.857838 103 154 102.365103 154.790079 101 156 101.895161 155.423245 102.891496"></polygon>
                <polygon id="Fill-258" fill="#DBA98B" points="176.871142 97 175.891676 96.632307 175 95.9228023 175.236813 95 176.084717 95.8802618 177 96.4981407"></polygon>
                <polygon id="Fill-260" fill="#DBA98B" points="174.082631 97 173 96.6383963 173.472845 95 175 95.5096376 174.654777 96.7054742"></polygon>
                <path d="M157.936449,55.8131578 L157.313993,64.5347784 L157.748089,70.7064829 C157.80018,71.4470564 157.675991,72.1895696 157.386091,72.8700128 L143.076788,77 L142.674777,75.9327827 C142.398844,75.2011318 142.23049,74.4314629 142.175379,73.6489921 L141.843956,68.9502879 L141.742415,67.386898 L141.010115,56.0397135 C140.888568,54.167525 141.871889,52.44896 143.450865,51.4399334 C143.943092,51.1187208 144.496847,50.8696647 145.087972,50.7102222 C145.437891,50.6182809 145.799511,50.5511676 146.174343,50.5193567 L151.997265,50.0212444 C152.236961,50.0006837 152.468353,49.9964164 152.700122,50.0026234 C154.228139,50.042581 155.58667,50.6609541 156.545078,51.6183849 C156.555647,51.6230401 156.561309,51.6327386 156.566594,51.6373938 C156.993895,52.0664532 157.335887,52.5595223 157.581245,53.1022475 C157.94966,53.924288 158.094988,54.8479682 157.936449,55.8131578" id="Fill-262" fill="#674E50"></path>
                <path d="M150.883626,57.6141046 L150.077912,61.6406498 C149.40396,65.0324881 146.875881,67.7139461 143.639395,68.4659271 L142.925308,68.6283677 L141.324482,69 L141,67.459588 L142.823836,67.0312995 L143.309612,66.9203645 C145.971346,66.3030903 148.047725,64.1045959 148.603547,61.31458 L149.404338,57.2939778 C149.72882,55.6596672 149.091973,53.9984152 147.775494,53.0622029 L144.537493,50.7452456 C145.03122,50.4167987 145.586663,50.1624406 146.179211,50 L148.630808,51.7567353 C150.450479,53.0562599 151.334947,55.3561807 150.883626,57.6141046" id="Fill-264" fill="#11141C"></path>
                <path d="M173,63.6547001 L161.6935,67.8947696 C160.876995,68.200846 159.963837,67.8181492 159.607552,67.0203237 L154,54.4618693 L158.794283,53 L163.009046,63.9518576 L172.534928,62.382963 L173,63.6547001 Z" id="Fill-266" fill="#674E50"></path>
                <path d="M152.966612,51.9891394 C152.527093,52.0251681 152.084863,51.9713475 151.667478,51.8307911 L148,50.443909 L153.896694,50 L153.996071,50.7917415 C154.047567,51.4020052 153.586817,51.9384324 152.966612,51.9891394" id="Fill-268" fill="#FFD6BB"></path>
                <polygon id="Fill-270" fill="#FFD6BB" points="151.626293 45 149.241094 45.1898345 148 51 154 50.5610078"></polygon>
                <polygon id="Fill-272" fill="#674E50" points="151 77.1174313 145.550839 68.3654798 146.3793 58.0248293 141.839092 58 141 70.3108177 150.238743 78"></polygon>
                <path d="M151.478681,77 C151.478681,77 152.272265,77.1991635 152.674549,77.6218826 C152.835462,77.7909703 152.960086,77.9903706 152.969636,78.2229253 L152.999956,78.9509022 C153.001866,78.9980289 152.940509,79.0183952 152.913531,78.9795571 L152.411214,78.2534748 C152.358929,78.17793 152.268446,78.1379079 152.176768,78.1497487 C151.971448,78.1765091 151.766129,78.1002539 151.628851,77.9465594 L151,77.5555738 L151.478681,77 Z" id="Fill-274" fill="#FFD6BB"></path>
                <polygon id="Fill-276" fill="#451E3B" points="154.380952 54 154 46.0168366 154.619048 46 155 53.9827893"></polygon>
                <path d="M152.310636,47.9518807 L149.274926,47.298459 C148.386823,47.1071371 147.835979,46.2913183 148.043873,45.4758481 L149.441089,40 L156,41.4120878 L154.675243,46.6042638 C154.427515,47.5762068 153.368697,48.1797942 152.310636,47.9518807" id="Fill-278" fill="#FFD6BB"></path>
                <path d="M148,38.4477103 L153.445405,39.9431669 C154.427748,40.2125348 155.410811,39.4985831 155.640721,38.3476472 L156,36.5520016 L150.554234,35.0569672 C149.572252,34.787177 148.589189,35.501551 148.359279,36.6520646 L148,38.4477103 Z" id="Fill-280" fill="#451E3B"></path>
                <polygon id="Fill-282" fill="#451E3B" points="150 40.3790298 148.574615 40 148.390866 40.8894245 148.337759 41.1464296 148 42.7812594 148.822092 43 149.159586 41.3651702 149.763144 41.5254595"></polygon>
                <path d="M150.973371,41.2281807 C150.847271,41.7656062 150.309245,42.0994706 149.771819,41.9733707 C149.234394,41.8472709 148.900529,41.3092449 149.026629,40.7718193 C149.152729,40.2343938 149.690755,39.9005294 150.228181,40.0266293 C150.765606,40.1527291 151.099471,40.6907551 150.973371,41.2281807" id="Fill-284" fill="#FFD6BB"></path>
                <path d="M150,41.8857091 L150.628037,41.9863904 C151.030533,42.0509611 151.433029,41.8795886 151.527078,41.6032505 L152,40.2181939 L150.643637,40 L150,41.8857091 Z" id="Fill-286" fill="#451E3B"></path>
                <path d="M154.751752,69 C153.655521,69 152.605781,68.8351603 151.638082,68.4576498 C150.216029,67.9030453 149.388582,67.2069238 149.108469,66.3293601 C148.643958,64.8730786 149.744486,63.1673635 151.018864,61.1920545 C152.415523,59.0266067 153.998923,56.5721953 153.998923,53.8169614 C153.998923,52.0306053 153.058181,50.4612683 152.22839,49.076536 C151.906865,48.5405105 151.603312,48.0337372 151.379065,47.5538443 C150.083981,44.7851702 149.559306,43.1703739 149.554228,43.1545619 L150.023036,43 C150.028115,43.015812 150.544586,44.603728 151.824433,47.3407781 C152.038132,47.7973485 152.335044,48.2930534 152.649927,48.8180104 C153.513316,50.2584799 154.491563,51.89146 154.491563,53.8169614 C154.491563,56.7204324 152.865969,59.2408587 151.431415,61.4648108 C150.226187,63.3329938 149.185432,64.9466042 149.577668,66.1759841 C149.808947,66.9013577 150.54107,67.4954921 151.815448,67.9927782 C159.019863,70.8001916 171.569477,60.9181123 171.695274,60.818497 L172,61.2102382 C171.544474,61.5723321 162.110874,69 154.751752,69" id="Fill-288" fill="#451E3B"></path>
                <path d="M150.450476,39 C150.417186,39 150.382945,38.9977067 150.349179,38.9921374 C150.107114,38.9534795 149.955882,38.7873819 150.011524,38.6203013 C150.0334,38.5551072 150.565089,37.0120695 152.167763,36.3240909 C152.904423,36.0079483 153.740477,35.9230976 154.652622,36.0695388 C154.894688,36.1085243 155.044968,36.2752772 154.9879,36.4420301 C154.931307,36.608783 154.688766,36.7119798 154.447175,36.6729943 C153.767109,36.5639006 153.177401,36.6212321 152.64381,36.8505583 C151.354537,37.4035621 150.893233,38.7461031 150.888477,38.7595351 C150.840444,38.9030278 150.655447,39 150.450476,39" id="Fill-290" fill="#E18F4B"></path>
                <path d="M153,41 C153,42.6568489 151.656944,44 150.000211,44 C148.343479,44 147,42.6568489 147,41 C147,39.3431511 148.343479,38 150.000211,38 C151.656944,38 153,39.3431511 153,41" id="Fill-292" fill="#E18F4B"></path>
                <path d="M151,41.5 C151,42.3283775 150.328378,43 149.5,43 C148.671622,43 148,42.3283775 148,41.5 C148,40.6716225 148.671622,40 149.5,40 C150.328378,40 151,40.6716225 151,41.5" id="Fill-294" fill="#FFFFFF"></path>
            </g>
        </g>
    </g>
</svg>