<svg width="24" height="25" viewBox="0 0 24 25" fill="none" xmlns="http://www.w3.org/2000/svg">
    <path fill-rule="evenodd" clip-rule="evenodd" d="m12 4.49 1.3 2.954a6.35 6.35 0 0 0-2.6 0L12 4.49zm-1.987 3.139L7.391 5.706l.356 3.247a6.347 6.347 0 0 1 2.266-1.324zM7.297 9.405l-3.235-.354 1.922 2.622a6.32 6.32 0 0 1 1.313-2.268zm-1.49 2.934-2.506 1.103a17.835 17.835 0 0 1 2.376-.002c.012-.376.056-.744.13-1.1zm11.654 1.183c-2.334.289-4.285 1.094-5.461 2.348-1.177-1.254-3.127-2.059-5.462-2.348a5.463 5.463 0 0 1 10.923 0zm.861-.082a17.833 17.833 0 0 1 2.376.002l-2.506-1.102c.075.356.119.724.13 1.1zm-.307-1.767 1.922-2.622-3.235.354a6.32 6.32 0 0 1 1.313 2.268zm-1.407-5.967-.356 3.247a6.32 6.32 0 0 0-2.266-1.325l2.622-1.922zM12 17.111c-2.02-2.152-6.317-2.98-10.926-2.152l1.047.656c3.453-.531 6.972-.275 9.879 1.496zm-.402 1.246H0v.649h11.164a.903.903 0 0 0 1.671 0H24v-.649H12.402c2.765-1.305 5.622-1.647 10.579-.695l.921-.531c-5.05-1.25-10.016-.455-11.898 1.226h-.008c-1.882-1.68-6.847-2.475-11.898-1.226l.922.53c4.956-.951 7.813-.61 10.578.696zm11.328-3.398c-4.61-.828-8.906 0-10.926 2.152 2.906-1.77 6.426-2.027 9.879-1.496l1.047-.656z" fill="#2A3042"/>
</svg>
