<?xml version="1.0" encoding="UTF-8"?>
<svg width="312px" height="312px" viewBox="0 0 312 312" version="1.1" xmlns="http://www.w3.org/2000/svg" xmlns:xlink="http://www.w3.org/1999/xlink">
    <!-- Generator: sketchtool 54.1 (76490) - https://sketchapp.com -->
    <title>D5F12280-2F7D-4D33-992E-44CE55CCEBC2</title>
    <desc>Created with sketchtool.</desc>
    <g id="Symbols" stroke="none" stroke-width="1" fill="none" fill-rule="evenodd">
        <g id="ic_update_1">
            <g id="Group-2" transform="translate(26.000000, 21.000000)">
                <g id="Group" transform="translate(118.300000, 138.912281)"></g>
                <g id="C" transform="translate(0.000000, 217.315789)" stroke="#000000" stroke-linecap="round" stroke-linejoin="round" stroke-width="4">
                    <path d="M108.55,0.789473684 L108.55,40.2417525" id="Path-3"></path>
                    <path d="M154.05,0.789473684 L154.05,40.2417525" id="Path-3"></path>
                    <path d="M130.65,11.1754386 L130.65,40.4464842" id="Path-3"></path>
                    <path d="M0.641106324,57.2631579 L130.65,57.2631579" id="Path-5"></path>
                    <path d="M129.341106,57.2631579 L259.35,57.2631579" id="Path-5" transform="translate(194.350000, 57.263158) rotate(-180.000000) translate(-194.350000, -57.263158) "></path>
                    <path d="M239.742447,37.9509902 C234.862467,32.6857719 227.627076,29.3508772 219.551445,29.3508772 C204.855701,29.3508772 192.942447,40.39452 192.942447,54.0175439" id="Shape" transform="translate(215.800000, 54.017544) scale(-1, 1) translate(-215.800000, -54.017544) "></path>
                    <path d="M201.105215,17.9043504 C196.575338,12.6391321 188.117444,8.24545349 180.621179,8.24545349 C166.979746,8.24545349 154.305066,18.4978287 154.305066,35.4076445" id="Shape" transform="translate(177.705140, 21.826549) scale(-1, 1) rotate(14.000000) translate(-177.705140, -21.826549) "></path>
                    <path d="M107.895071,17.9043504 C103.365194,12.6391321 94.9073,8.24545349 87.4110356,8.24545349 C73.7696023,8.24545349 61.0949221,18.4978287 61.0949221,35.4076445" id="Shape" transform="translate(84.494997, 21.826549) rotate(14.000000) translate(-84.494997, -21.826549) "></path>
                    <path d="M66.8424469,37.9509902 C61.9624674,32.6857719 54.7270763,29.3508772 46.6514453,29.3508772 C31.9557013,29.3508772 20.0424469,40.39452 20.0424469,54.0175439" id="Shape"></path>
                </g>
                <polyline id="Path-2" stroke="#000000" stroke-width="4" fill="#FFFFFF" stroke-linecap="round" stroke-linejoin="round" points="173.358119 118.982377 222.3 154.135901 218.513135 170.327077 160.410515 170.327077"></polyline>
                <polyline id="Path-2" stroke="#000000" stroke-width="4" fill="#FFFFFF" stroke-linecap="round" stroke-linejoin="round" transform="translate(69.973913, 144.654727) scale(-1, 1) translate(-69.973913, -144.654727) " points="52.0059446 118.982377 100.947826 154.135901 97.1609608 170.327077 39 170.327077"></polyline>
                <path d="M132.230091,2.37415672 C131.464545,1.8693953 130.471702,1.86997353 129.706746,2.37562095 C100.120686,21.9327175 85.3929687,48.7332471 85.3929687,82.9790128 C85.3929687,117.617334 92.5083775,151.307201 106.745229,184.06476 C107.108679,184.901024 107.933622,185.441979 108.845451,185.441979 L131.073172,185.441977 L153.56219,185.441977 C154.479161,185.441977 155.307719,184.894981 155.668013,184.051759 C169.662767,151.298881 176.657374,117.613135 176.657374,82.9790128 C176.657374,48.7328419 161.892294,21.931864 132.230091,2.37415672 Z" id="Rectangle" stroke="#000000" stroke-width="4" fill="#FFFFFF"></path>
                <path d="M107.098429,24.6809506 C112.042036,32.494938 120.782914,37.6866025 130.741294,37.6866025 L130.741294,37.6866025 C140.999866,37.6866025 149.966429,32.1772174 154.820807,23.96722" id="Path" stroke="#000000" stroke-width="4"></path>
                <ellipse id="Oval" stroke="#000000" stroke-width="2" fill="#FFFFFF" cx="23.4" cy="193.438596" rx="3.9" ry="3.89473684"></ellipse>
                <path d="M230.2,194.22807 L226.3,194.22807 L230.2,194.22807 L230.2,190.333333 L230.2,194.22807 Z M230.2,194.22807 L234.1,194.22807 L230.2,194.22807 L230.2,198.122807 L230.2,194.22807 Z" id="Combined-Shape" stroke="#000000" stroke-width="2" stroke-linecap="round" stroke-linejoin="round"></path>
                <path d="M46.8,219.403509 L42.9,219.403509 L46.8,219.403509 L46.8,215.508772 L46.8,219.403509 Z M46.8,219.403509 L50.7,219.403509 L46.8,219.403509 L46.8,223.298246 L46.8,219.403509 Z" id="Combined-Shape" stroke="#000000" stroke-width="2" stroke-linecap="round" stroke-linejoin="round"></path>
                <path d="M246.015433,224.911498 L242.115433,224.911498 L246.015433,224.911498 L246.015433,221.016762 L246.015433,224.911498 Z M246.015433,224.911498 L249.915433,224.911498 L246.015433,224.911498 L246.015433,228.806235 L246.015433,224.911498 Z" id="Combined-Shape" stroke="#000000" stroke-width="2" stroke-linecap="round" stroke-linejoin="round" transform="translate(246.015433, 224.911498) rotate(-315.000000) translate(-246.015433, -224.911498) "></path>
                <path d="M128.416622,118.951816 C123.992821,118.951816 120.406622,122.538015 120.406622,126.961816 L120.406622,192.516316 C120.406622,196.940117 123.992821,200.526316 128.416622,200.526316 L132.741153,200.526316 C137.164954,200.526316 140.751153,196.940117 140.751153,192.516316 L140.751153,126.961816 C140.751153,122.538015 137.164954,118.951816 132.741153,118.951816 L128.416622,118.951816 Z" id="Rectangle" stroke="#000000" stroke-width="4" fill="#FFFFFF"></path>
                <ellipse id="Oval" stroke="#000000" stroke-width="2" fill="#FFFFFF" cx="208" cy="210.315789" rx="3.9" ry="3.89473684"></ellipse>
                <path d="M113.1,68.6348277 C113.241111,68.0249975 113.384009,67.416046 113.521548,66.8053371 C115.295264,58.9531145 122.460684,53.2669314 130.631746,53.2282678 C138.79477,53.1896042 146.03789,58.8283366 147.855369,66.6612274 C148.03667,67.4432863 148.177781,68.2534641 148.182247,69.0522186 C148.209933,74.7788228 148.19743,80.5054269 148.195644,86.2320311 C148.195644,86.4051385 148.173316,86.5791247 148.155454,86.8348315 L141.449092,86.8348315 L141.449092,85.6942558 C141.449092,80.5994498 141.451771,75.5055224 141.448199,70.4115951 C141.444626,64.9600297 137.505119,60.5392002 132.133957,59.9504593 C126.543089,59.3379929 121.550605,62.6577889 120.272565,67.8949472 C120.042143,68.8395689 119.965335,69.8395498 119.959083,70.8140479 C119.928718,75.7331104 119.945687,80.6512941 119.945687,85.5703566 L119.945687,86.9824561 L113.1,86.9824561 L113.1,68.6348277" id="Fill-3" fill="#000000"></path>
            </g>
        </g>
    </g>
</svg>