<svg width="24" height="24" viewBox="0 0 24 24" fill="none" xmlns="http://www.w3.org/2000/svg">
    <g clip-path="url(#ki7hwrgt3a)">
        <path fill-rule="evenodd" clip-rule="evenodd" d="M21.988 3.413c.874 2.17 1.5 4.404 1.792 6.73.249 1.976.143 3.916-.52 5.813C21.528 20.906 16.914 24.004 12 24c-4.916.005-9.53-3.092-11.26-8.043C.078 14.06-.029 12.12.22 10.143c.293-2.326.919-4.56 1.794-6.73.154-.383.153-.764-.189-1.086l-.002-.003a.342.342 0 0 1-.085-.37c.198-.524.473-1.213.7-1.748a.341.341 0 0 1 .44-.183l3.787 1.52a.342.342 0 0 1 .175.476l-.18.338a26.477 26.477 0 0 0-.762 1.514C4.753 6.406 3.909 9.03 3.84 11.838c-.086 3.475 1.88 6.468 5.066 7.815a7.72 7.72 0 0 0 3.094.606 7.728 7.728 0 0 0 3.094-.606c3.186-1.347 5.15-4.34 5.066-7.815-.068-2.808-.914-5.432-2.058-7.967-.227-.503-.489-.998-.751-1.494l-.19-.358a.342.342 0 0 1 .175-.476l1.044-.419L21.123.023a.341.341 0 0 1 .44.183c.226.535.502 1.224.7 1.748a.34.34 0 0 1-.086.37l-.002.003c-.34.322-.342.703-.188 1.086zm-.157 3.07a.751.751 0 1 0-1.502 0 .751.751 0 0 0 1.502 0zm.225 6.501a.75.75 0 1 1 0-1.501.75.75 0 0 1 0 1.501zm-1.626 5.341a.752.752 0 1 1 0-1.503.752.752 0 0 1 0 1.503zm-16.86 0a.752.752 0 1 1 0-1.503.752.752 0 0 1 0 1.503zm-2.377-6.091a.752.752 0 1 0 1.503-.003.752.752 0 0 0-1.503.002zM2.92 5.731a.751.751 0 1 1 0 1.502.751.751 0 0 1 0-1.502z" fill="#3E4D68"/>
    </g>
    <defs>
        <clipPath id="ki7hwrgt3a">
            <path fill="#fff" transform="translate(0 -.001)" d="M0 0h24v24H0z"/>
        </clipPath>
    </defs>
</svg>
