<svg width="24" height="24" viewBox="0 0 24 24" fill="none" xmlns="http://www.w3.org/2000/svg">
    <g clip-path="url(#0t7tjpvsha)">
        <path fill-rule="evenodd" clip-rule="evenodd" d="M20.957 23.132V3.965l-16.35.002v19.165h16.35zM4.527.866c-.822 0-1.342.357-1.342 1.18S3.705 3.1 4.528 3.1H20.09a27.792 27.792 0 0 0-.05-.061c-.302-.366-.464-.562-.464-1.099 0-.476.127-.624.367-.9l.147-.174H4.528zM21.832.53a.47.47 0 0 1-.286.435c-.084.035-.179.062-.277.09-.386.114-.824.241-.824.884 0 .675.429.912 1.044 1.096.202.06.343.455.343.455v20.075c0 .24-.195.433-.434.433H4.527A2.359 2.359 0 0 1 2.17 21.64V2.358c0-1.3 1.058-2.359 2.359-2.359l16.829.002c.261 0 .474.212.474.474V.53zm-4.008 11.134c.095.09.172.165.215.214.226.26.327.512.184.719-.078.114-.22.168-.335.211-.085.033-.155.06-.17.1-.04.177.328.407.44.475.025.221-.032.538-.218.631-.058.03-.069.05-.082.062-.149-.036-.29-.023-.29-.023.229.033.266.04.287.025a.07.07 0 0 0 .003-.002c.124.03.253.094.311.229.115.265.074.65-.233.602-.158-.025-.4.3-.4.3s.134.239.147.638c.018.544-.807.822-1.254.777a38.138 38.138 0 0 0-1.59-.113c-.505-.027-.853.107-1.144.582-.41.67-.396 1.095-.388 1.37.003.1.006.181-.013.246a3.11 3.11 0 0 0-.12 1.21c.04.48.558 1.751.558 1.751-.033-.035-.237-.11-.608-.245-.637-.233-1.77-.647-3.38-1.357-1.447-.637-2.315-.285-2.315-.285s1.153-3.923 1.284-4.851c.107-.753-.127-1.128-.257-1.338a3.624 3.624 0 0 1-.018-.028c-.15-.243-.728-.913-.728-.913s-.615-.825-.759-2.275c-.104-1.052.193-2.853 1.566-4.02 1.578-1.34 5.236-.78 5.874-.6.549.156.921.34 1.173.52.235.12.173.335.173.335 1.449.775 1.516 2.11 1.553 2.851.008.153.014.281.032.373.055.297-.06.402-.164.498-.067.061-.13.119-.144.22-.039.293.485.797.81 1.11z" fill="#3E4D68"/>
    </g>
    <defs>
        <clipPath id="0t7tjpvsha">
            <path fill="#fff" transform="translate(0 -.001)" d="M0 0h24v24H0z"/>
        </clipPath>
    </defs>
</svg>
