<svg width="24" height="24" viewBox="0 0 24 24" fill="none" xmlns="http://www.w3.org/2000/svg">
    <path fill-rule="evenodd" clip-rule="evenodd" d="M6.19 20.177c.007-.072.018-.15.028-.232.14-1.067.373-2.849-2.757-2.1L0 18.266l1.462-1.235-.45-3.976L.79 11.1c.602-.349 1.216-.668 1.84-.956v.051l.335.218.01-.108.01-.108c.185-.084.37-.166.557-.246-.19-.355-.516-.713-.985-1.053l-1.555-1.13 1.93.178c2.37.2 3.477.223 2.788-2.521L5.574 4.38l.88.623c2.8 1.87 3.423.201 3.924-1.761l.317-1.244.506 1.512c.914 3.678 3.72 2.484 4.591 1.404l1.24-1.307-.363 1.26c-.511 1.555 1.515 3.424 3.681 2.545l2.905-.594-2.474 1.71c-.415.287-.7.625-.873.987.243.115.485.234.726.357l-.013.038c.214.32.426.643.639.97l-.363 1.721c.218.166.46.31.726.43l.02-3.074c.598.252 1.187.532 1.766.838a.998.998 0 0 0-.008.039c.201.348.401.7.6 1.055l-.265 2.32.139.079-.148-.002-.201 1.765.037.064.175.305-.076 1.849c-.525-.366-1.06-.71-1.601-1.03a78.994 78.994 0 0 0-.622-.988l-.038-.017.08-1.831.133.071v-.014l.001-.196-.102-.001-.161-.001c-.301 0-.57.01-.81.026l-.51 2.417c-.46-.174-.925-.334-1.392-.478.08.306.2.66.36 1.067l.504 1.27-1.355-.385c-3.988-1.716-3.79.75-3.705 1.795.008.098.015.184.017.252l.066 1.955-1.114-1.565-.033-.046c-1.21-1.7-3.496-4.913-6.164.07l-1.257 1.6.23-2.064zm15.743-5.76.001-.149.008-1.071.02-2.739.15.067a21.798 21.798 0 0 1 .946.455l-.029.25-.03.258v.007l-.253 2.156-.074.625-.04.34-.013.115a21.355 21.355 0 0 0-.686-.27V14.417zm-3.373.727c.19.058.381.119.57.182h.001c.371-1.77.74-3.53 1.105-5.281-.405-.2-.814-.389-1.225-.565l-.882 4.33-.522-4.681a23.261 23.261 0 0 0-.985-.204l-.23 1.768-.319 2.434-.17-1.767v-.006l-.271-2.812a22.287 22.287 0 0 0-1.315-.162l.063.536.001.004.001.009.635 5.364c.523.064 1.043.147 1.562.248l.543-3.302.328 3.598c.372.093.742.196 1.11.307zM3.46 10.353l.213-.09a22.8 22.8 0 0 1 .538-.218l.112.96.396 3.403c.29-1.63.58-3.252.872-4.87.41-.076.824-.142 1.24-.194-.376 1.979-.749 3.968-1.12 5.966-.556.158-1.107.338-1.652.538l-.315-3.4c-.173 1.208-.346 2.419-.517 3.631-.491.211-.976.44-1.454.689a5489.91 5489.91 0 0 1-.636-5.496 24.481 24.481 0 0 1 1.202-.623l.15 1.58.192 2.018.015.157.013.132.04.433.52-4.533.191-.083zm19.3 6.316.053-1.157a24.46 24.46 0 0 0-1.03-.588l-.05 1.128c.345.196.688.402 1.028.617zm-12.255-3.65c.446-.037.811-.243 1.093-.63.267-.362.4-.782.4-1.268 0-.47-.133-.864-.4-1.178a1.194 1.194 0 0 0-1.062-.436c-.438.036-.803.268-1.095.687a2.22 2.22 0 0 0-.41 1.31c0 .478.135.857.406 1.144.274.287.63.407 1.068.37zM8.635 9.48c.508-.665 1.138-1.044 1.893-1.106.758-.062 1.396.202 1.912.76.52.554.778 1.253.778 2.07 0 .822-.252 1.503-.76 2.07-.51.585-1.147.893-1.908.954-.758.062-1.393-.125-1.907-.592-.51-.466-.763-1.095-.764-1.914 0-.823.251-1.579.756-2.242z" fill="#3E4D68"/>
</svg>
