<svg width="24" height="25" viewBox="0 0 24 25" fill="none" xmlns="http://www.w3.org/2000/svg">
    <g clip-path="url(#4oaokow1ba)">
        <path fill-rule="evenodd" clip-rule="evenodd" d="m19.765 9.589 3.766-1.405A.72.72 0 0 0 24 7.507V.751a.723.723 0 0 0-.974-.677L4.276 7.066a.722.722 0 0 0-.47.677v6.278L.701 15.18C.28 15.34 0 15.746 0 16.195v6.756a1.078 1.078 0 0 0 1.455 1.012l17.609-6.586c.42-.156.7-.563.7-1.011V9.588zm-15.91 5.175a.724.724 0 0 0 .925.412l14.273-5.322v6.509c0 .152-.095.29-.238.344L1.206 23.292a.36.36 0 0 1-.336-.042.358.358 0 0 1-.158-.3v-6.756c0-.154.097-.291.24-.345l2.903-1.085zm9.755-6.496c.117-.597.237-1.196.357-1.793.011 0 .02 0 .028-.002v3.126c0 .308.025.325.315.213l.018-.006c.237-.068.317-.213.315-.47-.01-.934-.009-1.87-.007-2.804a577.54 577.54 0 0 0 0-1.129c-.001-.054-.002-.108 0-.163.001-.116-.054-.154-.16-.12l-.27.091c-.09.03-.18.062-.27.09-.207.067-.277.211-.313.42-.072.427-.159.851-.245 1.275l-.09.44c-.035.181-.072.361-.109.54l-.05.244c-.133-.45-.237-.895-.34-1.34l-.064-.283c-.045-.198-.09-.396-.141-.592-.013-.053-.099-.139-.125-.13a9.562 9.562 0 0 0-.608.224l-.08.031c-.139.054-.178.152-.178.303.004 1.1.004 2.202.004 3.303v.878l.001.052c0 .114.063.137.156.1l.15-.063c.062-.028.123-.055.186-.077.13-.046.156-.137.156-.263-.003-.453-.003-.908-.002-1.362V7.12c.029.017.034.036.04.057l.135.565v.001c.1.422.201.843.304 1.263.083.342.085.34.421.235h.004c.194-.061.327-.166.35-.392.012-.133.042-.264.071-.395.014-.063.028-.125.04-.187zm3.057.564a.565.565 0 0 1-.024-.142l-.002-1.667v-.005c0-.836 0-1.671-.002-2.508 0-.173.063-.28.237-.308.05-.007.1-.02.148-.038l.004-.001c.11-.042.165-.063.204-.046.038.016.062.069.107.173l.004.01c.306.699.616 1.399.925 2.097.002.004.008.006.017.01l.029.016V4.03c0-.382.004-.39.364-.51.065-.021.131-.04.214-.063l.037-.01.014.064c.01.043.018.085.018.127l.002 1.678v.001c0 .84 0 1.679.002 2.518 0 .149-.036.255-.201.278-.006 0-.011.002-.017.004-.38.17-.387.153-.5-.12a6.446 6.446 0 0 0-.055-.126l-.67-1.51-.16-.355a.134.134 0 0 0-.072-.069V8.42c0 .25-.042.3-.28.368-.075.02-.146.042-.228.068l-.101.033-.014-.056zm-5.67.316v-.754c.003-.316.005-.63-.006-.944a1.505 1.505 0 0 0-.12-.506c-.091-.215-.397-.321-.598-.241-.186.074-.374.142-.562.21-.299.111-.557.265-.726.552a1.693 1.693 0 0 0-.237.871c-.006.827-.004 1.653 0 2.48.002.118.017.238.045.352.128.519.45.538.883.391.147-.049.295-.104.43-.178l.055-.03c.16-.088.324-.177.45-.301.277-.276.374-.637.383-1.02.007-.293.005-.588.004-.882zm-.656-.434v.276l.001.519.001.516c-.002.395-.074.498-.444.633a1.708 1.708 0 0 0-.098.04c-.044.02-.088.039-.134.053-.118.038-.215.017-.24-.125a1.245 1.245 0 0 1-.026-.236c-.002-.696-.004-1.394 0-2.09v-.023c0-.095 0-.197.038-.277a.604.604 0 0 1 .218-.253c.143-.084.304-.141.464-.183.05-.013.146.04.178.091.038.063.04.153.04.23.003.277.003.553.002.829zm10.656-3.183a9.75 9.75 0 0 1-.186.075c-.099.038-.154.01-.154-.103v-.51c.003-.165.12-.202.232-.237a.716.716 0 0 0 .103-.038c.158-.08.326-.138.495-.196l.126-.044c.074-.027.163-.032.161.078a9.38 9.38 0 0 0 .009.576c.016.469.033.939-.12 1.396-.126.37-.364.648-.757.768-.091.028-.18.064-.27.1-.111.045-.223.09-.34.119-.385.095-.6-.05-.689-.44a1.604 1.604 0 0 1-.042-.368 340.53 340.53 0 0 1-.002-2.414c0-.368.088-.713.303-1.02.174-.252.436-.372.71-.468l.007-.003c.197-.07.398-.14.602-.167.285-.036.452.07.515.35.057.253.064.517.071.777l.001.03c.002.056-.081.136-.146.172-.081.047-.171.076-.26.106a5.345 5.345 0 0 0-.065.022c-.117.04-.18.01-.176-.131.003-.105-.01-.21-.022-.313l-.003-.024c-.013-.103-.084-.162-.179-.125l-.04.014a2.532 2.532 0 0 0-.533.242c-.078.052-.118.208-.12.318-.011.781-.011 1.563-.006 2.345.002.258.137.327.367.207l.041-.021c.08-.041.16-.083.244-.11.167-.056.222-.187.237-.337.011-.117.012-.234.014-.351 0-.048 0-.095.002-.141a1.03 1.03 0 0 0-.005-.085 2.5 2.5 0 0 1-.007-.098l-.118.049zM7.624 9.297l.015.058.114-.033c.095-.028.18-.053.262-.084l.021-.008c.098-.036.208-.076.206-.204v-.108a4.619 4.619 0 0 0-.049-.751c-.06-.344-.28-.48-.623-.43-.135.021-.268.074-.395.13a8.44 8.44 0 0 1-.141.058 2.365 2.365 0 0 0-.47.232c-.356.248-.52.626-.532 1.044-.025.871-.023 1.744-.02 2.615 0 .173.039.35.088.515.074.242.249.362.496.337.12-.012.237-.053.354-.093a7.969 7.969 0 0 1 .185-.062c.129-.042.259-.083.376-.147.433-.234.66-.618.714-1.094.022-.183.017-.369.011-.565-.002-.092-.005-.186-.005-.283-.05.017-.096.033-.14.05a1.943 1.943 0 0 1-.263.081c-.178.037-.24.143-.237.312.002.114.004.228-.002.34-.011.24-.106.36-.327.434l-.042.014c-.101.034-.206.068-.296.121-.125.074-.18-.002-.218-.09a.537.537 0 0 1-.032-.214 66.937 66.937 0 0 1-.002-.803v-.268c0-.401 0-.804.004-1.205.002-.158.04-.312.188-.39.155-.084.323-.148.49-.207.12-.044.201.02.216.14.01.076.012.154.015.231a1.034 1.034 0 0 0 .04.326zm8.346-2.423V8.91c0 .253-.036.297-.28.364l-.045.01a.532.532 0 0 0-.102.031c-.213.096-.237.084-.237-.146-.002-.92-.001-1.84 0-2.761v-1.38c0-.217.049-.274.258-.333l.067-.017c.05-.011.099-.023.146-.042.17-.07.193-.057.193.15a403.651 403.651 0 0 1 0 2.088zm-1.346 8.118v.213c-.012 0-.023 0-.036.002l-.119-.268c-.257-.58-.514-1.162-.774-1.74-.142-.318-.146-.318-.477-.223-.267.078-.273.084-.273.361v4.108l-.002.035c-.002.029-.004.057.006.083.011.03.053.08.068.076l.106-.03c.138-.037.276-.074.395-.145.061-.036.07-.192.07-.295.005-.608.005-1.218.005-1.827v-.457c0-.04.002-.081.006-.133l.005-.07.036.058a.458.458 0 0 1 .036.062l.278.623c.186.416.372.83.554 1.248l.005.012c.152.35.153.35.51.23a.167.167 0 0 1 .032-.01c.169-.021.218-.124.218-.284-.002-.842-.002-1.684-.002-2.526 0-.561 0-1.122-.002-1.684 0-.049-.012-.097-.025-.145a1.404 1.404 0 0 1-.014-.058l-.042.014c-.096.033-.174.06-.25.088-.309.118-.314.128-.314.466v2.216zm-4.543 1.447v-.331c-.002-.276-.002-.552.002-.827.005-.422.097-.816.391-1.141.181-.2.42-.297.66-.395l.02-.008c.15-.061.304-.12.461-.154.37-.08.566.043.665.412.034.13.06.268.06.402.007.812.01 1.623 0 2.435-.005.434-.102.847-.44 1.153a1.89 1.89 0 0 1-.457.29c-.196.094-.403.17-.612.23-.245.071-.535.03-.636-.279a2.37 2.37 0 0 1-.11-.63c-.012-.266-.01-.535-.007-.804l.003-.353zm.66.114v.683c.003.431.054.467.466.329.393-.132.48-.251.48-.662v-2.096c0-.074-.003-.148-.018-.218-.037-.156-.113-.185-.259-.12-.044.02-.092.033-.14.046-.034.009-.068.018-.1.03-.32.11-.424.234-.424.544-.005.3-.005.6-.004.9V16.552zm-1.208.637c.002-.165.004-.33.01-.495l-.017-.001v-.341c.002-.284.002-.568-.002-.852a2.08 2.08 0 0 0-.041-.405c-.082-.386-.304-.532-.69-.447a2.434 2.434 0 0 0-.444.149l-.112.048a1.954 1.954 0 0 0-.447.239c-.376.296-.512.72-.518 1.183-.01.84-.008 1.68.002 2.521.002.16.038.33.097.477.129.32.393.402.714.269l.047-.02c.118-.05.237-.1.36-.133.569-.155.917-.534.987-1.106.044-.358.05-.722.054-1.085zm-.666-.26h.002c0 .351 0 .703.002 1.055.002.457-.126.505-.417.614l-.05.019c-.426.16-.48.108-.48-.342v-2.044c0-.394.08-.518.495-.645l.06-.015a.7.7 0 0 0 .103-.029c.187-.07.28-.015.283.194.006.278.005.556.003.835v.357zm-3.749 2.24.015.116c.01.068.018.134.023.2.017.246.074.296.31.231.144-.04.294-.087.418-.17.191-.127.294-.632.163-.824-.044-.065-.173-.101-.262-.101-.13 0-.26.013-.39.026a6.15 6.15 0 0 1-.237.021c-.382.023-.532-.057-.619-.507-.114-.58-.11-1.166.194-1.704.146-.259.368-.428.65-.527.074-.026.147-.056.22-.087.096-.04.193-.08.292-.11.346-.103.642-.025.754.42.039.157.042.325.046.492l.003.133c.002.048-.032.12-.07.14-.154.075-.313.14-.475.195-.019.008-.087-.067-.098-.11-.013-.054-.016-.109-.019-.164-.002-.036-.004-.071-.008-.106-.017-.145-.106-.185-.241-.158-.488.093-.76.525-.627 1.004.027.097.08.165.19.154l.108-.008c.117-.008.235-.016.346-.05.461-.136.845.039.912.53.075.56.094 1.121-.202 1.64-.156.27-.39.44-.668.554-.118.048-.237.092-.356.135-.08.03-.16.059-.239.09-.226.087-.518-.043-.634-.278-.13-.267-.131-.55-.108-.833.003-.053.074-.12.129-.149.1-.051.21-.093.337-.14l.143-.056z" fill="#2A3042"/>
    </g>
    <defs>
        <clipPath id="4oaokow1ba">
            <path fill="#fff" transform="translate(0 .028)" d="M0 0h24v24H0z"/>
        </clipPath>
    </defs>
</svg>
