<svg width="24" height="24" viewBox="0 0 24 24" fill="none" xmlns="http://www.w3.org/2000/svg">
    <g clip-path="url(#t50spyhnqa)">
        <path fill-rule="evenodd" clip-rule="evenodd" d="M3.611 1.289c.093 0 .164.082.163.178l-.002.347v.122H1.68l-.002-.469c-.001-.096.07-.178.163-.178h1.77zm.524 11.47c.18.097.284.297.283.508a12324.504 12324.504 0 0 1-.015 6.573c0 .449-1.285.616-1.755.616S.893 20.288.893 19.84l-.005-2.237-.01-4.336c0-.21.1-.409.28-.505 1.003-.542 1.973-.543 2.977-.003zM1.139 8.462C.605 8.78.07 9.54.006 10.393c-.007.095-.007.19-.006.285v.057c.005 1.29.028 9.304.028 11.005 0 .69 1.976.946 2.698.946.723 0 2.698-.256 2.698-.947 0-1.7.023-9.713.028-11.004v-.057c0-.095.001-.19-.006-.285-.065-.853-.599-1.614-1.133-1.931-.569-.34-.535-1.015-.535-1.015s-.006-2.34-.007-4.135h.149a.17.17 0 0 0 .167-.173V2.54a.17.17 0 0 0-.167-.172H1.532a.162.162 0 0 0-.133.073.173.173 0 0 0-.034.1v.6a.17.17 0 0 0 .167.172h.15c-.002 1.795-.008 4.135-.008 4.135s.034.676-.535 1.015zm12.36 5.577c-1.886.962-3.302 2.9-3.75 5.25h1.37c.12-1.117.588-3.318 2.38-5.25zm9 6c-.377-3.767-3.015-6.754-6.333-7.168.13-.192.21-.433.21-.696 0-.628-.449-1.136-1.001-1.136-.553 0-1 .508-1 1.136 0 .263.078.504.209.696-3.319.414-5.956 3.4-6.334 7.168H22.5zm.738 1.145H7.615a.765.765 0 0 0-.763.763c0 .42.343.763.763.763h15.622c.42 0 .763-.344.763-.763a.765.765 0 0 0-.763-.763z" fill="#3E4D68"/>
    </g>
    <defs>
        <clipPath id="t50spyhnqa">
            <path fill="#fff" transform="translate(0 -.001)" d="M0 0h24v24H0z"/>
        </clipPath>
    </defs>
</svg>
