<svg width="24" height="24" viewBox="0 0 24 24" fill="none" xmlns="http://www.w3.org/2000/svg">
    <g clip-path="url(#31ehi29doa)" fill="#3E4D68">
        <path fill-rule="evenodd" clip-rule="evenodd" d="M11.732 4.113c-.587-.337-2.758-1.21-7.572.515.896 2.803 2.503 5.01 4.32 5.92 1.06.531 2.185.632 3.344.292-.56-.814-.93-1.623-1.104-2.424-2.204-.8-2.988-1.591-3.115-1.746.271.038 1.937.273 3.007.986-.03-.47.007-.936.113-1.398.168-.737.505-1.453 1.007-2.145zM7.605 6.67h-.004l-.033-.006.019-.019a.195.195 0 0 0 .018.025z"/>
        <path d="M16.2 6.045c-.283.398-1.784 2.511-3.311 5.326-1.465-1.72-2.023-3.397-1.658-4.996C12.048 2.8 17.218.565 18.39.1c1.791 4.644 1.924 8.005.394 9.992-1.522 1.976-4.304 1.97-5.075 1.928 1.903-3.19 2.363-5.276 2.494-5.87.018-.085.03-.139.039-.162l.005-.01a2.236 2.236 0 0 1-.047.067zM8.644 23.898h6.583a.222.222 0 0 0 .218-.18l.795-4.201H7.632l.794 4.201c.02.104.112.18.218.18zM12.145 14.585c.622-1.136 1.103-2.02 1.176-2.243-.545.108-.784-.575-.784-.575s-.039.82-1.355 2.818H6.268a.183.183 0 0 0-.183.184v3.814c0 .102.082.184.183.184h11.335a.184.184 0 0 0 .184-.184V14.77a.184.184 0 0 0-.184-.184h-5.459z"/>
    </g>
    <defs>
        <clipPath id="31ehi29doa">
            <path fill="#fff" transform="translate(0 -.001)" d="M0 0h24v24H0z"/>
        </clipPath>
    </defs>
</svg>
