<svg xmlns="http://www.w3.org/2000/svg" width="322" height="48" viewBox="0 0 322 48">
    <g fill="none" fill-rule="evenodd">
        <g>
            <g>
                <g>
                    <path fill="#54575A" d="M130.828 27.831h3.804V0h-3.804v27.831zM147.66 9.168h-4.582l-8.447 9.287 9.24 9.374h5.13l-9.45-9.376 8.109-9.285zm2.777.62l-.313.011h-.121v-.401h.12c.245 0 .298 0 .376.044l.082.156c0 .052-.02.15-.144.19zm.062.206c.304-.044.4-.25.4-.415 0-.124-.05-.249-.152-.322-.113-.092-.255-.092-.517-.092h-.526v1.479h.299v-.61h.054c.12 0 .196.008.287.13.086.11.131.19.155.238l.122.242h.367l-.17-.297c-.141-.241-.183-.302-.319-.353zm-.202 1.027c-.617 0-1.12-.501-1.12-1.12 0-.61.503-1.117 1.12-1.117.615 0 1.122.5 1.122 1.118 0 .626-.507 1.12-1.122 1.12zm0-2.51c-.77 0-1.388.63-1.388 1.39 0 .77.619 1.398 1.388 1.398.761 0 1.394-.617 1.394-1.397 0-.773-.633-1.39-1.394-1.39zm-76.396.223c-5.276 0-9.771 4.428-9.771 9.41v9.687h3.814v-9.507c0-3.208 2.728-5.776 5.957-5.776 3.294 0 5.953 2.496 5.961 5.784v9.499h3.805v-9.687c0-4.99-4.487-9.41-9.766-9.41zm22.57 15.72c-3.29-.008-5.952-2.67-5.957-5.955.005-3.29 2.667-5.95 5.958-5.959 3.293.009 5.95 2.669 5.959 5.959-.01 3.286-2.666 5.947-5.96 5.955zm0-15.72c-5.395 0-9.766 4.376-9.766 9.765 0 5.392 4.37 9.77 9.767 9.77 5.394 0 9.767-4.378 9.767-9.77 0-5.39-4.373-9.766-9.767-9.766zm21.604 15.724c-3.295-.007-5.952-2.668-5.962-5.952.01-3.287 2.667-5.95 5.962-5.96 3.285.01 5.951 2.673 5.951 5.96 0 3.291-2.666 5.945-5.95 5.952zm0-15.726c-5.4 0-9.774 4.376-9.774 9.774 0 5.392 4.377 9.763 9.774 9.763 5.391 0 9.762-4.37 9.763-9.763-.001-5.396-4.37-9.774-9.763-9.774z" transform="translate(-19 -44) translate(19.2 44) translate(.96 .96)"/>
                    <path fill="#6575A1" d="M261.404 25.87c-3.54 0-6.137-2.937-6.137-6.514 0-3.577 2.597-6.475 6.137-6.475 3.54 0 6.099 2.898 6.099 6.475 0 3.577-2.56 6.514-6.1 6.514zm-.038-15.286c-4.857 0-8.773 3.915-8.773 8.772 0 4.856 3.916 8.81 8.773 8.81 4.857 0 8.81-3.954 8.81-8.81 0-4.857-3.953-8.772-8.81-8.772zM241.678 25.87c-.338 0-1.958 0-3.878-.679v-9.826c1.693-1.845 3.575-2.484 4.819-2.484 2.937 0 5.27 2.71 5.27 6.325 0 3.84-2.671 6.664-6.211 6.664zm1.469-15.286c-2.786 0-4.52 1.506-5.347 2.145V2.15H235.2v24.737c1.958.827 4.105 1.278 6.25 1.278 5.611 0 9.11-3.65 9.11-9.186 0-4.329-2.672-8.395-7.414-8.395zm37.907 15.286c-3.538 0-6.136-2.937-6.136-6.514 0-3.577 2.598-6.475 6.136-6.475 3.54 0 6.099 2.898 6.099 6.475 0 3.577-2.558 6.514-6.099 6.514zm-.038-15.286c-4.857 0-8.772 3.915-8.772 8.772 0 4.856 3.915 8.81 8.772 8.81s8.81-3.954 8.81-8.81c0-4.857-3.953-8.772-8.81-8.772zm26.128.339h-3.202l-8.394 8.131 9.562 8.773h3.54l-9.713-8.773 8.207-8.131zm-14.382 16.904h2.597V2.15h-2.597v25.677zm23.302-8.734c-4.027-2.11-5.196-2.673-5.196-4.029 0-1.167 1.13-2.183 2.862-2.183 1.658 0 3.126.714 4.781 1.73v-2.597c-.865-.49-2.485-1.431-4.82-1.431-3.726 0-5.421 2.486-5.421 4.555 0 2.824 2.374 4.03 4.443 5.01 2.223 1.053 3.764 1.844 3.764 3.463 0 1.43-1.541 2.259-2.86 2.259-.904 0-2.673-.228-5.459-1.921v2.673c1.77.941 3.426 1.544 5.42 1.544 4.219 0 5.574-3.05 5.574-4.744 0-2.636-2.185-3.84-3.088-4.329zm-92.57 6.777c-3.54 0-6.136-2.937-6.136-6.514 0-3.577 2.597-6.475 6.137-6.475 3.538 0 6.099 2.898 6.099 6.475 0 3.577-2.56 6.514-6.1 6.514zm-.036-15.286c-4.857 0-8.774 3.915-8.774 8.772 0 4.856 3.917 8.81 8.774 8.81 4.857 0 8.81-3.954 8.81-8.81 0-4.857-3.953-8.772-8.81-8.772zm-38.812 12.31c-1.582 2.674-3.728 2.976-4.706 2.976-2.974 0-4.067-2.222-4.067-5.084v-9.863h-2.597v10.09c0 4.367 2.259 7.152 6.061 7.152 2.41 0 4.067-1.241 5.31-2.898v2.56h2.598V10.923h-2.599v11.972zm18.182 2.636h-3.313c-3.992 0-6.701-2.146-6.701-6.212 0-3.389 1.958-6.437 6.136-6.437 1.92 0 3.277.752 3.878 1.09V25.53zm0-13.93c-.714-.301-2.22-1.017-4.292-1.017-5.422 0-8.395 4.066-8.395 8.81 0 5.423 3.425 8.435 9.336 8.435h5.95V2.149h-2.6v9.45zm6.361 16.228h2.599V10.923h-2.599v16.905zm1.317-23.796c-.941 0-1.693.753-1.693 1.694 0 .942.752 1.695 1.693 1.695.941 0 1.696-.753 1.696-1.695 0-.94-.755-1.694-1.696-1.694zm-43.854 20.445c-.64.602-1.996 1.806-3.804 1.806-.978 0-2.86-.564-2.86-2.599 0-2.107 2.333-3.537 6.664-4.328v5.121zm2.598.677v-9.262c0-1.92-.905-5.308-5.724-5.308-2.748 0-4.667 1.356-5.497 2.07v2.711c1.47-1.355 3.05-2.484 5.271-2.484 3.163 0 3.352 2.183 3.352 3.275v1.506c-7.003 1.242-9.262 3.464-9.262 6.212 0 2.486 1.996 4.292 4.367 4.292 1.507 0 2.824-.338 4.932-1.92.151.79.453 1.92 1.845 1.92.452 0 1.243-.039 3.351-1.544v-1.77c-1.017.829-1.844 1.206-2.184 1.206-.377 0-.451-.188-.451-.904zM26.026.644c-7.512 0-13.913 6.305-13.913 13.397v13.79h5.432V14.297c0-4.567 3.883-8.224 8.481-8.224 4.687 0 8.474 3.555 8.486 8.235v13.523h5.417V14.04c0-7.103-6.39-13.397-13.903-13.397zm19.416 24.038v-9.834c2.117.635 3.664 2.597 3.664 4.916 0 2.319-1.547 4.284-3.664 4.918zm-1.468-12.983h-1.467v16.132h1.467c4.45 0 8.067-3.618 8.067-8.067 0-4.447-3.618-8.065-8.067-8.065zM6.6 24.682c-2.117-.634-3.664-2.599-3.664-4.918 0-2.32 1.547-4.281 3.664-4.916v9.834zM0 19.764c0 4.45 3.619 8.067 8.066 8.067h1.468V11.699H8.066C3.62 11.7 0 15.317 0 19.764z" transform="translate(-19 -44) translate(19.2 44) translate(.96 .96)"/>
                    <path fill="#54575A" d="M267.154 40.547c-1.295-.306-1.602-.537-1.602-1.055v-.019c0-.441.403-.796 1.093-.796.614 0 1.218.24 1.823.69l.633-.892c-.681-.547-1.458-.844-2.436-.844-1.333 0-2.293.797-2.293 1.947v.02c0 1.237.806 1.659 2.235 2.004 1.247.288 1.516.547 1.516 1.026v.02c0 .498-.461.843-1.19.843-.825 0-1.477-.316-2.12-.872l-.71.844c.807.719 1.775 1.074 2.801 1.074 1.41 0 2.398-.748 2.398-2.004v-.02c0-1.112-.729-1.62-2.148-1.966zm-14.6 1.823l-3.596-4.642h-1.093v6.712h1.16v-4.775l3.703 4.775h.987v-6.712h-1.16v4.642zm5.506-.787h3.367v-1.055h-3.367v-1.745h3.798v-1.055h-4.976v6.712h5.024v-1.055h-3.846v-1.802zm16.46 2.822c-.529 0-.942-.153-1.238-.458-.297-.305-.445-.718-.445-1.237 0-.664.252-1.215.756-1.656l2.322 2.82c-.422.354-.887.53-1.395.53zm-.765-6.872c.306-.175.73-.147 1.004.075.292.241.386.577.38.938-.011.701-.38 1.206-.922 1.627-.46-.486-.84-.983-.912-1.657-.042-.403.132-.8.45-.983zm4.68 7.019c-.256 0-.48-.082-.671-.244-.192-.16-.404-.415-.639-.762.362-.565.543-1.24.543-2.023 0-.162-.01-.34-.032-.532-.01-.067.02-.11.09-.13l.667-.175-.016-.249c-.142.008-.293.014-.45.018-.159.004-.328.005-.51.005-.209 0-.414-.001-.614-.005s-.402-.01-.605-.018l.01.255.661.141c.067.015.118.038.152.068.034.03.056.082.066.153.022.143.033.33.033.56 0 .56-.117 1.062-.352 1.503l-2.271-2.64c1.087-.538 1.591-1.167 1.591-1.947 0-.482-.131-.892-.477-1.166-.345-.275-.771-.413-1.277-.413-.575 0-1.056.162-1.443.486-.387.324-.581.755-.581 1.294 0 .293.054.58.162.86.109.278.356.658.743 1.14-1.03.573-1.544 1.297-1.544 2.17 0 .645.25 1.155.751 1.532.5.377 1.117.565 1.847.565.781 0 1.49-.245 2.126-.735.394.505.872.757 1.433.757.337 0 .662-.084.975-.253l-.043-.25c-.116.024-.225.035-.325.035zm16.628-3.36c0 1.305-.93 2.36-2.263 2.36-1.334 0-2.283-1.074-2.283-2.378v-.02c0-1.304.93-2.368 2.263-2.368 1.333 0 2.283 1.083 2.283 2.388v.019zm-2.263-3.49c-2.062 0-3.52 1.582-3.52 3.472v.019c0 1.89 1.439 3.453 3.5 3.453 2.063 0 3.52-1.583 3.52-3.472v-.02c0-1.89-1.438-3.452-3.5-3.452zm22.137 5.774v-1.804h3.366v-1.055h-3.366V38.87h3.798v-1.055h-4.978v6.714h5.026v-1.054h-3.846zm-29.111-1.017l-3.596-4.643h-1.094v6.714h1.16v-4.775L286 44.53h.988v-6.714h-1.161v4.643zm17.37.105c0 .604-.488.92-1.295.92h-1.955v-1.84h1.87c.93 0 1.38.335 1.38.9v.02zm-3.25-3.702h1.697c.757 0 1.18.326 1.18.854v.02c0 .613-.508.91-1.266.91h-1.611v-1.784zm3.097 2.177c.499-.259.959-.69.959-1.496v-.018c0-.452-.154-.817-.45-1.114-.384-.383-.988-.595-1.756-.595h-3.011v6.715h3.107c1.496 0 2.484-.643 2.484-1.842v-.019c0-.91-.546-1.363-1.333-1.63zm-62.18.016v-2.253h1.717c.872 0 1.39.392 1.39 1.112v.02c0 .68-.537 1.121-1.38 1.121h-1.727zm4.306-1.189v-.019c0-.585-.202-1.084-.556-1.448-.431-.422-1.094-.672-1.938-.672h-2.992v6.714h1.18v-2.34h1.477l1.65 2.34h1.4l-1.813-2.542c.93-.269 1.592-.93 1.592-2.033zm62.584-2.05h-1.18v6.714h4.71v-1.073h-3.53v-5.64zm-92.766 5.368l-1.443-3.795h-1.259l2.13 5.122c-.194.436-.397.581-.726.581-.242 0-.474-.077-.687-.193l-.398.87c.36.195.727.311 1.212.311.823 0 1.277-.387 1.684-1.433l2.034-5.258h-1.22l-1.327 3.795zm12.112-.71c0 .605-.49.921-1.295.921h-1.957v-1.841h1.87c.93 0 1.382.336 1.382.901v.02zm-3.252-3.702h1.698c.757 0 1.18.327 1.18.855v.019c0 .613-.509.91-1.267.91h-1.61v-1.784zm3.098 2.177c.5-.258.959-.69.959-1.495v-.02c0-.45-.153-.815-.45-1.112-.384-.384-.988-.595-1.755-.595h-3.012v6.714h3.107c1.497 0 2.485-.643 2.485-1.842v-.019c0-.91-.547-1.362-1.334-1.63zm-16.264 1.525c0 .605-.489.921-1.295.921h-1.956v-1.841h1.87c.93 0 1.381.336 1.381.901v.02zm-3.251-3.702h1.698c.757 0 1.18.327 1.18.855v.019c0 .613-.51.91-1.267.91h-1.611v-1.784zm3.098 2.177c.498-.258.958-.69.958-1.495v-.02c0-.45-.153-.815-.45-1.112-.384-.384-.988-.595-1.755-.595h-3.011v6.714h3.107c1.496 0 2.484-.643 2.484-1.842v-.019c0-.91-.547-1.362-1.333-1.63zm21.894.825l1.152-2.685 1.16 2.685h-2.312zm.624-4.094l-2.955 6.76h1.21l.69-1.62h3.174l.681 1.62h1.247l-2.954-6.76h-1.093z" transform="translate(-19 -44) translate(19.2 44) translate(.96 .96)"/>
                </g>
            </g>
        </g>
    </g>
</svg>
