<svg width="24" height="25" viewBox="0 0 24 25" fill="none" xmlns="http://www.w3.org/2000/svg">
    <path fill-rule="evenodd" clip-rule="evenodd" d="M6.014 20.384c.109-1.02.204-2.438-.23-2.972-.063-.08-.258-.319-.907-.319-.515 0-1.194.142-2.078.435L0 18.455l2.281-2.004c1.07-.94 1.145-1.355 1.128-1.49-.027-.205-.339-.58-1.677-1.193L.23 13.08l1.568-.481c2.132-.655 2.516-1.183 2.555-1.44.031-.204-.089-.823-1.867-2.165L.975 7.854l1.91.009c1.376 0 2.139-.188 2.471-.612.255-.324.321-.901.203-1.764l-.144-1.054.907.383c.992.419 1.681.614 2.171.614.56 0 1.104-.164 1.59-2.146l.309-1.256.696 1.053c.79 1.195 1.455 1.683 2.295 1.683.538 0 1.19-.187 2.05-.59l1.116-.521-.353 1.272C15.898 6 15.891 6.79 16.174 7.21c.245.361.773.545 1.572.545.547 0 1.21-.085 2.027-.26l2.822-.6-2.404 1.728c-1.847 1.328-2.192 2.054-2.156 2.429.057.588 1.093 1.316 3.079 2.163L24 14.446l-3.097-.034h-.157c-1.828 0-2.44.374-2.63.689-.235.386-.125 1.14.345 2.372l.49 1.283-1.198-.458c-1.005-.384-1.808-.578-2.387-.578-.43 0-.73.104-.918.318-.41.465-.424 1.59-.397 2.396l.063 1.973-1.082-1.58c-1.166-1.702-2.095-2.495-2.923-2.495-.825 0-1.78.777-3.097 2.52L5.79 22.467l.224-2.084z" fill="#2A3042"/>
    <path fill-rule="evenodd" clip-rule="evenodd" d="m6.284 17.268.66 1.084 3.576-1.084-.13-2.063 1.623.779 1.043-.391 1.315.816 3.031-.95-1.703-9.456-1.527-.7-3.405.705-.584 3.776s-.72-2.68-.835-2.68c-.116 0-1.718-.047-1.718-.047L4.186 8.08l2.098 9.188z" fill="#2A3042"/>
    <path fill-rule="evenodd" clip-rule="evenodd" d="m14.395 5.392-3.537 1.011-.619 4.558-2.425-4.01-3.487.723 2.164 9.661 2.988-.569-1.412-5.937 2.347 4.747 1.336-.234.463-5.705 1.29 6.047 2.47-.857-1.578-9.435z" fill="#fff"/>
    <path d="m14.445 5.527 1.509.798 1.721 9.359-3.031.95-1.315-.816M15.973 14.827l1.703.857M7.78 7.002l1.855.058 1.159 3.085M6.669 17.323l.653 1.03 3.472-.94-.69-3.998M9.447 16.634l1.347.778" stroke="#fff" stroke-width=".5"/>
    <path d="m10.664 15.576 1.623.633 1.216-.525" stroke="#fff" stroke-width=".5"/>
</svg>
