<svg xmlns="http://www.w3.org/2000/svg" width="54" height="54" viewBox="0 0 54 54">
    <g fill="none" fill-rule="evenodd">
        <g fill="black">
            <g>
                <path d="M27 51.76c-13.652 0-24.76-11.108-24.76-24.761 0-13.653 11.108-24.76 24.76-24.76 13.653 0 24.761 11.107 24.761 24.76C51.761 40.652 40.653 51.76 27 51.76zM27 0C12.112 0 0 12.112 0 26.999 0 41.887 12.112 54 27 54c14.889 0 27-12.113 27-27.001C54 12.112 41.889 0 27 0zm5.887 28.349h-.423v-4.395h.423c1.281 0 2.323.986 2.323 2.197 0 1.213-1.042 2.198-2.323 2.198zm-1.445 0h-.845c-.607 0-1.098-.492-1.098-1.099v-3.546c-.005-1.608-.814-2.829-2.497-2.829-1.649 0-2.494 1.256-2.494 2.825v3.55c0 .607-.491 1.099-1.099 1.099h-.85v-4.737c0-2.436 1.747-4.602 4.443-4.602 2.696 0 4.44 2.162 4.44 4.602v4.737zm-9.905 0h-.423c-1.281 0-2.324-.985-2.324-2.198 0-1.211 1.043-2.197 2.324-2.197h.423v4.395zm12.87-17.634H19.593c-2.408 0-4.379 1.97-4.379 4.38v28.223L27 34.336l11.786 8.982V15.095c0-2.41-1.971-4.38-4.379-4.38z" transform="translate(-153 -1084) translate(153 1084)"/>
            </g>
        </g>
    </g>
</svg>
