<svg width="24" height="24" viewBox="0 0 24 24" fill="none" xmlns="http://www.w3.org/2000/svg">
    <g clip-path="url(#g28v0ifmqa)">
        <path fill-rule="evenodd" clip-rule="evenodd" d="m9.546 2.652.005-.002.004-.001c2.42-.884 4.842-1.767 7.264-2.65l3.312 7.575.005.013.005.012.004.01.003.006.004.009.003.006.027.062.005.013.014.03 3.291 7.53c.368 1.005.492 2.01-1.096 3.016-3.825 2.097-9.998 5.176-14.376 5.707-.747.09-1.123-.348-2.159-1.553l-.407-.472-5.18-5.967 1.46-.409-.783-.598c.68-.197 1.351-.366 2.005-.516L1.903 13.32l3.062-.708-3.859-5.228L3.044 6.7l-.256-.472c-.163-.301-.33-.61-.503-.926l7.261-2.65zM3.342 5.749l7.299 13.605c.556.867.412 2.372-1.758 3.83 4.899-1.118 8.467-2.882 11.927-4.98l-5.14 1.88v-.42l6.56-2.377.005.042c1.021-.755.709-1.586.208-2.704L16.497.928 3.342 5.75zm-.872 9.403.949-.173 6.324 6.92-.044.049c-.194.217-.29.325-.63.455l-6.6-7.251zm6.254 1.791L3.334 7.38l-1.14.465 6.53 9.098zm7.34-14.98L4.77 6.103l.282.483 11.174-4.18-.16-.443zM6.43 9.508l11.296-4.14.16.442L6.71 9.99l-.282-.482zm14.534 4.245-10.478 3.84.282.483 10.394-3.89-.198-.433zm-.436-.955-10.52 3.856.282.483 10.437-3.905-.198-.434zm-.435-.954L9.53 15.716l.282.481 10.479-3.92-.2-.433zM9.334 15.259l-.282-.483 10.605-3.887.198.433L9.334 15.26zm-.478-.94-.282-.482 10.649-3.903.197.434L8.856 14.32zm-.477-.938-.282-.483 6.247-2.29.209.463-6.174 2.31zm-.478-.939-.282-.482 6.293-2.306.208.46-6.219 2.328zm5.58-3.745-6.34 2.324.283.482 6.265-2.344-.209-.462zm.647-.164 1.045 2.328 3.845-1.248-1.18-2.428-3.71 1.348zm-2.664 10.188-.037-.079 2.358-.884a.892.892 0 0 0 .1.113c.187.193.565.583.722 1.23.198.82 0 1.533 0 1.533-1.147.47-1.832.708-3.216 1.03.333-.584.508-.92.508-1.65 0-.366-.274-.95-.435-1.293zm4.091.391-.097-.398 6.559-2.325c.073.104.087.437.087.437l-6.549 2.286zm-.515-1.289 6.498-2.302c.038.083.074.17.11.255l.037.088-6.401 2.312-.244-.353zm.834-14.28a.195.195 0 0 0 .028-.071l.04-.28a.938.938 0 0 0-.351-.063 1.193 1.193 0 0 0-.396.073.907.907 0 0 0-.297.172.744.744 0 0 0-.181.23.651.651 0 0 0-.032.514.735.735 0 0 0 .135.24c.053.059.11.103.171.134a.63.63 0 0 0 .196.055c.067.007.135.01.203.007.067-.003.132-.007.195-.012.064-.005.121-.006.174-.001a.34.34 0 0 1 .138.039c.04.021.069.057.087.108.032.087.03.16-.006.22a.358.358 0 0 1-.191.136.525.525 0 0 1-.186.036.922.922 0 0 1-.155-.014l-.125-.026a.177.177 0 0 0-.1.005.153.153 0 0 0-.088.1l-.063.288a.832.832 0 0 0 .192.062 1.304 1.304 0 0 0 .44.008c.076-.012.148-.03.215-.055a.977.977 0 0 0 .309-.174.702.702 0 0 0 .256-.526.802.802 0 0 0-.05-.3.61.61 0 0 0-.126-.216.537.537 0 0 0-.17-.124.613.613 0 0 0-.194-.053 1.543 1.543 0 0 0-.204-.01c-.068 0-.135.002-.2.007a1.389 1.389 0 0 1-.175-.002.384.384 0 0 1-.136-.035.16.16 0 0 1-.081-.093.217.217 0 0 1 .01-.187c.031-.058.094-.104.188-.138a.47.47 0 0 1 .154-.03.71.71 0 0 1 .13.006c.04.005.076.01.108.016.031.004.059.002.082-.006a.108.108 0 0 0 .056-.04zm-1.56.008.12 2.41-.455.166-.896-1.195a.83.83 0 0 1-.047-.06 4.764 4.764 0 0 1-.05-.073l.008.088a.822.822 0 0 1 .003.076l.075 1.494-.455.165L11.16 4.7l.423-.154a.199.199 0 0 1 .119-.01.144.144 0 0 1 .087.058l.708 1.022c.022.033.046.069.07.108l.074.121c-.016-.1-.024-.19-.025-.272l-.06-1.258a.163.163 0 0 1 .03-.095.182.182 0 0 1 .094-.073l.149-.054a.178.178 0 0 1 .117-.007c.034.01.063.028.089.055l.76 1.003c.05.06.1.131.15.213a4.042 4.042 0 0 1-.035-.255l-.114-1.238a.15.15 0 0 1 .03-.097.187.187 0 0 1 .094-.071l.396-.144zm-3.86 2.416-.185-.506.89-.324-.141-.386-1.395.507.789 2.167 1.394-.508-.14-.386-.89.323-.188-.516.682-.247-.136-.372-.68.248zM9.955 7.59l-.789-2.167-.443.162.417 1.146a2.395 2.395 0 0 0 .098.227l-1.504-.926a.414.414 0 0 0-.052-.027.126.126 0 0 0-.042-.01.135.135 0 0 0-.045.003.453.453 0 0 0-.056.017l-.264.097.788 2.166.443-.16-.422-1.162a1.936 1.936 0 0 0-.04-.1 1.605 1.605 0 0 0-.049-.11l1.492.92c.037.021.071.034.101.037a.256.256 0 0 0 .105-.018l.262-.095z" fill="#3E4D68"/>
    </g>
    <defs>
        <clipPath id="g28v0ifmqa">
            <path fill="#fff" transform="translate(0 -.001)" d="M0 0h24v24H0z"/>
        </clipPath>
    </defs>
</svg>
