<svg width="24" height="24" viewBox="0 0 24 24" fill="none" xmlns="http://www.w3.org/2000/svg">
    <path fill-rule="evenodd" clip-rule="evenodd" d="M17.938 8.277c-.023.051-.587 1.257-1.926 1.257-1.325 0-1.857-.966-1.879-1.008a.34.34 0 0 1 .599-.322c.016.029.377.65 1.28.65.906 0 1.302-.85 1.306-.859a.34.34 0 0 1 .62.282zm-4.41 1.696c-.02.043-.507 1.062-1.615 1.062a1.599 1.599 0 0 1-1.508-.925.34.34 0 0 1 .629-.258c.024.054.24.503.879.503.67 0 .987-.645 1.001-.672a.34.34 0 0 1 .614.29zM9.722 8.66c-.024.052-.588 1.258-1.927 1.258-1.323 0-1.855-.966-1.877-1.007a.34.34 0 0 1 .598-.323c.016.029.376.65 1.28.65s1.303-.85 1.307-.86a.34.34 0 0 1 .62.282zm9.56-7.137C13.302.59 11.93 5.583 11.93 5.583c-.275-2.14-3.786-4.443-6.912-4.005C2.792 1.89.633 3.378 0 6.634c.157 1.297.839 3.28 3.371 4.573 3.98 2.03 4.335 2.057 8.45 2.112l2.105-1.048s.446-.242.582-.104c.138.137-.11.356-.41.521-.303.164-.33.329-.193.329s.67-.103 1.026-.185c.357-.083.755-.215.95-.254.216-.043.43-.078.485.032.054.11.09.27-.705.544-.796.274-1.86.476-.933.494.446.009 1.554-.301 1.734-.373.209-.083.506.083.18.34-.357.282-1.177.475-1.914.609-.302.055-.137.192.028.192.164 0 1.242-.216 1.485-.268.264-.055.64.045.284.291-.356.248-1.022.425-1.797.553-.164.027-.274.22-.027.192.247-.027.96-.219 1.07-.165.11.056.356.22-.33.44-.685.22-3.746.757-6.282.548-2.776-.23-7.46-1.641-8.886-3.708C2.128 18.593 12.039 22.59 12.039 22.59c3.066-1.072 5.33-2.669 7.007-4.381-4.804 2.567-8.377 1.968-8.377 1.968-.422-.256 0-.311.675-.366.677-.055.22-.202-.11-.164-1.401.155-1.535-.11-1.535-.11-.458-.274.183-.348.183-.348s1.207-.036 1.37-.128c.69-.383-.675-.146-.675-.146s-.842.055-1.262-.202c-.42-.255.128-.347.42-.347.293 0 1.189.018 1.537-.11.347-.127-.055-.146-.421-.146s-1.225-.072-1.353-.146c-.42-.24 0-.366.22-.402.218-.037.566.018 1.7-.074 1.133-.091-.402-.42-.402-.42-.458-.348.219-.42.585-.329 1.318.329 2.25.347 2.25.347a11.508 11.508 0 0 0 9.785-7.207c.04-.159.072-.287.09-.346.219-.713 1.536-7.077-4.444-8.01z" fill="#3E4D68"/>
</svg>
